<svg xmlns="http://www.w3.org/2000/svg" width="534.432" height="43.872" viewBox="0 0 534.432 43.872">
  <path id="パス_2" data-name="パス 2" d="M45.36-25.248c-.528-.528-3.12-2.88-3.744-3.36a.669.669,0,0,0-.432-.192c-.1,0-.144.048-.24.192-.48.72-1.776,2.544-2.016,2.784a.835.835,0,0,1-.672.24H24.816v-6.24H39.6c.288,0,.48-.1.48-.288,0-.1-.048-.192-.192-.336-.528-.528-3.072-2.688-3.7-3.168a.669.669,0,0,0-.432-.192c-.1,0-.144.048-.24.192-.48.72-1.584,2.208-1.872,2.592a.584.584,0,0,1-.48.24H24.816c0-1.344.048-2.4.048-2.88a1.142,1.142,0,0,1,.72-1.248c.624-.192.912-.528.912-.768,0-.288-.288-.528-.864-.624-1.488-.24-2.448-.384-3.84-.528-.192,0-.288-.048-.384-.048a.127.127,0,0,0-.144.144c0,.192.144.72.24,1.776.048.48.1,2.16.1,4.176H12.24a14.988,14.988,0,0,1-4.128-.432,1.221,1.221,0,0,0-.336-.1.127.127,0,0,0-.144.144c0,.1.048.144.048.24a5.376,5.376,0,0,0,.432,1.056c.144.24.24.288.432.288h.192a20.456,20.456,0,0,1,3.5-.24H21.6c0,2.3,0,4.752-.048,6.24H7.248a14.988,14.988,0,0,1-4.128-.432,1.221,1.221,0,0,0-.336-.1.127.127,0,0,0-.144.144c0,.1.048.144.048.24a5.376,5.376,0,0,0,.432,1.056c.144.24.24.288.432.288h.192a20.455,20.455,0,0,1,3.5-.24H45.072c.288,0,.48-.1.48-.288C45.552-25.008,45.5-25.1,45.36-25.248Zm-26.784,6.96c-.192-2.16-2.832-4.176-5.616-5.376a.713.713,0,0,0-.288-.048c-.336,0-.384.288-.144.528,2.832,2.736,2.112,4.8,3.12,6.384a1.43,1.43,0,0,0,1.2.72A1.832,1.832,0,0,0,18.576-18Zm26.3,3.168c-.528-.528-3.12-2.88-3.744-3.36a.669.669,0,0,0-.432-.192c-.1,0-.144.048-.24.192-.48.72-1.68,2.3-2.016,2.784a.584.584,0,0,1-.48.24H27.408a38.668,38.668,0,0,0,5.76-5.9.452.452,0,0,1,.432-.192h.576c.672-.048.912-.288.912-.528,0-.288-.288-.576-.72-.72-1.1-.384-2.928-1.056-4.032-1.392-.048,0-.144-.048-.192-.048A.127.127,0,0,0,30-24.1c0,.1.048.24.048.336s-.048.144-.048.192a27.413,27.413,0,0,1-3.792,8.112H7.728A14.989,14.989,0,0,1,3.6-15.888a1.221,1.221,0,0,0-.336-.1.127.127,0,0,0-.144.144c0,.1.048.144.048.24A5.376,5.376,0,0,0,3.6-14.544c.144.24.24.288.432.288h.192a20.455,20.455,0,0,1,3.5-.24H21.552c.048,2.5.048,4.56.048,6.864H11.328A14.989,14.989,0,0,1,7.2-8.064a1.221,1.221,0,0,0-.336-.1.127.127,0,0,0-.144.144c0,.1.048.144.048.24A5.376,5.376,0,0,0,7.2-6.72c.144.24.24.288.432.288h.192a20.455,20.455,0,0,1,3.5-.24H21.6c-.048,2.352-.1,5.136-.192,8.976v.144c0,.864.384,1.152,1.488,1.152h.24c1.536-.048,1.824-.384,1.824-1.488-.1-3.744-.1-6.432-.144-8.784H40.848c.432,0,.624-.144.624-.288a.508.508,0,0,0-.24-.432c-.624-.576-2.544-2.208-3.792-3.168a.945.945,0,0,0-.384-.192.347.347,0,0,0-.288.192c-.72.96-1.2,1.584-2.016,2.592a.821.821,0,0,1-.624.336H24.816c0-2.3.048-4.32.048-6.864H44.592c.288,0,.48-.1.48-.288C45.072-14.88,45.024-14.976,44.88-15.12ZM92.544-34.944c-.864-.864-1.92-1.68-3.36-2.928a.586.586,0,0,0-.432-.192.416.416,0,0,0-.336.192c-.576.816-1.152,1.68-1.728,2.448a.868.868,0,0,1-.816.336H70.656a14.989,14.989,0,0,1-4.128-.432,1.221,1.221,0,0,0-.336-.1.127.127,0,0,0-.144.144c0,.1.048.144.048.24a5.376,5.376,0,0,0,.432,1.056c.144.24.24.288.432.288h.192a20.455,20.455,0,0,1,3.5-.24h21.36c.528,0,.768-.144.768-.384A.791.791,0,0,0,92.544-34.944Zm-3.168,5.136c-.528-.48-1.536-1.3-2.256-1.824a.781.781,0,0,0-.432-.192c-.144,0-.24.1-.336.24-.24.288-.768.96-1.1,1.344a.742.742,0,0,1-.672.288H73.536s-2.5-1.344-3.312-1.68a.766.766,0,0,0-.384-.144c-.144,0-.192.048-.192.24a2.416,2.416,0,0,0,.192.768,12.847,12.847,0,0,1,.336,3.6c0,2.448-.192,5.376-.24,6.48v.192c0,.96.384,1.248,1.3,1.248h.192c1.248-.048,1.488-.24,1.488-1.44V-21.5H85.3v.288c0,1.2.24,1.488,1.344,1.488,1.2-.048,1.584-.24,1.584-1.3v-.192c-.048-1.968-.048-4.176,0-6.48,0-.528.288-.576.912-.864.432-.192.576-.432.576-.624A1.013,1.013,0,0,0,89.376-29.808Zm-22.752.48a32.689,32.689,0,0,0-2.544-2.4c-.288-.24-.48-.24-.72,0-.384.384-.864.96-1.344,1.44a1.2,1.2,0,0,1-.912.336H59.76c0-2.448,0-3.7.048-5.616v-.144c0-.432.048-.912.672-1.1.576-.192.864-.528.864-.768,0-.288-.288-.528-.864-.624-.912-.144-2.016-.336-3.216-.528a1.544,1.544,0,0,0-.384-.048c-.144,0-.192.048-.192.192,0,.24.144.768.288,1.728.048.288.048,2.16.048,4.272v2.64H55.872a16.24,16.24,0,0,1-4.32-.48,1.221,1.221,0,0,0-.336-.1.127.127,0,0,0-.144.144.433.433,0,0,0,.048.24,4.379,4.379,0,0,0,.432,1.056c.144.288.24.336.48.336h.192a21.59,21.59,0,0,1,3.648-.24h6A41.5,41.5,0,0,1,50.64-11.232a.5.5,0,0,0-.192.384.31.31,0,0,0,.288.288c.1,0,.144-.048.24-.1a35.212,35.212,0,0,0,6.336-5.28c0,6.384-.048,12.144-.288,18.336,0,.912.24,1.2,1.344,1.2h.288c1.536-.144,1.584-.288,1.584-1.392C60.24-.1,60.048-12,60-19.248c3.168,2.736,3.12,5.9,3.552,6.864.336.864.816,1.2,1.344,1.2a1.688,1.688,0,0,0,1.44-1.824,1.969,1.969,0,0,0-.048-.528C65.664-16.08,63.312-18,60.48-19.872a53.312,53.312,0,0,0,4.32-7.584c.192-.384.672-.336,1.248-.432.48-.144.96-.432.96-.816C67.008-28.9,66.864-29.088,66.624-29.328ZM92.112-16.56c-.528-.432-1.776-1.392-2.448-1.872a.669.669,0,0,0-.432-.192c-.144,0-.24.1-.336.24-.336.48-.912,1.056-1.2,1.392a.713.713,0,0,1-.72.336H71.136s-2.736-1.392-3.5-1.776a.877.877,0,0,0-.432-.1c-.1,0-.144.048-.144.24a3.051,3.051,0,0,0,.144.72,62.481,62.481,0,0,1,.336,8.736c0,4.176-.1,8.688-.288,10.848v.24c0,.96.528,1.248,1.392,1.248h.24c1.3-.048,1.68-.24,1.68-1.488,0-.576,0-1.248-.048-1.92h17.28c0,.528-.048,1.056-.048,1.488v.144c0,1.056.432,1.392,1.392,1.392h.192c1.152-.048,1.632-.288,1.632-1.392V1.584c-.1-2.112-.144-5.232-.144-8.16,0-3.408.048-6.576.1-7.824,0-.528.336-.624.912-.912.48-.24.672-.48.672-.672A.822.822,0,0,0,92.112-16.56Zm-6.72-12.432v1.344c0,1.92-.048,3.648-.1,5.184H72.912v-1.92c0-1.488,0-2.928.048-4.608ZM87.84-9.456H80.448c0-2.256.048-4.464.048-6.24h7.3C87.84-14.592,87.84-12.192,87.84-9.456Zm-10.224,0h-7.1c0-2.736.048-5.088.048-6.24h7.008C77.616-13.92,77.616-11.712,77.616-9.456ZM87.84-8.5c0,2.592,0,5.376-.048,7.632H80.5c-.048-2.016-.048-4.752-.048-7.632Zm-10.224,0v2.448c0,1.968,0,3.792-.048,5.184H70.512V-8.5Zm46.7-20.928c0-.768-.816-1.248-1.872-1.248a9.975,9.975,0,0,1-4.992-1.2,2.038,2.038,0,0,0-.576-.24c-.048,0-.1,0-.1.048q0,.144.432.432a17.242,17.242,0,0,1,2.016,1.536.573.573,0,0,1,.24.432.646.646,0,0,1-.48.624,21.807,21.807,0,0,1-3.264,1.056c-.384.1-.768.144-1.2.24.816-1.776,1.584-3.312,2.3-4.56.72-1.344,1.344-1.536,1.536-2.5a1.329,1.329,0,0,0,.048-.432c0-1.776-2.64-3.216-5.232-3.216h-.336c-.96.048-1.056.576-.288,1.008a2.372,2.372,0,0,1,1.488,2.4,18.428,18.428,0,0,1-.48,3.12,26.86,26.86,0,0,1-1.488,4.464,34.7,34.7,0,0,1-3.7.192c-2.256,0-3.984-.288-4.848-.96a2.2,2.2,0,0,0-.816-.48c-.1,0-.1.048-.1.192a2.356,2.356,0,0,0,.048.528c.432,2.4,2.544,3.072,6.288,3.072.624,0,1.3,0,2.016-.048a55.8,55.8,0,0,1-8.016,12.912,4.1,4.1,0,0,0-1.248,2.784A1.777,1.777,0,0,0,103.344-7.3a2.385,2.385,0,0,0,1.92-1.3c2.544-3.936,5.424-10.8,8.064-16.56,4.032-.432,8.976-1.68,10.224-2.88A2.154,2.154,0,0,0,124.32-29.424Zm14.112,8.112c0-2.544-2.4-6.192-8.016-6.192-.336,0-.624.048-.96.048-.576.048-.864.1-.864.24,0,.1.24.192.768.384,3.072,1.152,4.656,2.4,4.848,3.552a1.057,1.057,0,0,1,.048.384c0,.384-.24.528-.768.528h-.432a13.489,13.489,0,0,0-1.392-.048c-2.544,0-4.464.672-5.232,1.44-1.584,1.536-2.544,2.832-2.544,8.256,0,1.344.048,3.024.192,4.992a18.787,18.787,0,0,0-5.232-.816c-3.984,0-7.2,1.68-7.92,5.04a6.5,6.5,0,0,0-.1.96c0,3.648,4.56,5.712,8.88,5.712,3.936,0,7.584-1.68,7.584-5.328v-.48c0-.288-.1-.864-.1-1.1A26.55,26.55,0,0,1,131.76.528a2.212,2.212,0,0,0,1.632.912,2.01,2.01,0,0,0,1.824-2.064,2.207,2.207,0,0,0-.576-1.44A21.033,21.033,0,0,0,127.1-6.912c-.48-5.712-.864-8.5-.864-10.176a3.9,3.9,0,0,1,.96-2.88,4.579,4.579,0,0,1,3.5-1.248,4.449,4.449,0,0,1,3.216,1.1,3.28,3.28,0,0,0,2.3,1.248,2.315,2.315,0,0,0,1.44-.528A2.3,2.3,0,0,0,138.432-21.312ZM124.08-3.168c-.048,2.4-2.448,3.36-5.04,3.36-3.12,0-6.432-1.344-6.432-3.264,0-.144.048-.24.048-.336.384-2.16,2.4-3.312,5.232-3.312a16.159,16.159,0,0,1,6.192,1.44ZM189.6-.96C178.752-3.936,169.152-16.7,169.152-34.512v-.912c.048-.432.144-.816.528-.912.672-.288,1.008-.624,1.008-.912,0-.24-.24-.432-.624-.528-1.3-.288-3.312-.528-4.128-.624h-.24c-.192,0-.24.048-.24.144a3.134,3.134,0,0,0,.1.528,36.612,36.612,0,0,1,.24,4.464,46.291,46.291,0,0,1-4.08,19.392A36.988,36.988,0,0,1,147.264,2.064c-.624.384-.96.672-.96.864,0,.144.144.192.336.192a3.857,3.857,0,0,0,.96-.24A30.73,30.73,0,0,0,164.928-13.3a44.864,44.864,0,0,0,3.792-13.968c1.44,15.072,8.064,25.536,16.944,30.144a.89.89,0,0,0,.336.1c.144,0,.288-.144.432-.48A3.638,3.638,0,0,1,189.36-.1c.48-.1.672-.288.672-.48C190.032-.72,189.888-.912,189.6-.96ZM237.168,0c-.912-.864-2.688-2.448-4.272-3.648-.24-.192-.384-.288-.48-.288-.144,0-.24.1-.384.288-.864,1.1-1.968,2.592-2.4,3.12a1.208,1.208,0,0,1-.96.432H217.3c0-1.632,0-7.488-.048-13.968h14.16c.288,0,.528-.1.528-.288,0-.1-.1-.192-.24-.336-.816-.72-2.784-2.4-3.7-3.168a.574.574,0,0,0-.384-.192c-.144,0-.192.1-.288.192-.576.72-1.584,2.064-2.064,2.592a.648.648,0,0,1-.48.24h-7.536V-26.88H232.56c.432,0,.624-.144.624-.288a.508.508,0,0,0-.24-.432c-.624-.576-2.736-2.544-3.984-3.5a.945.945,0,0,0-.384-.192.347.347,0,0,0-.288.192c-.72.96-1.3,1.824-2.112,2.832a.82.82,0,0,1-.624.336h-8.3c0-4.224.048-7.344.1-7.728.048-.432-.048-1.008.624-1.248.624-.192.912-.528.912-.816,0-.24-.288-.48-.864-.576-1.584-.24-2.256-.288-3.744-.528a1.351,1.351,0,0,0-.384-.048.127.127,0,0,0-.144.144,12.293,12.293,0,0,1,.24,1.776c.048.624.1,4.272.1,9.024h-9.7a26.446,26.446,0,0,0,1.872-5.472c.1-.432.624-.624,1.152-.624.624,0,.912-.24.912-.528,0-.24-.24-.528-.768-.72-.624-.192-2.88-.768-4.32-1.1a.844.844,0,0,0-.288-.048c-.144,0-.192.1-.192.528,0,3.7-2.88,14.064-7.1,19.488a.774.774,0,0,0-.144.432.255.255,0,0,0,.288.288.638.638,0,0,0,.336-.144A39.216,39.216,0,0,0,203.9-26.88H214.08v11.856h-8.4a14.989,14.989,0,0,1-4.128-.432,1.221,1.221,0,0,0-.336-.1.127.127,0,0,0-.144.144c0,.1.048.144.048.24a5.376,5.376,0,0,0,.432,1.056c.144.24.24.288.432.288h.192a20.456,20.456,0,0,1,3.5-.24h8.4c0,6.528-.048,12.288-.048,13.968H199.008a14.989,14.989,0,0,1-4.128-.432,1.221,1.221,0,0,0-.336-.1.127.127,0,0,0-.144.144c0,.1.048.144.048.24a6.4,6.4,0,0,0,.48,1.152c.144.24.24.288.432.288h.192a20.456,20.456,0,0,1,3.5-.24h37.68C237.6.96,237.744.576,237.168,0Zm50.208-7.44c0-1.056-1.008-2.4-3.6-3.456-6.432-2.64-13.2-8.832-20.256-16.224a5.312,5.312,0,0,0-3.84-1.872,6.524,6.524,0,0,0-4.368,2.16c-2.5,2.544-5.76,5.952-8.3,7.728a4.319,4.319,0,0,1-2.5.912,3.8,3.8,0,0,1-1.392-.288,1.4,1.4,0,0,0-.432-.1c-.288,0-.432.144-.432.48,0,.1.048.192.048.288a5.551,5.551,0,0,0,4.656,3.888,1.838,1.838,0,0,0,.912-.24c.912-.672,1.872-2.4,2.88-3.84a91.557,91.557,0,0,1,6.144-7.488,3.945,3.945,0,0,1,2.688-1.632,3.275,3.275,0,0,1,2.352,1.344c4.9,5.568,13.728,15.648,21.6,19.776a3.77,3.77,0,0,0,1.632.432A2.029,2.029,0,0,0,287.376-7.44ZM325.1-2.3c0-.864-.96-1.68-3.024-1.68a9.7,9.7,0,0,0-1.584.144,63.542,63.542,0,0,1-9.648.816c-5.424,0-10.464-.96-11.04-4.128a4.674,4.674,0,0,1-.1-1.152c0-6.624,10.848-10.608,20.928-13.152,2.16-.576,3.216-.1,3.84-.816a1.179,1.179,0,0,0,.24-.72c0-1.536-2.208-4.08-4.848-4.08-.528,0-.768.048-.768.288a1.788,1.788,0,0,0,.288.72.922.922,0,0,1,.192.576c0,.624-.768.96-1.3,1.2-2.448,1.056-5.04,2.016-9.072,3.936-1.392-.96-1.776-2.688-1.776-4.8,0-1.632.192-3.456.336-5.328.144-2.208.816-1.872,1.056-3.552v-.192c0-1.68-3.216-3.456-5.808-3.456a3.766,3.766,0,0,0-1.056.1c-.48.1-.72.24-.72.384s.192.336.48.528a4.442,4.442,0,0,1,.48.24c1.968.864,2.064,2.064,2.3,4.368a17.742,17.742,0,0,1,.1,2.3c0,1.1-.048,2.256-.048,3.36,0,2.928.384,5.664,2.976,6.912-5.232,3.168-9.36,6.72-9.36,11.472a7.856,7.856,0,0,0,.192,1.824c1.1,5.376,8.64,6.528,15.072,6.528a86.521,86.521,0,0,0,8.64-.528C324.048-.384,325.1-1.392,325.1-2.3Zm37.68-33.408a4.255,4.255,0,0,0-.384-.816c-.72-.912-2.064-1.392-4.08-1.824h-.1c-.384,0-.432.432-.144.624a6.838,6.838,0,0,1,2.4,3.216,1.14,1.14,0,0,0,1.1.72,1.271,1.271,0,0,0,1.3-1.344A2.874,2.874,0,0,0,362.784-35.712Zm-15.648,1.3c-1.152-1.488-3.744-2.64-6.336-2.928h-.144c-.24,0-.384.1-.384.288a.687.687,0,0,0,.384.48,11.523,11.523,0,0,1,4.416,4.7,1.818,1.818,0,0,0,1.488,1.056,1.446,1.446,0,0,0,1.392-1.584A3.44,3.44,0,0,0,347.136-34.416Zm33.936,1.056c-.72-.624-2.5-2.016-3.168-2.544-.192-.144-.288-.192-.384-.192a.347.347,0,0,0-.288.192c-.432.576-1.1,1.44-1.488,1.968a.508.508,0,0,1-.432.24h-6.72a15.465,15.465,0,0,0,3.312-2.736c.144-.192.528-.24,1.1-.288q.72-.072.72-.432c0-.192-.192-.384-.528-.528a29.171,29.171,0,0,0-3.456-1.152,2.08,2.08,0,0,1-.24-.048c-.1,0-.144.1-.192.336a23.116,23.116,0,0,1-1.776,4.848H355.344a14.989,14.989,0,0,1-4.128-.432,1.221,1.221,0,0,0-.336-.1.127.127,0,0,0-.144.144c0,.1.048.144.048.24a5.375,5.375,0,0,0,.432,1.056c.144.24.24.288.432.288h.192a20.456,20.456,0,0,1,3.5-.24h7.584c-.288,1.056-.672,2.3-.912,3.072H358.08s-2.16-1.2-3.264-1.68a1.105,1.105,0,0,0-.432-.144c-.144,0-.192.1-.192.288a2.61,2.61,0,0,0,.192.816,19.1,19.1,0,0,1,.432,4.944c0,2.688-.192,5.9-.384,8.688v.48c0,.864.24,1.152,1.152,1.152h.192c1.344-.048,1.632-.288,1.632-1.536h15.6v.192c0,1.008.336,1.3,1.3,1.3h.24c1.2-.048,1.392-.24,1.392-1.2V-16.8c-.048-1.584-.1-3.024-.1-4.368,0-2.112.048-4.032.1-6,0-.576.384-.576,1.008-.96.48-.24.672-.432.672-.672a1.333,1.333,0,0,0-.384-.72,13.354,13.354,0,0,0-2.064-1.92.776.776,0,0,0-.48-.192c-.144,0-.24.1-.384.24-.384.432-1.008,1.008-1.344,1.392a.713.713,0,0,1-.72.336h-9.312c.864-.72,2.064-1.728,3.456-3.072h14.4c.24,0,.48-.1.48-.288C381.264-33.12,381.216-33.216,381.072-33.36Zm-.048,19.968c.336-.1.48-.288.48-.432s-.144-.288-.48-.288h-.1c-5.808.432-11.424.576-15.984.576-2.736,0-5.088-.048-6.864-.1A12.314,12.314,0,0,1,349.3-17.52V-20.5c0-1.248,0-2.688.048-3.936,0-.576.528-.576,1.2-.96.48-.24.672-.48.672-.72a1.092,1.092,0,0,0-.384-.672,20.093,20.093,0,0,0-2.5-2.112.89.89,0,0,0-.48-.192c-.192,0-.288.1-.432.24-.384.48-1.008,1.2-1.248,1.488-.192.24-.288.336-.528.336h-3.216a7.516,7.516,0,0,1-2.688-.432,1.221,1.221,0,0,0-.336-.1.127.127,0,0,0-.144.144c0,.1.048.144.048.24a6.417,6.417,0,0,0,.432,1.152c.144.24.24.288.432.288h.192a8.407,8.407,0,0,1,2.064-.24h3.936V-23.9c0,1.824,0,4.512-.1,6.336a33.8,33.8,0,0,1-6.576,4.032c-.144.048-.24.048-.24.192a1.3,1.3,0,0,0,.144.384c.624,1.152,1.152,1.872,1.824,3.12a.641.641,0,0,0,.576.384.559.559,0,0,0,.624-.528v-.048c0-.24-.048-.432-.048-.624a.986.986,0,0,1,.336-.768c1.392-1.488,2.64-2.976,4.368-5.04l1.152-.24c3.024,3.648,5.712,4.56,9.36,5.376a79.967,79.967,0,0,0,11.568.528h8.784c.48,0,.432-.144.576-.528C379.1-12.384,379.536-12.864,381.024-13.392Zm-.192,6.384c-.624-.576-1.968-1.728-3.216-2.688a.945.945,0,0,0-.384-.192.347.347,0,0,0-.288.192c-.72.864-1.152,1.344-1.872,2.112a.907.907,0,0,1-.624.336h-4.32v-.624c0-.336.048-.48.672-.672.528-.144.816-.432.816-.72s-.24-.528-.768-.576c-1.056-.144-2.5-.288-3.408-.336h-.288c-.192,0-.288.048-.288.192,0,.192.144.624.24,1.488.048.336.048.768.1,1.248H343.488a14.989,14.989,0,0,1-4.128-.432,1.221,1.221,0,0,0-.336-.1.127.127,0,0,0-.144.144c0,.1.048.144.048.24a5.375,5.375,0,0,0,.432,1.056c.144.24.24.288.432.288h.192a20.455,20.455,0,0,1,3.5-.24H367.2V-4.9c0,1.344-.048,2.784-.1,3.6-.048.72-.24.96-1.1.96-1.152,0-2.688-.1-4.608-.24h-.1c-.336,0-.528.1-.528.24s.192.288.48.384c2.832.864,3.984.672,4.272,3.024.048.336.144.528.48.528h.144c3.648-.576,3.984-2.064,3.984-3.936V-6.288H380.5c.432,0,.624-.1.624-.288A.581.581,0,0,0,380.832-7.008Zm-24.768,4.9c-.864-2.064-3.5-2.88-7.872-3.6h-.144c-.24,0-.384.144-.384.288A.492.492,0,0,0,348-5.04c4.416,1.776,4.224,3.5,5.76,4.8a1.346,1.346,0,0,0,1.008.432,1.511,1.511,0,0,0,1.44-1.584A1.926,1.926,0,0,0,356.064-2.112ZM373.2-25.92H357.456V-28.7h15.7C373.2-27.888,373.2-26.928,373.2-25.92Zm0,.96c0,1.008-.048,2.064-.048,3.12H357.408c.048-1.2.048-2.208.048-3.12Zm-.048,4.08c-.048,1.1-.048,2.256-.1,3.264H357.408V-20.88Zm48.96-4.608a1.382,1.382,0,0,0-1.536-1.3h-.432a19.255,19.255,0,0,1-5.808-1.344.937.937,0,0,0-.336-.048c-.144,0-.24.048-.24.144s.1.24.288.384c.72.48,1.872,1.152,2.64,1.776a.742.742,0,0,1,.336.576c0,.192-.144.336-.336.528a14.37,14.37,0,0,1-4.56,2.208c-1.008-1.632-1.92-3.312-2.736-4.9a44.517,44.517,0,0,0,6.336-2.3c.96-.432,1.392-1.056,1.392-1.632,0-.624-.624-1.2-1.584-1.2a3.608,3.608,0,0,0-1.68.48,29.072,29.072,0,0,1-5.568,2.4c-.576-1.1-1.056-2.208-1.488-3.168-.816-1.824-.24-2.832-1.008-3.84a4.08,4.08,0,0,0-3.072-1.008,6.093,6.093,0,0,0-3.84,1.152c-.24.192-.336.336-.336.432,0,.192.336.24.816.24a4.235,4.235,0,0,1,3.936,2.4c.624,1.248,1.488,2.784,2.448,4.464a21.944,21.944,0,0,1-4.944.72,8.079,8.079,0,0,1-4.032-.96,1.445,1.445,0,0,0-.672-.288.127.127,0,0,0-.144.144,1.445,1.445,0,0,0,.288.672,6.505,6.505,0,0,0,5.712,2.592,21.607,21.607,0,0,0,4.992-.72c.912,1.632,1.92,3.312,2.928,4.944a36.821,36.821,0,0,1-8.448,1.1c-3.36,0-6-.672-6.912-2.064-.24-.288-.432-.48-.576-.48s-.192.24-.144.72a2.041,2.041,0,0,0,.1.528c.624,2.3,3.36,3.84,8.256,3.84a37.975,37.975,0,0,0,9.12-1.344,66.58,66.58,0,0,0,5.952,8.064,1.242,1.242,0,0,1,.432.672c0,.144-.144.24-.336.24a2.154,2.154,0,0,1-.816-.192,30.823,30.823,0,0,0-10.464-1.968c-5.328,0-9.456,1.776-10.512,5.232a6.97,6.97,0,0,0-.336,2.16c0,4.56,4.608,8.256,12.816,8.256a29.1,29.1,0,0,0,4.416-.336C413.9,2.3,415.3,1.488,415.3.336a1.329,1.329,0,0,0-.048-.432c-.24-.96-1.3-1.248-2.544-1.248a17.138,17.138,0,0,0-2.208.192,26.586,26.586,0,0,1-3.744.288c-6.48,0-9.84-2.784-9.84-5.424a2.517,2.517,0,0,1,.1-.816c.864-2.928,4.7-4.464,9.024-4.464a16.837,16.837,0,0,1,9.5,2.784c1.1.816,3.168,2.4,4.512,2.4a1.157,1.157,0,0,0,.72-.192,2.712,2.712,0,0,0,.912-2.3,6.331,6.331,0,0,0-2.208-4.752,32.438,32.438,0,0,1-5.9-6.624c2.64-.768,7.056-2.256,8.112-3.984A2.161,2.161,0,0,0,422.112-25.488ZM469.872-.672a3.551,3.551,0,0,0-1.248-2.352,27.371,27.371,0,0,0-9.744-5.184,54.549,54.549,0,0,1-.72-8.832c4.128-.432,8.784-1.344,10.32-2.832a2.071,2.071,0,0,0,.72-1.392c0-.816-.768-1.392-1.92-1.44h-.432c-1.152,0-1.824-.336-4.32-1.632a1.66,1.66,0,0,0-.576-.144c-.1,0-.144.048-.144.1a.977.977,0,0,0,.336.528,11.064,11.064,0,0,1,1.632,1.872.713.713,0,0,1,.1.432c0,.288-.192.576-.672.816a26.088,26.088,0,0,1-5.04,1.3c.048-2.256.1-4.512.24-6.624,2.5-.192,5.136-.48,7.872-.912,1.488-.192,2.256-.912,2.256-1.632s-.816-1.44-2.352-1.44a5.864,5.864,0,0,0-1.248.144,36.329,36.329,0,0,1-6.336,1.3c.1-1.056.24-2.064.336-3.024a22.161,22.161,0,0,0,.816-3.408v-.192c0-1.728-2.832-2.832-5.136-2.832a5.906,5.906,0,0,0-1.68.24c-.432.144-.624.336-.624.48,0,.192.288.384.72.576,2.256.816,2.832,2.5,2.88,4.416,0,.96-.048,2.352-.1,4.032-7.392.528-9.552.1-11.424-1.3a.988.988,0,0,0-.432-.24c-.144,0-.192.1-.192.24a2.168,2.168,0,0,0,.144.624c.816,2.3,3.024,3.216,8.448,3.216,1.008,0,2.16-.048,3.408-.1,0,2.112-.048,4.416-.048,6.768-1.248.1-2.544.192-3.84.192-3.744,0-7.248-.576-9.168-1.92a.729.729,0,0,0-.48-.24c-.1,0-.144.048-.144.192a1.166,1.166,0,0,0,.192.528c1.344,2.784,4.656,3.7,9.36,3.7,1.248,0,2.64-.1,4.08-.192.048,1.488.048,2.976.1,4.368.048,1.344.144,2.64.192,3.744a29.014,29.014,0,0,0-4.464-.384c-4.944,0-8.88,1.584-9.456,4.848a4.66,4.66,0,0,0-.048.816c0,3.744,4.7,5.712,9.216,5.712,4.128,0,8.064-1.632,8.064-5.136,0-.144-.048-.288-.048-.48-.048-.624-.144-1.344-.192-1.92a19.69,19.69,0,0,1,6.816,5.088A2.81,2.81,0,0,0,468.1,1.1,1.742,1.742,0,0,0,469.872-.672Zm-13.824-3.12c0,2.352-3.024,3.408-6.1,3.408-3.264,0-6.72-1.2-6.72-3.36,0-.1.048-.24.048-.336.384-2.16,3.312-2.88,6.528-2.88a27.746,27.746,0,0,1,6.24.768Zm68.736-23.472a1.8,1.8,0,0,0-.048-.48c-.336-1.584-3.264-1.92-4.56-2.016a23.5,23.5,0,0,1-6.192-1.968,3.708,3.708,0,0,0-1.344-.48c-.1,0-.144.048-.144.1,0,.192.432.672,1.248,1.152.816.528,1.1.864,1.1,1.056,0,.24-.384.336-.624.336-2.976.1-5.472.192-6.48.24,0-.384.048-.72.048-1.056.1-2.88.96-3.312,1.008-4.56.048-1.632-2.592-3.216-5.088-3.216a4.379,4.379,0,0,0-1.584.24c-.432.144-.624.288-.624.384,0,.144.192.24.672.48A3.227,3.227,0,0,1,503.9-35.52a6.142,6.142,0,0,1,.672,2.064c.048.912.144,2.5.24,4.32-4.7.288-8.112.624-12.48,1.152a33.818,33.818,0,0,1-4.272.384,6.76,6.76,0,0,1-4.032-.96c-.624-.48-1.1-.432-1.1.144,0,.1.048.192.048.288.624,2.784,2.736,4.368,4.128,4.368h.288a27.479,27.479,0,0,0,3.552-1.2,49.63,49.63,0,0,1,13.92-2.4c0,.72.048,1.44.048,2.16,0,1.056-.048,2.064-.1,3.024a5.513,5.513,0,0,0-3.168-1.008c-2.832,0-5.664,2.352-5.664,7.056v.1c.048,4.176,2.736,6.816,5.664,6.816a5.417,5.417,0,0,0,3.264-1.152C503.664-4.08,500.832.24,494.88,4.224c-.528.336-.768.576-.768.672,0,.048.048.1.144.1a3.857,3.857,0,0,0,.96-.24A20.839,20.839,0,0,0,508.9-14.4a12.073,12.073,0,0,0-1.488-6.192c0-.432-.048-.864-.048-1.344,0-1.92.144-3.84.24-5.52h1.632A56.064,56.064,0,0,1,520.944-26.4a13.966,13.966,0,0,0,2.208.288C524.112-26.112,524.784-26.448,524.784-27.264ZM505.008-16.8c0,3.7-1.68,4.7-3.312,4.7h-.1c-2.208-.048-3.984-1.1-4.032-4.56v-.1c0-3.312,1.92-4.9,3.84-4.9a3.854,3.854,0,0,1,3.36,2.016A15.7,15.7,0,0,1,505.008-16.8ZM537.072-2.832a6.433,6.433,0,0,0-6.384-6.48,6.6,6.6,0,0,0-6.576,6.48,6.474,6.474,0,0,0,6.48,6.432A6.474,6.474,0,0,0,537.072-2.832Zm-1.44,0a5,5,0,0,1-5.04,4.992,5,5,0,0,1-5.04-4.992,5.039,5.039,0,0,1,5.04-5.04A5.039,5.039,0,0,1,535.632-2.832Z" transform="translate(-2.64 38.88)"/>
</svg>
