<svg xmlns="http://www.w3.org/2000/svg" width="327.6" height="42.432" viewBox="0 0 327.6 42.432">
  <g id="波動霊視占いで_のコピー" data-name="波動霊視占いで のコピー" transform="translate(-0.55 -0.13)">
    <path id="パス_1" data-name="パス 1" d="M13.536-31.872c-.192-1.92-2.256-4.032-6.72-5.52a.817.817,0,0,0-.336-.048c-.24,0-.384.1-.384.24,0,.1.1.24.288.384,3.36,2.352,3.216,5.088,4.224,6.288a1.643,1.643,0,0,0,1.248.672,1.878,1.878,0,0,0,1.68-1.872Zm-3.6,10.08c-.192-1.92-2.3-4.032-6.768-5.28a.937.937,0,0,0-.336-.048c-.24,0-.384.1-.384.24,0,.1.1.24.288.384,3.36,2.448,3.216,4.848,4.224,6.048a1.643,1.643,0,0,0,1.248.672,1.882,1.882,0,0,0,1.728-1.872ZM45.168.048c.576-.192.576-.672,0-.768a25.17,25.17,0,0,1-11.9-5.136A36.764,36.764,0,0,0,40.32-17.712a1.7,1.7,0,0,1,1.3-.72c.432-.048.672-.24.672-.528a.993.993,0,0,0-.432-.672c-.72-.624-2.16-1.728-2.88-2.256a.669.669,0,0,0-.432-.192c-.1,0-.192.1-.336.24-.336.384-1.008,1.152-1.488,1.632a.756.756,0,0,1-.624.192h-4.32c-.048-3.168-.048-7.152-.048-10.368H39.5a31.027,31.027,0,0,1-2.064,5.52.522.522,0,0,0-.048.24c0,.144.048.24.192.24a.353.353,0,0,0,.288-.1c2.784-2.16,4.32-4.608,5.568-4.608h.336c.816,0,1.3-.288,1.3-.672a1.234,1.234,0,0,0-.528-.864c-.816-.72-1.968-1.584-2.976-2.352a.863.863,0,0,0-.432-.192c-.1,0-.192.048-.336.192-.192.192-.864.816-1.152,1.056-.24.24-.624.576-.912.576H31.728c0-2.064.048-3.7.048-4.368a1.1,1.1,0,0,1,.672-1.2c.624-.192.912-.48.912-.72s-.288-.48-.864-.576c-1.056-.192-2.256-.384-3.456-.528-.144,0-.288-.048-.384-.048s-.144.048-.144.192c0,.192.1.672.192,1.632.1.768.144,2.88.144,5.616H21.7c-1.2-.72-3.072-1.92-3.6-2.208a.835.835,0,0,0-.336-.144c-.1,0-.144.048-.144.192,0,.192.1.528.144.912a61,61,0,0,1,.384,7.92,74.947,74.947,0,0,1-.816,11.856A41.788,41.788,0,0,1,11.952,2.3a.894.894,0,0,0-.192.528c0,.192.144.288.336.288a1,1,0,0,0,.624-.336A33.913,33.913,0,0,0,20.064-12a45.624,45.624,0,0,0,.912-7.056H24.1A40.053,40.053,0,0,0,29.76-6.144a42.061,42.061,0,0,1-13.3,8.784.544.544,0,0,0-.432.48.443.443,0,0,0,.48.432c.048,0,.1-.048.192-.048,6.672-1.92,11.328-4.56,14.736-7.584A30.7,30.7,0,0,0,42.048,3.312a.877.877,0,0,0,.432.1c.24,0,.336-.144.384-.384a5.614,5.614,0,0,1,.24-.96A3.43,3.43,0,0,1,45.168.048ZM16.32-28.608c0-.048.048-.144.048-.192,0-.288-.192-.48-.336-.48a.482.482,0,0,0-.432.384c-2.64,6.72-6.336,15.744-7.728,18.336A2.081,2.081,0,0,1,5.616-9.216c-.528,0-1.152-.048-1.92-.1H3.648c-.336,0-.528.192-.528.384s.192.384.576.432C6.72-8.16,7.3-6.24,7.3-4.128c0,1.3-.192,2.736-.192,3.936,0,1.3.24,2.352,1.3,2.784a2.441,2.441,0,0,0,.96.192c1.1,0,2.016-.912,2.016-2.5a6.446,6.446,0,0,0-.72-2.688A10.222,10.222,0,0,1,9.7-6.72a10.227,10.227,0,0,1,.528-3.216C11.712-14.448,13.968-21.36,16.32-28.608ZM28.8-30.384V-27.7c0,2.544-.048,5.232-.1,7.68h-7.68c.144-2.544.144-5.088.144-7.3v-3.072Zm8.208,11.328a28.069,28.069,0,0,1-5.76,11.28,32.888,32.888,0,0,1-6.24-11.28ZM76.8-29.52A37.317,37.317,0,0,0,73.824-32.3a.945.945,0,0,0-.384-.192.347.347,0,0,0-.288.192c-.624.72-1.2,1.2-2.016,2.208a.82.82,0,0,1-.624.336H64.848c.048-1.536.048-2.928.048-4.032a50.363,50.363,0,0,0,6.288-1.536,2.944,2.944,0,0,1,.768-.144,2.432,2.432,0,0,1,.624.1,2.755,2.755,0,0,0,.576.048c.576,0,.816-.24.816-.48a.655.655,0,0,0-.288-.48c-.528-.432-2.352-1.632-3.36-2.3a.574.574,0,0,0-.384-.192c-.1,0-.192.1-.288.24C67.152-36,58.56-33.984,53.424-33.36c-.24,0-.336.144-.336.288,0,.192.144.336.432.336a67.7,67.7,0,0,0,8.544-.576v3.552H55.3a14.989,14.989,0,0,1-4.128-.432,1.221,1.221,0,0,0-.336-.1.127.127,0,0,0-.144.144c0,.1.048.144.048.24a5.376,5.376,0,0,0,.432,1.056c.144.24.24.288.432.288h.192a20.455,20.455,0,0,1,3.5-.24h6.768c0,1.2.048,2.592.048,3.984H57.984s-2.736-1.488-3.6-1.872a1.105,1.105,0,0,0-.432-.144c-.144,0-.192.1-.192.288a2.611,2.611,0,0,0,.192.816,24.929,24.929,0,0,1,.432,6c0,2.784-.1,5.808-.24,7.536,0,.192-.048.384-.048.528,0,.816.288,1.1,1.152,1.1h.192c1.3-.048,1.68-.24,1.68-1.392v-.72h4.944v4.7H57.792A14.989,14.989,0,0,1,53.664-8.4a1.221,1.221,0,0,0-.336-.1.127.127,0,0,0-.144.144c0,.1.048.144.048.24a5.375,5.375,0,0,0,.432,1.056c.144.24.24.288.432.288h.192a20.455,20.455,0,0,1,3.5-.24h4.272V-2.88c-3.84.288-7.776.576-10.944.624-.192,0-.432-.1-.528-.1s-.144.048-.144.192a.845.845,0,0,0,.048.288c.48,1.44.912,2.544,1.344,3.84.144.384.384.528.624.528.288,0,.528-.288.624-.816.1-.288,0-.672.528-.768C59.664-.144,67.3-1.2,74.976-3.648c.24-.1.336-.24.336-.384a.439.439,0,0,0-.48-.384h-.1c-3.264.576-6.528,1.056-9.84,1.344V-7.008H74.16c.432,0,.624-.1.624-.288a.649.649,0,0,0-.24-.432,31.757,31.757,0,0,0-3.312-2.592.945.945,0,0,0-.384-.192.347.347,0,0,0-.288.192c-.576.72-1.2,1.344-1.68,2.016a.821.821,0,0,1-.624.336H64.848v-4.7h5.52c0,.912.144,1.2,1.056,1.2h.24c1.248-.048,1.632-.24,1.632-1.392v-.24c-.1-1.872-.144-3.36-.144-4.8s.048-2.784.1-4.416c0-.576.384-.576,1.008-.96q.72-.36.72-.72a.97.97,0,0,0-.432-.672c-.576-.48-1.632-1.536-2.256-2.016a.648.648,0,0,0-.48-.24c-.144,0-.24.1-.384.288-.24.336-.912,1.2-1.152,1.488a.713.713,0,0,1-.72.336h-4.7V-28.8H76.416c.432,0,.624-.144.624-.288A.508.508,0,0,0,76.8-29.52Zm16.08,2.688c-.528-.48-1.824-1.392-2.352-1.776-.144-.144-.24-.24-.384-.24-.1,0-.192.1-.288.192-.192.288-.912,1.008-1.152,1.3a.7.7,0,0,1-.624.288H83.568c.336-4.656.384-8.352.384-8.5,0-.288.336-.624.816-.768s.912-.48.912-.816c0-.24-.192-.48-.768-.624a31.478,31.478,0,0,0-4.08-.864H80.64c-.192,0-.24.048-.24.192,0,.192.192.576.336,1.2a11.636,11.636,0,0,1,.144,2.3c0,1.92-.144,4.752-.384,7.872h-.528A14.989,14.989,0,0,1,75.84-27.5a1.221,1.221,0,0,0-.336-.1.127.127,0,0,0-.144.144c0,.1.048.144.048.24a5.375,5.375,0,0,0,.432,1.056c.144.24.24.288.432.288h.192a20.455,20.455,0,0,1,3.5-.24h.48c-.288,3.6-.72,7.44-1.248,10.7C78.048-8.544,75.456-1.776,70.08,2.88c-.384.336-.432.72-.144.72a1.246,1.246,0,0,0,.48-.192C77.088-.576,80.3-7.824,81.888-14.544A79.933,79.933,0,0,0,83.52-26.112h5.136v.816c0,9.456-.816,19.1-2.112,22.512-.432,1.1-.72,1.44-1.776,1.44h-.576a53.3,53.3,0,0,1-5.424-.864h-.1a.342.342,0,0,0-.384.336c0,.144.1.288.336.384,2.832,1.2,4.416,1.344,4.608,3.936.048.432.144.576.528.576.1,0,.24-.048.384-.048,3.5-.624,4.848-1.92,5.664-5.376,1.2-4.992,1.584-12.288,1.776-21.744,0-.72.384-.72,1.152-1.2a1.043,1.043,0,0,0,.528-.816A1.092,1.092,0,0,0,92.88-26.832ZM70.464-19.68H64.848v-4.176h5.568C70.464-22.464,70.464-21.12,70.464-19.68Zm-8.352,0H57.024c0-1.584.048-3.024.048-4.176h5.04Zm8.352.96c0,1.632-.048,3.36-.1,5.088h-5.52V-18.72Zm-8.352,0c0,1.632-.048,3.36-.048,5.088H57.072c-.048-1.632-.048-3.408-.048-5.088Zm78.864-11.712c-.816-.672-2.352-1.872-2.976-2.352-.192-.144-.288-.24-.432-.24-.1,0-.192.1-.336.24-.192.192-.96.816-1.248,1.056a.877.877,0,0,1-.72.288h-14.4c0-1.44.048-2.736.048-3.744h15.84c.384,0,.624-.144.624-.336,0-.144-.1-.288-.336-.48-.672-.576-2.3-1.824-3.456-2.64a.669.669,0,0,0-.432-.192.347.347,0,0,0-.288.192c-.72.864-1.248,1.44-1.872,2.112a.883.883,0,0,1-.672.384H107.76a14.989,14.989,0,0,1-4.128-.432,1.221,1.221,0,0,0-.336-.1.127.127,0,0,0-.144.144c0,.1.048.144.048.24a5.375,5.375,0,0,0,.432,1.056c.144.24.24.288.432.288h.192a20.455,20.455,0,0,1,3.5-.24h10.272c.048.96.048,2.3.048,3.744h-14.4a11.878,11.878,0,0,0-.288-1.392c-.1-.432-.288-.624-.48-.624s-.384.288-.432.72c-.432,4.512-2.784,4.848-3.552,6.672a3.279,3.279,0,0,0-.24,1.056,1.486,1.486,0,0,0,1.584,1.584,2.573,2.573,0,0,0,1.44-.48c1.68-1.1,2.16-3.264,2.16-5.424a9.248,9.248,0,0,0-.048-1.152H118.08c0,3.264-.144,7.1-.24,9.984v.24c0,1.008.288,1.344,1.248,1.344h.192c1.248-.048,1.68-.24,1.68-1.392V-20.5c-.048-3.024-.1-6.816-.1-9.984h15.312c-.528,1.728-.96,3.072-1.68,4.848,0,.048-.048.144-.048.192a.277.277,0,0,0,.288.288.518.518,0,0,0,.336-.144c1.584-1.44,2.928-3.408,4.56-3.408h.624c.816,0,1.248-.336,1.248-.816A1.158,1.158,0,0,0,140.976-30.432Zm-7.68,3.888a23.418,23.418,0,0,0-2.064-1.824c-.24-.192-.336-.192-.48,0-.384.432-.624.72-1.008,1.2a.5.5,0,0,1-.432.24h-1.488a14.989,14.989,0,0,1-4.128-.432,1.221,1.221,0,0,0-.336-.1.127.127,0,0,0-.144.144.433.433,0,0,0,.048.24,5.831,5.831,0,0,0,.432.96.4.4,0,0,0,.432.288h.192a20.456,20.456,0,0,1,3.5-.24h5.232c.24,0,.384-.1.384-.24A.264.264,0,0,0,133.3-26.544Zm-17.712,0a23.415,23.415,0,0,0-2.064-1.824c-.24-.192-.336-.192-.48,0-.384.432-.624.72-1.008,1.2a.5.5,0,0,1-.432.24h-1.632a14.989,14.989,0,0,1-4.128-.432,1.221,1.221,0,0,0-.336-.1.127.127,0,0,0-.144.144.433.433,0,0,0,.048.24,5.831,5.831,0,0,0,.432.96.4.4,0,0,0,.432.288h.192a20.455,20.455,0,0,1,3.5-.24h5.376c.24,0,.384-.1.384-.24A.264.264,0,0,0,115.584-26.544Zm20.256,4.416a23.415,23.415,0,0,0-2.064-1.824c-.24-.192-.336-.192-.48,0-.384.432-.624.72-1.008,1.2a.5.5,0,0,1-.432.24h-4.032a14.989,14.989,0,0,1-4.128-.432,1.221,1.221,0,0,0-.336-.1.127.127,0,0,0-.144.144.433.433,0,0,0,.048.24,5.831,5.831,0,0,0,.432.96.4.4,0,0,0,.432.288h.192a20.455,20.455,0,0,1,3.5-.24H135.6c.24,0,.384-.1.384-.24A.264.264,0,0,0,135.84-22.128Zm-20.256.1a23.416,23.416,0,0,0-2.064-1.824c-.24-.192-.336-.192-.48,0-.384.432-.624.72-1.008,1.2a.5.5,0,0,1-.432.24h-2.784a14.989,14.989,0,0,1-4.128-.432,1.221,1.221,0,0,0-.336-.1.127.127,0,0,0-.144.144.433.433,0,0,0,.048.24,5.831,5.831,0,0,0,.432.96.4.4,0,0,0,.432.288h.192a20.456,20.456,0,0,1,3.5-.24h6.528c.24,0,.384-.1.384-.24A.264.264,0,0,0,115.584-22.032Zm19.2,4.752a30.715,30.715,0,0,0-2.832-2.5c-.336-.288-.528-.288-.768,0-.336.48-1.2,1.536-1.536,2.016a.653.653,0,0,1-.624.336H108.768a14.989,14.989,0,0,1-4.128-.432,1.221,1.221,0,0,0-.336-.1.127.127,0,0,0-.144.144c0,.1.048.144.048.24a5.376,5.376,0,0,0,.432,1.056c.144.24.24.288.432.288h.192a20.456,20.456,0,0,1,3.5-.24h25.68c.432,0,.624-.1.624-.288C135.072-16.9,134.976-17.04,134.784-17.28ZM141.36.768c-.528-.528-3.072-2.688-3.7-3.168a.669.669,0,0,0-.432-.192c-.1,0-.144.048-.24.192-.48.72-1.632,2.352-1.872,2.592a.835.835,0,0,1-.672.24H124.9c-.048-5.28-.048-8.784,0-11.568h14.016c.288,0,.48-.1.48-.288,0-.1-.048-.192-.192-.336-.528-.528-3.072-2.688-3.7-3.168a.669.669,0,0,0-.432-.192c-.1,0-.144.048-.24.192-.48.72-1.632,2.352-1.872,2.592a.835.835,0,0,1-.672.24h-26.88a14.989,14.989,0,0,1-4.128-.432,1.221,1.221,0,0,0-.336-.1.127.127,0,0,0-.144.144c0,.1.048.144.048.24a5.376,5.376,0,0,0,.432,1.056c.144.24.24.288.432.288h.192a20.456,20.456,0,0,1,3.5-.24h8.784c.048,1.248.1,2.976.1,5.184,0,1.824-.048,3.936-.1,6.384H103.008A14.989,14.989,0,0,1,98.88,0a1.221,1.221,0,0,0-.336-.1A.127.127,0,0,0,98.4.048c0,.1.048.144.048.24a5.376,5.376,0,0,0,.432,1.056c.144.24.24.288.432.288H99.5a20.456,20.456,0,0,1,3.5-.24h38.064c.288,0,.48-.1.48-.288C141.552,1.008,141.5.912,141.36.768Zm-30.432-3.7v-.288c0-1.392-1.632-4.176-5.424-6.1a1.484,1.484,0,0,0-.384-.1c-.144,0-.288.048-.288.192,0,.1.048.192.192.336,2.5,2.736,2.4,4.656,2.88,6.384A1.464,1.464,0,0,0,109.3-1.488,1.716,1.716,0,0,0,110.928-2.928Zm24.288-5.28a33.843,33.843,0,0,0-3.7-1.776c-.144-.048-.192-.1-.24-.1-.1,0-.1.048-.1.192v.1a.433.433,0,0,1-.048.24,21.163,21.163,0,0,1-4.608,8.4.176.176,0,0,0-.048.144c0,.144.192.288.432.288a.457.457,0,0,0,.336-.1,26.644,26.644,0,0,0,6.144-5.856c.288-.384.48-.624,1.584-.672.432-.048.672-.192.672-.432C135.648-7.92,135.5-8.112,135.216-8.208ZM121.968.432H117.12c-.048-5.28-.048-8.784,0-11.568h4.848c.048,1.248.1,2.976.1,5.184C122.064-4.128,122.016-2.016,121.968.432Zm41.472-29.76c-.384-.432-1.872-1.776-2.64-2.4-.288-.24-.48-.24-.72,0-.384.384-.864.96-1.344,1.44a1.2,1.2,0,0,1-.912.336h-1.536c0-2.688,0-3.7.048-5.616v-.144c0-.432.048-.912.672-1.1.576-.192.864-.528.864-.768,0-.288-.288-.528-.864-.624-.912-.144-2.064-.336-3.264-.528a1.544,1.544,0,0,0-.384-.048c-.144,0-.192.048-.192.192,0,.24.144.768.288,1.728.048.288.048,2.208.048,4.272v2.64h-1.152a16.24,16.24,0,0,1-4.32-.48,1.221,1.221,0,0,0-.336-.1.127.127,0,0,0-.144.144.433.433,0,0,0,.048.24,4.379,4.379,0,0,0,.432,1.056c.144.288.24.336.48.336h.192a21.59,21.59,0,0,1,3.648-.24h6.24c-1.728,5.52-6.24,13.3-11.952,17.76a.416.416,0,0,0-.192.336.321.321,0,0,0,.288.336.811.811,0,0,0,.24-.1,30.215,30.215,0,0,0,6.864-5.472c0,6.48-.048,12.288-.288,18.528,0,.912.24,1.2,1.344,1.2h.288c1.536-.144,1.632-.288,1.632-1.392,0-2.448-.192-14.256-.24-21.408a18.226,18.226,0,0,1,4.272,6.72c.336.864.816,1.2,1.344,1.2a1.5,1.5,0,0,0,1.344-1.584,2.387,2.387,0,0,0-.144-.768c-.768-2.208-3.552-4.656-6.384-6.24a42.652,42.652,0,0,0,4.608-7.584c.192-.384.672-.336,1.248-.432.48-.144.96-.432.96-.816C163.824-28.9,163.68-29.088,163.44-29.328ZM189.072-.864c-.72-.768-.864-.144-.864-3.7V-7.776c0-.336-.192-.576-.336-.576s-.288.144-.336.576a37.064,37.064,0,0,1-.96,5.9c-.336,1.152-.672,1.3-1.776,1.44-.432.048-1.344.1-2.256.1-.72,0-1.488-.048-1.968-.1-1.1-.144-1.152-.336-1.152-1.248-.048-1.728-.048-3.312-.048-4.848,0-2.112,0-4.128.048-6.48h2.112v.528c0,1.1.384,1.44,1.44,1.44h.192c1.248-.048,1.68-.24,1.68-1.44v-.192c-.1-3.024-.144-7.3-.144-11.232s.048-7.488.1-9.12c.048-.576.528-.576,1.152-.96.48-.24.672-.48.672-.768a.9.9,0,0,0-.384-.624c-.624-.48-2.064-1.488-2.784-1.92a1.011,1.011,0,0,0-.528-.192c-.1,0-.192.1-.336.24-.288.336-.816.912-1.152,1.248-.24.24-.048.336-.48.336H169.2s-2.592-1.152-3.648-1.536a1.4,1.4,0,0,0-.432-.1c-.144,0-.192.048-.192.24a2.36,2.36,0,0,0,.192.816c.288.816.384,4.416.384,8.688,0,5.52-.144,12.144-.384,15.024v.336c0,.96.432,1.3,1.44,1.3h.192c1.392-.048,1.728-.288,1.728-1.632v-.48h2.16c-.912,9.744-5.088,13.392-12.192,15.936a.45.45,0,0,0-.288.384c0,.1.1.192.336.192h.24c10.176-1.968,13.584-6.24,14.928-16.512h2.784c.048,1.584.048,2.88.048,4.224,0,2.208-.048,4.512-.1,8.5v.144c0,1.968,1.152,2.448,2.5,2.592a32.152,32.152,0,0,0,3.456.144A34.648,34.648,0,0,0,187.3,2.3c1.344-.24,2.256-1.1,2.256-2.064A1.615,1.615,0,0,0,189.072-.864Zm-7.44-28.368h-13.1c.048-3.168.048-5.472.048-5.472h13.008S181.584-32.4,181.632-29.232Zm0,7.248H168.48c0-2.16.048-4.368.048-6.288h13.1Zm0,.96c0,2.736-.048,5.28-.1,7.056H168.48v-7.056Zm54.48-8.544c-.576-.576-2.64-2.4-3.408-3.024-.336-.288-.528-.288-.768,0-.336.48-1.152,1.872-1.728,2.544a.914.914,0,0,1-.816.336h-13.2c.048-3.024.048-5.088.1-5.9.048-.432-.048-.96.576-1.2.624-.192.912-.48.912-.72s-.288-.48-.864-.576c-1.056-.192-2.352-.384-3.552-.528h-.24c-.192,0-.24.048-.24.24,0,.24.1.72.192,1.536s.1,3.7.1,7.872c0,3.408,0,7.68-.048,12.384h-8.4s-2.928-1.488-3.792-1.872a1.105,1.105,0,0,0-.432-.144c-.144,0-.192.1-.192.288a2.611,2.611,0,0,0,.192.816c.336.96.48,4.848.48,9.072,0,3.84-.1,7.968-.288,10.416V2.3c0,.96.384,1.3,1.392,1.3h.192c1.344-.048,1.872-.288,1.872-1.488V1.968C204.1,1.3,204.1.672,204.1,0h22.56c0,.672-.048,1.3-.048,1.872v.24c0,1.056.336,1.392,1.392,1.392h.192c1.3-.048,1.776-.288,1.776-1.44V1.872c-.1-3.12-.144-6.1-.144-8.688,0-3.024.048-5.568.1-7.3,0-.576.384-.912,1.008-1.152.576-.192.768-.432.768-.672a1.068,1.068,0,0,0-.48-.72c-.576-.48-1.776-1.3-2.592-1.824a1.4,1.4,0,0,0-.48-.24c-.144,0-.24.1-.384.288-.24.336-1.008,1.2-1.248,1.488a.713.713,0,0,1-.72.336h-9.5c-.048-3.36-.048-6.432-.048-9.072v-3.072h19.536c.432,0,.672-.1.672-.288A.957.957,0,0,0,236.112-29.568ZM226.7-.96H204.048C204-2.736,204-4.608,204-6.384c0-3.936.048-7.536.1-9.264h22.56c.048,1.728.1,4.992.1,8.4C226.752-5.088,226.752-2.88,226.7-.96Zm56.688-13.68a14.821,14.821,0,0,0-9.6-13.68,2.286,2.286,0,0,0-.912-.24c-.1,0-.144.048-.144.1,0,.1.24.384.672.768,3.792,3.5,5.616,6.336,5.808,10.416v.432c0,1.008-.336,1.44-.912,1.44a.817.817,0,0,1-.336-.048,3.831,3.831,0,0,0-.768-.144c-.1,0-.144.048-.144.1a3.572,3.572,0,0,0,.336.864c.624,1.392.144,3.408,2.016,4.032a2.718,2.718,0,0,0,.864.144C282.1-10.464,283.392-12.528,283.392-14.64Zm-24.1.336c0-.1-.048-.144-.1-.144a1.7,1.7,0,0,0-.72.576c-2.112,2.4-3.072,3.744-5.088,5.952-.48.528-.864.864-1.248.864-.336,0-.672-.336-1.1-1.008a15.069,15.069,0,0,1-1.968-8.016,32.375,32.375,0,0,1,1.056-7.824,13.981,13.981,0,0,0,.768-3.312,3.4,3.4,0,0,0-.048-.672c-.24-1.2-.96-2.688-4.176-3.792a2.408,2.408,0,0,0-.672-.144c-.144,0-.192.048-.192.192a2.418,2.418,0,0,0,.24.72,7.705,7.705,0,0,1,.864,3.84c0,.72-.048,1.536-.144,2.5-.144,1.968-.192,3.792-.192,5.568,0,7.392,1.3,12.96,4.848,16.7a4.289,4.289,0,0,0,2.832,1.488,1.587,1.587,0,0,0,1.68-1.68,3.3,3.3,0,0,0-.1-.624A7.929,7.929,0,0,1,255.6-4.9a7.11,7.11,0,0,1,.528-2.592c.96-2.112,1.632-3.5,2.928-6.048A1.819,1.819,0,0,0,259.3-14.3Zm70.752-7.728a3.142,3.142,0,0,0-.48-1.584c-.96-1.584-3.12-2.88-6.1-3.552a1.329,1.329,0,0,0-.432-.048q-.288,0-.288.144c0,.1.144.288.48.48a11.307,11.307,0,0,1,4.368,4.8c.336.816.864,1.152,1.344,1.152A1.266,1.266,0,0,0,330.048-22.032Zm-4.224,2.976a2.888,2.888,0,0,0-.336-1.3c-.864-1.824-3.216-3.5-5.808-4.272a2.477,2.477,0,0,0-.528-.1c-.192,0-.336.1-.336.192,0,.144.144.336.432.528a10.965,10.965,0,0,1,4.08,5.28c.336.96.816,1.392,1.3,1.392C325.248-17.328,325.824-18.048,325.824-19.056Zm.816-12.24a3.544,3.544,0,0,0-.1-.576c-.432-1.392-1.3-2.256-3.648-2.256a6.12,6.12,0,0,0-.912.048c-1.248.048-1.584.432-3.936.96-9.024,1.92-17.856,4.176-21.648,4.944a16.657,16.657,0,0,1-3.408.48,4.022,4.022,0,0,1-2.3-.576,1.276,1.276,0,0,0-.672-.288c-.144,0-.24.1-.24.384a1.654,1.654,0,0,0,.048.432c.528,2.3,3.12,4.224,4.8,4.224h.144c1.536-.1,2.592-1.008,4.608-1.872a65.851,65.851,0,0,1,16.656-5.52,2.585,2.585,0,0,1,.528-.048c.144,0,.192,0,.192.048q0,.144-.72.432c-8.592,3.072-11.472,10.944-11.472,18,0,.624,0,1.248.048,1.824.624,8.88,5.52,11.04,12.144,11.424.288,0,.624.048.912.048,1.968,0,3.6-.528,3.6-2.016v-.048c-.048-1.536-1.344-2.016-4.032-2.016H316.08c-6.1,0-8.736-4.128-9.216-8.256a24.358,24.358,0,0,1-.192-3.168c0-9.168,5.28-14.592,15.5-15.312C324.048-30.144,326.64-29.712,326.64-31.3Z" transform="translate(-1.898 38.963)"/>
  </g>
</svg>
