<svg xmlns="http://www.w3.org/2000/svg" width="392.69" height="84.595" viewBox="0 0 392.69 84.595"><path d="M10.471-21.164c2.479,0,2.96-.777,2.96-.888v-3.7H23.2v4.44c2.812,0,3-.925,3-.925v-3.515h7.733c1,0,1.443-.222,1.739-.74l-3.589-2.7L30.192-26.6h-4v-3.515c1.11-.148,1.406-.333,1.443-.888l-4.44-.333V-26.6H13.431v-3.478c1.11-.148,1.369-.407,1.443-.925l-4.4-.333V-26.6H1.258l.222.851h8.991ZM30.414-17.39H19.943v-5.069c1-.148,1.369-.37,1.406-.851l-4.4-.407v6.327H1.147l.222.814H16.946v6.438H9.657L6.438-11.507V3.145c2.479,0,2.96-.962,2.96-1.036V.814H27.676v2c2.146,0,3-.851,3-.925V-8.51a2.755,2.755,0,0,0,1.554-.777L28.6-11.877l-1.3,1.739H19.943v-6.438H34.225c1.036,0,1.48-.222,1.776-.74l-3.663-2.59ZM27.676-.037H9.4V-9.324H27.676ZM67.821-7.7a17.872,17.872,0,0,1-4.662,4.033,16.841,16.841,0,0,1-8.547,2.405,4.8,4.8,0,0,1-3.33-1.036c-1.036-.888-1.443-2-1.517-4.218a96.907,96.907,0,0,1,1.443-14.06,39,39,0,0,0,.592-4.107,2.589,2.589,0,0,0-.592-1.85,7.8,7.8,0,0,0-2.331-1.406,3.656,3.656,0,0,0-1.776-.259c-.3.037-.629.074-1,.148a.817.817,0,0,0,0,.592,2.8,2.8,0,0,1,1.924,2.294,24.155,24.155,0,0,1,.111,5.18c-.111,2.812-.777,10.027-.777,12.765,0,3.145.481,5.106,1.924,6.66a7.308,7.308,0,0,0,5.7,2.257,13.458,13.458,0,0,0,9.953-4.218A21.032,21.032,0,0,0,68.3-7.363C68.265-7.585,68.043-7.659,67.821-7.7Zm32.264-3a.506.506,0,0,0-.518.074,37.33,37.33,0,0,1-.074,5.772,2.977,2.977,0,0,1-1.554,2.664,17.41,17.41,0,0,1-9.546.925c-2.035-.518-3.256-1-3.219-3.182a9.356,9.356,0,0,1,.037-1,1.453,1.453,0,0,0,.925-1.517,5.518,5.518,0,0,1,.148-2.553c.259-.888.592-1.665.925-2.923.629-2.59.333-3.885-.777-4.588.111-1.036.259-2.331.407-3.589a28.319,28.319,0,0,0,4.736-1.628,1.156,1.156,0,0,0,.629-1.369.964.964,0,0,0-.851-.814,4.478,4.478,0,0,0-1,0,4.224,4.224,0,0,0-1.665.555,11.61,11.61,0,0,1-1.517.7A30.372,30.372,0,0,1,87.8-26.27c.185-.666.074-.925-.407-1.258a6.143,6.143,0,0,0-1.591-.74,2.255,2.255,0,0,0-1.554-.037,9.26,9.26,0,0,0-.925.333.543.543,0,0,0,.037.481c1.036.222,1.258.851,1.443,1.85a18.91,18.91,0,0,1,.259,3.145,16.529,16.529,0,0,1-3.219.481,3.791,3.791,0,0,1-2.96-.962.513.513,0,0,0-.444.259,6.59,6.59,0,0,0,.592,1.073,5.3,5.3,0,0,0,1.48,1.369,2.61,2.61,0,0,0,1.739.444,22.191,22.191,0,0,0,2.775-.37q-.055,1.387-.111,2.664c-.222-.037-.444-.074-.7-.111a3.688,3.688,0,0,0-3.478,1.85,7.743,7.743,0,0,0-1,5.624,10.651,10.651,0,0,0,1.443,3.737A2.908,2.908,0,0,0,83.546-5.18c-.074.444-.148.851-.185,1.332A3.752,3.752,0,0,0,84.545-.37a8.4,8.4,0,0,0,4.255,1.7A23.7,23.7,0,0,0,98.679.555a10.11,10.11,0,0,0,3-1.443,2.548,2.548,0,0,0,.74-3.7C101.195-6.068,100.307-9.435,100.085-10.693ZM108-17.871a3.31,3.31,0,0,0-1.073-2.109,6.535,6.535,0,0,0-3.33-2,4.041,4.041,0,0,0-3.7.74.6.6,0,0,0,.222.481,3.89,3.89,0,0,1,2.923.592A4.139,4.139,0,0,1,104.6-18.13a1.305,1.305,0,0,1-.222,1.554,14.837,14.837,0,0,1-1.924,1.406.513.513,0,0,0,.259.444,7.872,7.872,0,0,1,3.33-.185c.851.074,1.554-.074,1.85-1A5.1,5.1,0,0,0,108-17.871ZM84.582-14.726c0,.555,0,1.665-.074,2.59-.222,2.22-.333,3.108-.925,3.663a1.136,1.136,0,0,1-1.628-.148,5.271,5.271,0,0,1-1-2.368,5.719,5.719,0,0,1,.629-4,1.9,1.9,0,0,1,2.109-.888,1.014,1.014,0,0,1,.888,1.11ZM121.8-29.452c5.476,1.48,9.25,4.292,10.693,6.327a2.238,2.238,0,0,0,.814.148,1.428,1.428,0,0,0,1.48-1.517c0-2.035-3.108-5.439-12.913-5.513Zm.814,27.528c0,3.33.814,4.033,4.514,4.033h7.326c3.663,0,4.773-.629,4.773-1.887,0-.444-.222-.629-1.48-1.073l.037-5.7h-.333a35.128,35.128,0,0,1-1.554,5.4c-.333.555-.74.629-1.406.629h-7.326c-1.406,0-1.554-.111-1.554-1.369V-19.24c1.11-.185,1.332-.407,1.406-.925l-4.4-.37Zm15.466-15.651c4.181,4,5.365,10.138,5.291,13.838a1.784,1.784,0,0,0,1.369.851c1.11,0,2.072-1.517,2.072-3.7,0-3.145-2-7.733-8.362-11.359Zm-20.72,1.184c.185,4.847-1.813,8.991-4,10.619a2.411,2.411,0,0,0-.925,1.739,1.3,1.3,0,0,0,1.443,1.3c2.442,0,4.958-3.256,4.958-8.177a19.078,19.078,0,0,0-.888-5.513Zm50.579,3.33a3.17,3.17,0,0,0-1-2.442,5.381,5.381,0,0,0-2.257-1.11,4.318,4.318,0,0,0-2.368.074c-.851.259-1.628.592-2.257.814-.444.185-.555.074-.333-.259,1.221-2,2.553-4.329,3.663-6.438,1.7-.444,3.367-.925,4.625-1.369a6.229,6.229,0,0,0,1.665-.888,1.013,1.013,0,0,0,.222-1.073.76.76,0,0,0-.555-.592,2.852,2.852,0,0,0-1.258,0,3.673,3.673,0,0,0-1.11.444,11.489,11.489,0,0,1-2.368,1.073c.222-.481.444-.962.7-1.406.333-.7.3-1.073,0-1.332a5.463,5.463,0,0,0-1.961-1.11,3.014,3.014,0,0,0-1.628-.074,12.249,12.249,0,0,0-1.443.407.823.823,0,0,0,.111.592,1.621,1.621,0,0,1,1.7.777,4.374,4.374,0,0,1-.037,2.775,21.623,21.623,0,0,1-3.219.333A4.691,4.691,0,0,1,157.1-24.2a4.859,4.859,0,0,1-1.184-.851.522.522,0,0,0-.444.3,4.611,4.611,0,0,0,.814,1.517,6.86,6.86,0,0,0,1.517,1.369,2.555,2.555,0,0,0,1.665.3q.943-.167,1.776-.333a28.261,28.261,0,0,1-4.181,6.327c-.74.814-1.443,1.332-2.553,2.368a1.838,1.838,0,0,0-.259,2.812,1.212,1.212,0,0,0,1.961,0c.777-.74,1.369-1.554,2.59-2.923a6.426,6.426,0,0,1,4.07-2.257c1.7,0,2.553,1.073,2.627,2.923,0,.37,0,.888-.037,1.48a23.371,23.371,0,0,0-4.921,3.108,5.135,5.135,0,0,0-2.035,3.922A5.389,5.389,0,0,0,160.876.111,11.126,11.126,0,0,0,167.129,1.7h.037a22.472,22.472,0,0,0,3.848-.3A4.588,4.588,0,0,0,173.641.3a1.66,1.66,0,0,0,.666-1.924.989.989,0,0,0-1.406-.666,24.168,24.168,0,0,1-6.438,1.036,8.986,8.986,0,0,1-4.366-.925,3.414,3.414,0,0,1-.592-4.847,12.034,12.034,0,0,1,3.885-2.849c-.074,1.036-.148,2-.222,2.59A2.555,2.555,0,0,0,165.39-5.7a2.77,2.77,0,0,0,.407.74,1.323,1.323,0,0,0,1.073.37.971.971,0,0,0,1-.74,13.321,13.321,0,0,0,.111-2.4l-.037-3.293c4.329-1.887,9.25-3.441,11.951-5.4a1.135,1.135,0,0,0,.185-1.813,5.76,5.76,0,0,0-1.887-1.591,4.172,4.172,0,0,0-1.85-.481,7.887,7.887,0,0,0-2.886.444.517.517,0,0,0,.111.555,3.058,3.058,0,0,1,2.553.592.85.85,0,0,1,.111,1.11c-.629,1.369-4.7,3.4-8.288,5.18Zm38-14.985c-.074.851-.222,1.924-.37,2.812h-2.4l-3.33-1.332v10.249h-.925a7.451,7.451,0,0,0-.259-1.443h-.629a4.516,4.516,0,0,1-2.516,3.737,1.83,1.83,0,0,0-1.036,1.443c0,.629.481,1.147,1.369,1.147,1.332,0,3.034-1.221,3.108-4.07h17.464c-.259.777-.629,1.739-.925,2.479a17.2,17.2,0,0,0-3.145-.74l-.222.37a12.529,12.529,0,0,1,4.551,4.81,1.767,1.767,0,0,0,.925.333,1.288,1.288,0,0,0,1.258-1.406c0-.888-.629-2.035-2.331-2.923,1-.666,2.257-1.554,3-2.146.74-.037,1.147-.111,1.406-.37l-2.96-2.886L216.3-16.317h-.666v-7.437a2.623,2.623,0,0,0,1.406-.666L213.6-26.825l-1.221,1.591h-5.365c.74-.814,1.554-1.887,2.257-2.812h9.213c1,0,1.48-.222,1.739-.74l-3.552-2.442-1.85,2.331h-17.76l.222.851Zm-3.256,8.732V-21.46h10.027v2.146Zm0,.851h10.027v2.146H202.686Zm10.027-3.811H202.686v-2.109h10.027Zm-1.073,15.8h-6.993l1.036-1.073c1,0,1.48-.222,1.591-.629l-1.887-.407h4.662c2.479,0,3.441-.407,3.441-1.3,0-.37-.185-.444-1.073-.777l-.074-1.554h-.333c-.925,1.554-1.036,1.739-1.961,1.739h-4.107c-.888,0-.925,0-.925-.666v-1.739c.777-.074,1-.222,1.073-.629l-3.293-.3v2.627c0,1.11.111,1.776.592,2.146l-.37-.074a23.266,23.266,0,0,1-7.77,7.918l.37.444a26.317,26.317,0,0,0,6.845-3.885,16.731,16.731,0,0,0,3.367,3.478,39.91,39.91,0,0,1-11.433,3.7l.148.629A47.346,47.346,0,0,0,207.57.037c2.812,1.628,6.364,2.59,11.4,3.145A2.918,2.918,0,0,1,220.927.518L221,.074a45.627,45.627,0,0,1-10.878-1.332,16.146,16.146,0,0,0,4.625-3.811c.925-.037,1.332-.148,1.591-.444L213.49-8.1Zm-6.475-8.14a9.289,9.289,0,0,1,3.441,2.812,1.217,1.217,0,0,0,.666.185,1.012,1.012,0,0,0,1.036-1.036c0-1.036-1.258-2.4-4.995-2.368Zm6.29,8.954A17.372,17.372,0,0,1,207.5-2.146a13.951,13.951,0,0,1-4.4-2.96l.666-.555ZM193.1-31.265c-1.591,7.215-4.366,14.948-7.03,19.351l.555.333a33.757,33.757,0,0,0,3.885-5.291V3.145h.518a3.566,3.566,0,0,0,2.294-.851V-20.313c.666-.074,1-.333,1.11-.666l-1.443-.555a72.845,72.845,0,0,0,3.071-7.807c.962,0,1.258-.259,1.406-.7Zm7.548,17.538a4.276,4.276,0,0,1-2.96,3.33,1.55,1.55,0,0,0-1,1.258c0,.37.222.962,1.258.962a3.9,3.9,0,0,0,3.515-4.218,5.866,5.866,0,0,0-.148-1.332ZM252.821-7.7a17.872,17.872,0,0,1-4.662,4.033,16.841,16.841,0,0,1-8.547,2.405,4.8,4.8,0,0,1-3.33-1.036c-1.036-.888-1.443-2-1.517-4.218a96.906,96.906,0,0,1,1.443-14.06,39.008,39.008,0,0,0,.592-4.107,2.589,2.589,0,0,0-.592-1.85,7.8,7.8,0,0,0-2.331-1.406,3.656,3.656,0,0,0-1.776-.259c-.3.037-.629.074-1,.148a.817.817,0,0,0,0,.592,2.8,2.8,0,0,1,1.924,2.294,24.154,24.154,0,0,1,.111,5.18c-.111,2.812-.777,10.027-.777,12.765,0,3.145.481,5.106,1.924,6.66a7.308,7.308,0,0,0,5.7,2.257,13.458,13.458,0,0,0,9.953-4.218A21.032,21.032,0,0,0,253.3-7.363C253.265-7.585,253.043-7.659,252.821-7.7Zm28.786-17.575c.481-.592.407-1,.111-1.7a7.572,7.572,0,0,0-1.295-1.665,2.1,2.1,0,0,0-1.184-.592,9.7,9.7,0,0,0-1.924-.074.5.5,0,0,0-.111.555,2.068,2.068,0,0,1,.851,1,2.509,2.509,0,0,1,0,1.48c-.407,1.85-4.44,6.512-5.735,7.992-.925,1.073-1.258,1.406-1.776,1.961a2.93,2.93,0,0,0-.814,1.776,6.94,6.94,0,0,0,.185,1.665,3.282,3.282,0,0,0,1.036,1.776c.629.666,2.257,2,3.071,2.923a28.853,28.853,0,0,1,4.514,6.327c.74,1.406,1.184,2.59,1.443,3.182a1.142,1.142,0,0,0,1.332.74c.629-.074,1.48-.518,1.517-1.258a5.927,5.927,0,0,0-.222-1.924,7.083,7.083,0,0,0-1.258-2.923,53.142,53.142,0,0,0-5.069-5.291c-.777-.777-2.479-2.294-3.182-3a2.677,2.677,0,0,1-.333-3.811c.814-1.036,2.812-3,4.07-4.218C278.462-21.941,280.645-24.124,281.607-25.271Zm46.1,26.2h-.259l.333-14.652h2.738c1,0,1.443-.185,1.7-.74L329.6-16.835l-1.406,2.294h-.407l.259-12.358a2,2,0,0,0,1.406-.555L326.229-30.3l-1.517,1.924H312.169l.259.814h4.44c-.185,3.626-.481,8.288-.851,13.024h-3.441l.222.814h3.145C315.536-8.362,315.055-3,314.574.925H309.8l.222.814h20.646c1,0,1.443-.185,1.739-.74l-3.071-2.775Zm-2.96-15.466h-5.772c.37-4.7.666-9.4.851-13.024h5.217ZM324.379.925h-6.845c.481-3.922.962-9.287,1.369-14.652h5.846Zm-16.835-28.12a130.934,130.934,0,0,1-6.475,12.21c-1.628.037-2.96.037-3.848.037l1.184,3.219a1.092,1.092,0,0,0,.925-.74l4.107-.814V3.182h.481a2.763,2.763,0,0,0,2.331-.888V-13.875q1.443-.278,2.553-.555a8.27,8.27,0,0,1,.666,2.479,1.6,1.6,0,0,0,1.184.592,1.654,1.654,0,0,0,1.48-1.813c0-1.406-1.221-3.4-4.995-5.069l-.333.259a13.785,13.785,0,0,1,1.665,2.738c-2.22.111-4.366.185-6.253.222a94.436,94.436,0,0,0,7.807-10.064,2.283,2.283,0,0,0,.666.074c.444,0,.7-.111.851-.407ZM299.367-9.916A38,38,0,0,1,297-.074l.592.333c1.813-2,3.256-5.328,4.181-8.658.888-.037,1.147-.259,1.258-.7Zm-2.109-14.911a10.511,10.511,0,0,1,3.256,4.995,1.633,1.633,0,0,0,1.073.481,1.451,1.451,0,0,0,1.369-1.591,3.351,3.351,0,0,0-1.665-2.627,54.88,54.88,0,0,0,4.366-5.7c.888.074,1.221-.111,1.369-.555l-4.07-1.48c-.74,2.442-1.739,5.217-2.553,7.215a12.258,12.258,0,0,0-2.886-1.036Zm10.212,15.1a16.177,16.177,0,0,1,1.887,6.845,1.58,1.58,0,0,0,1.184.666c.814,0,1.554-.851,1.554-2.109,0-1.48-1.036-3.589-4.181-5.624Zm39.516-11.4h-2.849a39.787,39.787,0,0,0,3.774-4.736c.74-.074,1.184-.111,1.443-.407l-2.849-2.738-1.591,1.591h-3.478c.3-.666.592-1.369.851-2.072.888.037,1.184-.185,1.332-.629l-3.959-1.221c-1.184,5.18-3.256,10.249-5.4,13.135l.481.37a15.727,15.727,0,0,0,2.22-2.22v6.327c0,5.476-.111,11.544-2.7,16.5l.518.407C337.7.074,338.846-3.959,339.29-7.77h8.066V-.592c0,.444-.148.555-.629.555h-4.07V.481C345.1.7,346.135,1,346.135,3.219c3.33-.333,3.848-1.739,3.848-3.774V-19.647a2.623,2.623,0,0,0,1.443-.7l-3.256-2.331Zm-4.773.814v5.291h-2.664v-5.291Zm5.143,5.291h-2.812v-5.291h2.812Zm-5.143.814v5.624h-2.849c.185-2.294.185-4.255.185-5.624Zm2.331,0h2.812v5.624h-2.812Zm-4.514-6.919-1.7-.7a34.466,34.466,0,0,0,2.738-4.736H345.1a42.835,42.835,0,0,1-1.85,5.439Zm11.026,4.292a14.6,14.6,0,0,0,8.473-10.878h5.106c-.185,4.255-.481,6.438-1.036,6.919-.222.185-.444.185-1,.185-.629,0-2.479,0-3.367-.037v.592c2.368.333,2.886.814,2.886,2.442,4.218,0,4.921-1.48,5.254-9.509a2.273,2.273,0,0,0,1.406-.555L365.6-30.044,364.3-28.527H351.2l.259.814h4.847c-.629,4.255-2.183,7.881-5.476,10.323ZM364.413-5.809H361.3v-5.735h5.032c.962,0,1.406-.185,1.7-.7l-3-2.146-1.591,2.035H361.3v-3.774c1-.148,1.3-.37,1.369-.851l-4.218-.37v4.995h-3.478a30.659,30.659,0,0,0,1.147-3.071c.888-.074,1.147-.3,1.258-.7l-3.774-.925a33.171,33.171,0,0,1-2.442,9.435l.592.3a16.743,16.743,0,0,0,2.812-4.218h3.885v5.735h-7.807l.222.814h7.585v8.14c2.368,0,2.849-.851,2.849-.925V-5h6.216c1,0,1.443-.185,1.739-.74l-3.182-2.294Zm28.194-19.462c.481-.592.407-1,.111-1.7a7.572,7.572,0,0,0-1.295-1.665,2.1,2.1,0,0,0-1.184-.592,9.7,9.7,0,0,0-1.924-.074.5.5,0,0,0-.111.555,2.068,2.068,0,0,1,.851,1,2.509,2.509,0,0,1,0,1.48c-.407,1.85-4.44,6.512-5.735,7.992-.925,1.073-1.258,1.406-1.776,1.961a2.93,2.93,0,0,0-.814,1.776,6.94,6.94,0,0,0,.185,1.665,3.282,3.282,0,0,0,1.036,1.776c.629.666,2.257,2,3.071,2.923a28.853,28.853,0,0,1,4.514,6.327c.74,1.406,1.184,2.59,1.443,3.182a1.142,1.142,0,0,0,1.332.74c.629-.074,1.48-.518,1.517-1.258a5.927,5.927,0,0,0-.222-1.924,7.083,7.083,0,0,0-1.258-2.923,53.142,53.142,0,0,0-5.069-5.291c-.777-.777-2.479-2.294-3.182-3a2.677,2.677,0,0,1-.333-3.811c.814-1.036,2.812-3,4.07-4.218C389.462-21.941,391.645-24.124,392.607-25.271ZM28.823,34.238H24.79v-8.1h6.031c-.259,1.3-.7,3.071-.925,4.07l.481.222c1.073-.851,2.775-2.479,3.737-3.441a2.115,2.115,0,0,0,1.406-.407l-3.182-3.071L30.6,25.321H24.79V20.289c1.332-.185,1.776-.481,1.813-1.11l-4.7-.407v6.549H16.8l-3.367-1.406v8.621c0,6.66-.481,14.134-4.477,20.276l.518.37c5.476-5.106,6.623-12.321,6.808-18.13h2.035A25.26,25.26,0,0,0,22.9,46.115a27.525,27.525,0,0,1-10.434,6.438l.222.629a31.639,31.639,0,0,0,11.544-5.476,23.693,23.693,0,0,0,8.732,5.513,3.513,3.513,0,0,1,2.812-2.59l.074-.37a27.045,27.045,0,0,1-9.62-4.366,24.925,24.925,0,0,0,5.994-10.1c.888-.037,1.258-.185,1.517-.518l-3.071-2.812Zm-6.919-8.1v8.1H16.317v-8.1Zm7.141,8.917a25.359,25.359,0,0,1-4.625,9.324,19.915,19.915,0,0,1-5.4-9.324ZM2.7,19.438a11.157,11.157,0,0,1,3.737,4.81,1.888,1.888,0,0,0,1.184.481A1.634,1.634,0,0,0,9.176,22.99c0-1.406-1.517-3.293-6.253-3.885Zm.814,23.014s-.407.037-1.665.037v.777c1.85.185,2.664.407,2.664,4.107a27.6,27.6,0,0,1-.333,4c.111,1.258.7,1.887,1.406,1.887.814,0,2.331-.333,2.331-3.145,0-2.886-1.073-4.44-1.11-6.142A13.542,13.542,0,0,1,7.363,40.6c.518-1.887,3.293-10.619,4.81-15.281l-.666-.185C5.143,40.343,4.736,41.157,4.44,41.712c-.333.777-.481.777-.925.777ZM1.221,28.873a9.308,9.308,0,0,1,3.256,4.514,1.727,1.727,0,0,0,1.147.481A1.614,1.614,0,0,0,7.178,32.2c0-1.369-1.406-3.108-5.772-3.663ZM49.21,44.154h5.92c1,0,1.406-.185,1.7-.74l-3.108-2.183L52.133,43.34H49.21V39.825h3.959v1.258h.444a3.062,3.062,0,0,0,2.331-.777V31.722a2.146,2.146,0,0,0,1.369-.592l-3.219-2.4-1.258,1.591H49.21v-3.4h7.141c.962,0,1.406-.185,1.739-.7l-3.33-2.294-1.7,2.183H49.21V22.509c2.183-.3,4.218-.629,5.846-.925a3.976,3.976,0,0,0,1.295.3,1.1,1.1,0,0,0,.74-.222l-3.071-3a91.116,91.116,0,0,1-15.207,4.144l.148.592c2.405-.074,4.958-.3,7.437-.555V26.1H38.184l.222.814H46.4v3.4H43.031l-3.145-1.3V41.342h.444c1.406,0,2.294-.666,2.294-.888v-.629H46.4V43.34H39.257l.222.814H46.4v4c-3.515.444-6.438.74-8.1.851l1.591,3.922a1.373,1.373,0,0,0,.962-.851c7.4-1.924,12.654-3.478,16.391-4.7l-.074-.555c-2.738.37-5.439.7-7.955,1ZM46.4,34.645H42.624V31.13H46.4Zm6.771,0H49.21V31.13h3.959Zm-10.545.814H46.4v3.515H42.624Zm6.586,0h3.959v3.515H49.21Zm18.759-7.178H64.047c.074-2.627.074-5.4.111-8.251,1.258-.148,1.48-.407,1.554-.925l-4.551-.37v9.546H56.943l.222.851h3.959c-.185,9.657-1.369,17.464-7.7,23.421l.518.592c8.288-5.735,9.768-13.949,10.1-24.013h4.366C68.228,41.786,67.9,48.3,66.822,49.445a1.372,1.372,0,0,1-1.221.407c-.851,0-2.812-.074-4-.111l-.037.592c3.145.555,3.478,1.073,3.478,2.812A5.1,5.1,0,0,0,69.079,51.7c1.628-1.628,2-7.955,2.146-21.9a2.446,2.446,0,0,0,1.554-.629L69.412,26.5ZM97.532,51.11v-9.1h8.547c1.036,0,1.48-.185,1.739-.7l-3.367-2.294-1.813,2.183H77.515l.222.814h9.657v9.1H75.369l.222.851h32.375c1.036,0,1.48-.222,1.776-.74l-3.589-2.4-1.887,2.294Zm-2.886-9.1v9.1h-4.4v-9.1ZM90.909,35.94h.481c1.517,0,2.479-.555,2.479-.777V26.394h11.988c-.222,1.258-.592,2.923-.851,3.811l.481.259a19.149,19.149,0,0,0,3.4-3.293,2.213,2.213,0,0,0,1.369-.407l-3.034-2.923-1.665,1.7H93.869V22.1h10.952c1.036,0,1.48-.185,1.739-.7l-3.515-2.442-1.887,2.331H78.736l.222.814H90.909v3.441H79.587a6.085,6.085,0,0,0-.444-1.48l-.592.037a3.656,3.656,0,0,1-2.035,3.7,1.99,1.99,0,0,0-1.295,1.628c0,.777.629,1.369,1.665,1.369,1.85,0,2.886-1.7,2.886-3.663a5.211,5.211,0,0,0-.037-.74H90.909Zm-5.55-6.475H79.92l.259.814h7.4c.962,0,1.369-.185,1.628-.7l-2.553-1.665Zm15.725,0H95.349l.222.814h7.844c.962,0,1.406-.185,1.665-.7l-2.664-1.7Zm.666,3.737H95.312l.222.814h8.806c.962,0,1.369-.185,1.665-.7l-2.812-1.776ZM87.8,34.016c.925,0,1.369-.185,1.665-.7l-2.664-1.7L85.433,33.2H79.254l.259.814Zm12.691,1.3-1.665,2h-17.5l.222.814h20.424c.962,0,1.406-.185,1.7-.7Zm1.85,7.992a58.068,58.068,0,0,1-2.96,6.179l.518.37a32.6,32.6,0,0,0,4.921-4.366c.851.111,1.221-.074,1.406-.444Zm-22.681.37A8.668,8.668,0,0,1,81.844,49a1.777,1.777,0,0,0,1.332.7,1.8,1.8,0,0,0,1.665-1.924c0-1.332-1.184-3.108-4.884-4.366Zm65.675,1.258c-.518,2.072-1,4-1.221,4.477-.259.518-.407.555-.925.555h-2.96c-.7,0-.7,0-.7-.888v-8.4a2.565,2.565,0,0,0,.925-.259h.3V42.6c2.183,0,3.034-.851,3.034-.925V22.842a2.892,2.892,0,0,0,1.554-.74l-3.626-2.664-1.332,1.776h-9.435l-3.071-1.369V43.229c2.516,0,2.886-1.036,2.886-1.11v-1.7h5.772v8.621c0,2.775.481,3.441,3.367,3.441h3.4c2.664,0,3.552-.666,3.552-1.776,0-.407-.111-.555-1.184-.962l.037-4.81Zm-14.578-11.47v-5.4h9.99v5.4Zm9.99-6.216h-9.99v-5.18h9.99Zm-9.99,7.03h9.99v5.291h-9.99Zm-7.178-9.546L121.73,26.5h-1.406v-6.29c1.221-.185,1.628-.407,1.7-1l-4.625-.407v7.7h-5.032l.259.851h9.287c-1.776,5.217-5.883,11.655-10.027,14.911l.444.407a25.622,25.622,0,0,0,5.032-3.848V53.108h.518a2.894,2.894,0,0,0,2.442-.962V36.421a11.683,11.683,0,0,1,3.108,4.958,1.831,1.831,0,0,0,1.221.555,1.564,1.564,0,0,0,1.443-1.7c0-1.406-1.369-3.33-5.772-4.44v-.185a33.362,33.362,0,0,0,4.662-7.437,2.721,2.721,0,0,0,1.665-.444Zm7.215,17.686a14.234,14.234,0,0,1-7.918,10.138l.333.629c6.105-1.961,9.139-5.55,10.508-9.213.925.074,1.295-.074,1.406-.592Zm46.916-15.429H167.388V20.141c1.221-.148,1.628-.407,1.7-.962l-4.773-.444V37.161h-7.326l-3.256-1.406V53.182c2.59,0,2.96-1.073,2.96-1.11V50.518h19.166V52.96c2.072,0,3-.777,3-.888V38.826a2.79,2.79,0,0,0,1.628-.814l-3.663-2.627-1.369,1.776h-8.066V27.837h14.467c1,0,1.48-.222,1.776-.74l-3.848-2.812Zm-1.85,22.681H156.7V37.975h19.166Zm13.024-23.532c.777.851,1.554,2.035,1.665,4.773.148,3.293-.148,6.216.7,9.694a13.568,13.568,0,0,0,3.219,5.846,8.392,8.392,0,0,0,2.96,1.961A1.675,1.675,0,0,0,199.356,48c.333-.444.333-.814,0-1.591a5.437,5.437,0,0,1-.444-2.923c.222-1.147,1.776-5.032,1.961-5.809-.037-.148-.333-.3-.555-.3a57.718,57.718,0,0,1-3.293,5.624.852.852,0,0,1-1.258.259,5.352,5.352,0,0,1-2.257-2.812c-.592-1.628-.814-3.108.185-8.954a3.189,3.189,0,0,0-.629-2.96,9.668,9.668,0,0,0-3.811-2.775C189.033,25.8,188.959,25.95,188.885,26.135Zm19.61,4.218c2.146.333,4.181,1,5.254,3.478a20.582,20.582,0,0,1,1.11,4.921,1.715,1.715,0,0,0,1.11,1.517,1.472,1.472,0,0,0,1.961-.666,3.876,3.876,0,0,0,.259-2.849,10.106,10.106,0,0,0-2.775-4.958,8.6,8.6,0,0,0-6.882-2.072A.751.751,0,0,0,208.495,30.353Zm43.771-1.443c-2.553-3-6.734-5.032-12.8-4.292a15.49,15.49,0,0,0-11.84,7.622,9.559,9.559,0,0,0-.74,7.77c.592,1.554,1.554,3.4,1.924,4.292a21,21,0,0,0,1.073,2.368,2.276,2.276,0,0,0,2.479.851,5.541,5.541,0,0,0,3.552-2.331,43.849,43.849,0,0,0,3.478-6.475,46.439,46.439,0,0,0,2.035-5.587,6.869,6.869,0,0,0,.111-4.218,7.425,7.425,0,0,0-.962-1.85,6.348,6.348,0,0,0-1.332-1.3c.185-.037.37-.037.555-.074,7.474-.925,11.729,4.292,11.877,9.99.148,7.622-4.292,12.173-10.064,13.394a.564.564,0,0,0,.111.592c4.329-.111,8.325-1.665,11.063-5.4A12.62,12.62,0,0,0,252.266,28.91Zm-13.32,2.442a22.187,22.187,0,0,1-1.665,6.179c-1.221,2.775-2.738,5.439-4.144,6.253a1.783,1.783,0,0,1-2-.259,7.449,7.449,0,0,1-2.257-4.44,11.188,11.188,0,0,1,.666-5.217,12.8,12.8,0,0,1,8.621-7.844A8.273,8.273,0,0,1,238.946,31.352Zm50.246,8.806c2.072,0,2.923-.851,2.923-.925V31.019a3.031,3.031,0,0,0,1.591-.777l-3.626-2.553-1.258,1.7h-5.217V24.655h9.472c1.036,0,1.443-.185,1.776-.74l-3.7-2.627-1.961,2.553h-5.587V20.067c1.184-.148,1.554-.37,1.591-.925l-4.551-.37v5.069H270.8l.222.814h9.62v4.736h-5.328l-3.108-1.332V40.491c2.368,0,2.886-.962,2.886-1.036V38.382h5.439a17.059,17.059,0,0,1-1.7,6.438,14.915,14.915,0,0,1-4.033-4.329l-.555.333a19.567,19.567,0,0,0,3.663,5.55c-1.739,2.553-4.514,4.662-8.547,6.327l.333.555c4.477-1.332,7.622-3.108,9.8-5.4,3.293,2.738,7.622,4.477,12.987,5.4a3.564,3.564,0,0,1,2.553-2.886l.037-.444A33.786,33.786,0,0,1,280.9,46.115a16.165,16.165,0,0,0,2.59-7.733h5.7ZM275.1,30.2h5.55v5.624c0,.592,0,1.184-.037,1.739H275.1Zm14.1,7.363h-5.661c.037-.592.074-1.184.074-1.776V30.2h5.587Zm-28.712.814a32.515,32.515,0,0,0,4.551-5.476V53.145h.518a3.5,3.5,0,0,0,2.4-.925V29.65a1.36,1.36,0,0,0,1.147-.7l-1.369-.518a68.548,68.548,0,0,0,3.4-7.659c1,.037,1.3-.222,1.443-.666L268.1,18.7c-1.887,7.363-5.106,15.022-8.14,19.351Zm39.4-12.247c.777.851,1.554,2.035,1.665,4.773.148,3.293-.148,6.216.7,9.694a13.569,13.569,0,0,0,3.219,5.846,8.392,8.392,0,0,0,2.96,1.961A1.675,1.675,0,0,0,310.356,48c.333-.444.333-.814,0-1.591a5.438,5.438,0,0,1-.444-2.923c.222-1.147,1.776-5.032,1.961-5.809-.037-.148-.333-.3-.555-.3a57.715,57.715,0,0,1-3.293,5.624.852.852,0,0,1-1.258.259,5.352,5.352,0,0,1-2.257-2.812c-.592-1.628-.814-3.108.185-8.954a3.189,3.189,0,0,0-.629-2.96,9.668,9.668,0,0,0-3.811-2.775C300.033,25.8,299.959,25.95,299.885,26.135Zm19.61,4.218c2.146.333,4.181,1,5.254,3.478a20.581,20.581,0,0,1,1.11,4.921,1.715,1.715,0,0,0,1.11,1.517,1.472,1.472,0,0,0,1.961-.666,3.876,3.876,0,0,0,.259-2.849,10.106,10.106,0,0,0-2.775-4.958,8.6,8.6,0,0,0-6.882-2.072A.751.751,0,0,0,319.495,30.353Zm43.549,8.954h-9.99V31.648h11.618c1.073,0,1.48-.222,1.776-.74l-3.811-2.664L360.6,30.8h-7.548V24.026c1.221-.185,1.517-.444,1.591-.888,3.034-.407,5.846-.888,8.214-1.406a3.659,3.659,0,0,0,1.332.333,1.079,1.079,0,0,0,.777-.259l-3.219-3.071c-5.661,2.035-16.539,4.292-25.456,5.18l.111.7c4.44-.074,9.139-.407,13.579-.925v7.1H336.552l.222.851h13.209v7.659h-15.8l.222.851h15.577v8.695c0,.592-.222.814-.962.814h-5.957v.592c3.7.3,5.032.814,5.032,3,4.329-.444,4.958-2.109,4.958-4.366V40.158h14.171c1.073,0,1.48-.259,1.776-.74l-3.885-2.7Z" transform="translate(-1.147 31.339)"/></svg>