<svg xmlns="http://www.w3.org/2000/svg" width="289.858" height="108.938" viewBox="0 0 289.858 108.938"><path d="M-64.465-54.395h.488q0,.2.488.586v1.465l-.293.293h-.1l-.1-.1h-.1a4.1,4.1,0,0,1-.879,2.246q0,.2.293.2l.1.1v.1q0,.22-.781.488l.1.1v.488l-.2.293q.293,0,.293.2-.2.488-.586.488v.684l-.488.293.1.1V-46l-.1.1v.1l.2.2v.1a.883.883,0,0,1-.781.488l-.391.391a1.263,1.263,0,0,0,.488.879v.2l-.879.586.2.488-.2.2.2.2v.1a2.911,2.911,0,0,0-.977,1.367l-.2.2.1.1v.1q-.073.537-1.074,1.367l.2.781a1.422,1.422,0,0,0-.488.879l.2.2a9.94,9.94,0,0,1-.977,1.953A3.285,3.285,0,0,1-71.3-33.5a1.7,1.7,0,0,1-.586,1.074q-.415,2.637-.879,2.637l.1.391a3.206,3.206,0,0,1-1.074,1.66v.293h.1l.1-.1h.1l.293.391a1.025,1.025,0,0,1-1.074.879l-.2.2v.1l.2.293-.2.391.1.488-.586.684q.293,0,.293.2v.1l-.879.879.1,1.27a2.35,2.35,0,0,0-1.074,1.66.529.529,0,0,0,.391.391v.2l-.293.488v.2l.488-.1.2.293.1-.1h.293l-.1.879h.1q.293,0,.293.391.293,0,.293.391a3.828,3.828,0,0,1,.684,1.465l.1-.1h.293l.1.781h.1l.488-.1.1.1v.1l-.293.488.1.1v.1l-.2.586h.1l.488-.2.1.1-.293.586q0,.293.391.293l.1.1v.586q.439,0,.586.586l-.391.977q.488,0,.781.684-.586.22-.586.391,0,.2.293.2l.1.1v.293l-.1.1v.1h.293l-.2.586q.391,0,.391.2l-.1.1.1.488v.2l-.293.977.2.293v.2l-.2.293q0,.439.586.684l-.2,1.367.2.293a1.9,1.9,0,0,1-.684.879v.293q.22,0,.293.488-.659,0-.879,1.27h-.293l-.391-.1-.391.1-.293-.293-.293.2h-.1l.2-.586-.2-.2-.1.1q-.977,0-.977-.391l.1-.488q-1.416-.22-1.562-.586l-.1.1h-.2l-.2-.2.1-.293a1.355,1.355,0,0,1-.684-.781q-.391,0-.391-.293V-4.2q-.391,0-.391-.2V-4.98l-.586-.2v-.1l.1-.1A1.759,1.759,0,0,0-79.7-6.445l-.1-.488q-.415,0-.488-.781-.391,0-.391-.293l.2-.391-.391-.586v-.2l.2-.293-.293-.488.1-.293-.1.1h-.391v-.1l.488-1.172-.1-.1-.1.1h-.293v-.488l-.2-.391.2-.293-.2-1.172.488-.781v-.1l-.488-.879v-.293a4.705,4.705,0,0,0,.684-1.465l-.1-.1.2-.2v-.2h-.2l.1-.684-.2-.2.586-1.074-.2-.2-.391-.1-.1-.1v-.1l.1-.1v-.1q-.391,0-.391-.293v-.488l-.977-.2v-.586q-1.074-.073-1.074-.293v-.1l.2-.293v-.1q-.586,0-.586-.2l-.488.2-.1-.1v-.1l.2-.2-.1-.293h-.586q0-.342-.586-.488l-.293-.391-.1.1h-.684a1.214,1.214,0,0,0-.391-.879l-1.172.879v.1q.293,0,.293.2v.1a4.82,4.82,0,0,1-1.953,1.66A5.329,5.329,0,0,1-92.1-19.141l-.1.1v.1l.1.391a1.055,1.055,0,0,0-.586.781q-.439,0-1.172.977v.586h.1l.1-.1h.1l.293.2A1.822,1.822,0,0,0-92.4-16.5q.2,0,.2.391h.293l.391.1.977-.586.1.1-.1.1v.293h.1l1.563-.391.293.1.586-.1h.2a1.363,1.363,0,0,0,.293.879v.1l-.293.391v.2l.1.1v.1l-.293.1-.293-.1-.293.293h-.2l-.293-.2h-.1l-.391.293-.293-.1-.684.1-.1-.1h-.1l-.391.1v-.1l-.1.1h-.2l-.391-.2-.781.684h-.1l-.2-.2.293-.586h-.2l-1.074.488h-.2l-.293-.293-.781.391-.1-.1v-.293l.1-.293h-.1a4.17,4.17,0,0,1-1.562.781v.1q0,.2.293.2v.1q-.977.806-.977,1.074a.978.978,0,0,1-.879.684q0,.586-.2.586t-.2-.293l-1.758,1.66v.488q-.1.293-.586.293h-.1v-.2l.2-.293v-.1h-.2l-.781.977a3.337,3.337,0,0,1-1.562.781v.1l-.1-.1h-.2L-104.9-6.543h-.2l-.293-.1v.1q-1.392,1.465-1.855,1.465l-.586.293v-.2a1.16,1.16,0,0,1,.977-.488v-.2h-.1a3.85,3.85,0,0,0-1.562.879l-.293-.1-.2.2.1.1v.2l-.488.1v-.1a3.807,3.807,0,0,0-1.27.781h-.293l-.684-.1a.921.921,0,0,0-.488.781l-.879.293-.293-.1-.586.293-.2-.2q-1.367.22-1.367.391,0,.366-1.66.488l-.488-.1-1.27.684h-.1l-.293-.2h-.1l-.391.293h-.293l-.391-.2-1.172.488h-.1l-.684-.293-.391.1q-.879-.073-.879-.2v-.1l-.977.293q0-.2-.391-.2l-.2-.391-1.758.488-.1-.1v-.1l.1-.391-.1-.1h-.1a1.791,1.791,0,0,0-.977.488h-.1l-.2-.2v-.293l.1-.1v-.1h-.2l-.586.2-.488-.293-.1.1h-.293q-.2,0-.2-.293l-.1-.1h-.1l-.2.2h-.488a.944.944,0,0,0-.684-.391h-.488v-.1l.488-.586v-.1l-1.172.586-.293-.488.1-.488-.1-.1h-.2l-.684.1q0-.61-1.27-.684-.171-.781-.781-.781,0-.293-.391-.293l.2-.586q-.684,0-.684-.2l.1-.293a7.57,7.57,0,0,1-1.465-3.223l.391-.586v-.293a.259.259,0,0,1-.293-.293l.293-.488v-.586q.391,0,.391-.2v-.1l-.1-.1v-.1l.293-.1v-.293l-.391-.1a6.865,6.865,0,0,1,2.539-2.441q0-.22.977-.488l.293-.293h.1l.781.2.586-.488h.2l.2.2v.1l-.1.1v.1h.2a1.681,1.681,0,0,1,.977-.684l.293-.293h.1l.293.2h.2l.293-.2.391.1.586-.1.1.1v.1l.488-.1.2.2h-.1l.1.293h.1v-.2h.879q.2,0,.2.293a2.324,2.324,0,0,0,1.074-.586h.1q.293,0,.293.391a1.34,1.34,0,0,1,.781.391l.293-.1v.1l.488-.293h.2v.488h.879v.2l.781-.2q.122.488.293.488l.293-.293.2.2-.1.488.1.1.1-.1h.879l.1.1.684.488q0,.488.684.488l.586-.1v.2l-.1.1v.1q.391,0,.391.488l.1.488.293.293-.488.391h-.2l-.2-.2-.1.1h-.1l-.1-.1-.1.1h-.1l-.488-.1-.1.1-.2-.391-.1.1h-.293a2.814,2.814,0,0,0-1.953-.977l-.488-.391-.1.1h-.1q-.781-.1-.781-.293l-.1.1h-.1q-.879-.391-.879-.684h-.391l-.2.2-.293-.1-.586.2v-.293a1.422,1.422,0,0,0-.879.488l-.488-.293-.684.1-.1-.293h-.1l-.977.586-.391-.1a1.559,1.559,0,0,1-1.074.391q0,.635-1.27.879v.1l.2.293v.1a2.272,2.272,0,0,1-1.074.684l-.1.1v.293l.391.1-.586,1.172.1.488-.293.1v.2l.488.1-.2.586.2.2v.488q.391.049.391.293v.293l-.1.488a.432.432,0,0,1,.488.488v.1l.488-.1v.1l-.1.391.586.2h.1l.293-.2.1.1v.586a1.245,1.245,0,0,1,.684.391h.2l.293-.2h.2v.1l-.1.488.391.2.586-.2q0,.464,1.074.684l.1-.1h.488v.1l-.1.293.293-.1.684.1.293-.1.488.293a1.125,1.125,0,0,0,.684-.293h.684q.2,0,.2.586h.1a3.869,3.869,0,0,1,1.27-.586l.1.1v.1l-.1.586h.2l.684-.684.1.1v.1l-.293.391v.1h.1l.879-.879h.1l.1.1h.1l-.1.1v.2a5.014,5.014,0,0,0,1.855-.684l.2.2-.1.1v.1h.1L-117.2-4l.293.1.488-.293h.1l.293.2a2.236,2.236,0,0,1,1.367-.488q0-.171.684-.684a1.7,1.7,0,0,1,1.074-.977l.2.2a1.86,1.86,0,0,1,1.074-.586v.1q.513-.024.977-.977a.908.908,0,0,0,.586-.293h.293l.1.1q.586,0,.586-1.074l.391-.293h.2l.1.1q.586,0,.879-1.172,1.27-.586,1.27-1.074l.1-.1h.1v.1L-104.7-12.5a4.182,4.182,0,0,0,2.148-1.562l-.1-.1a.259.259,0,0,0-.293.293l-.1.1h-.2v-.1l.293-.488q-.171-.684-.391-.684a.984.984,0,0,1-.977.488q0-.293-.2-.293l-.586.391q-.342,0-.879-.879a1.125,1.125,0,0,1-.684.293l-.293-.293-1.27.1v-.1a1.8,1.8,0,0,0-1.465-.586q0,.2-.684.293l-.1-.391-.1.1h-.293q-.146,0-.293-.391l-.684.293q0-.366-.586-.586l-.488.293h-.2q0-.586-.2-.586l-.684.1v-.391l-.1.1h-.488q0-.293-.391-.293-.293-.049-.293-.684l-.586.2a1.538,1.538,0,0,1-.977-.488l-.1.1h-.2l-.391-.293q0,.293-.2.293h-.2l-.1-.586.2-.2v-.1l-.977.1a1.086,1.086,0,0,1-.586-.879.345.345,0,0,1-.391-.391l-.488-.2-.1.1h-.1l-.2-.2.2-.293V-21l-.684-.1-.293.1-.293-.977-.1.1h-.391q-.146,0-.391-.781h-.1l-.293.2-.2-.2.2-.488a1.336,1.336,0,0,1-.684-.586q0-.2.293-.2l.1-.1v-.1a1.913,1.913,0,0,1-.781-1.66l-.1.1h-.293v-.977q-.488,0-.488-.2v-.2l.391-1.367v-.1l-.488.1h-.1l.586-.586v-.1q-.391,0-.391-.2v-.2l.293-.391-.1-.488a4.181,4.181,0,0,0,.879-1.465l-.1-.293q.415-1.1.684-1.172l.488.2q.366-1.074.977-1.074a3.414,3.414,0,0,1,1.465-.977l.488.1a6.6,6.6,0,0,1,2.637-1.27l.391.1a8.741,8.741,0,0,1,2.051-.488.345.345,0,0,1,.391.391,2.8,2.8,0,0,1,1.563-.684l.1.1-.2.391,1.66-.1,1.074.1.586-.2h.1v.2h.1l.391-.293.488.1v.293l-.1.1v.1h.2l.586-.391h.1v.2l-.1.1v.1l.1.1h.1l.391-.293.586.1.293-.1q0,.2.488.2v.586l.391-.293h.2l-.1.488h.1l.684-.391h.1q.293,0,.293.391a1.189,1.189,0,0,1,.781-.391l.1.1q.171,0,.391.586l.391.1.1-.1h.293l.488.488.1-.1h.293l.684.1.293-.293.488.684.586-.293q.391.146.391.293v.2l-.293.391h.1l.586-.1q.122.488.293.488a.824.824,0,0,1,.684-.488q.049.22.781.488,0,.293.488.293l.2.391h.488l.684.391.586-.1h.2l.586.781q1.074.22,1.074.586a.788.788,0,0,1,.293.586l.586.1.1-.1.1.293.488-.1v.1l.1-.1h.586a8.552,8.552,0,0,1,1.855-2.441q0-1.05,2.051-2.93l.488-.781v-.1q-.293,0-.293-.2l.1-.1h.1l.1.1h.1q0-.244.391-.293l.1-.1v-.1l-.2-.2v-.1q.977-1.562,1.758-1.562v-.2l-.2-.293q0-.22.684-.391l-.1-.1v-.1q1.074-1.025,1.074-1.27A14.526,14.526,0,0,1-79.7-44.043q.171-.879.879-.879l1.27-1.172-.1-.1v-.1l.586-.488.488.1h.2q0-.293.586-.488v-.1l-.293-.488q.122-.537,1.563-1.172l.391-.586h.2l.293.1v-.1l.977-1.172.1.391h.1q.122,0,.391-.879l.391-.391.488.1q.317,0,1.66-1.172.366,0,.781-.586h.2l.1-.1.1.1.1.293A3.179,3.179,0,0,0-67-53.906l.488.1.977-.391.391.1A1.125,1.125,0,0,1-64.465-54.395Zm-6.25,5.176h-.293l.1.488q-.928,0-1.562,1.563l-.1.1-.781.586q0,.659-1.27,1.367l-.293,1.367h-.1l-.1-.1h-.1l-1.367,1.758v.1h.293v.2q-.049.2-1.074.879h-.488v.2q.488,0,.488.2-.659.781-.977.781v.1l.2.293v.1l-.684.684.2.2q-.977.415-.977,1.172-.22,0-.977,1.172-.2,0-.488.684-.391.024-.391.391.293,0,.293.2v.1q-1.294,2.344-1.562,2.344-.586.073-.586.781l.1.293-1.074,1.172q-.586.342-.586.781h.2v.2l-1.172,2.539a.518.518,0,0,1,.586.586l.1-.1h.1q.879.293.879.879,1.343,0,1.465,1.074,1.27,0,1.27.684l.1.293.488-.1q0,.635.977.781l.2-.391-.2-.2.781-1.074q-.2-.488-.391-.488v-.1q.439-.781.586-.781l-.1-.1v-.2a4.974,4.974,0,0,0,.586-1.855l.293-.293-.2-.684q.708-.684.977-.684v-.2h-.293l.1-.684-.2-.2q.049-.22.781-.488v-.1l-.391-.293v-.1l1.172-1.953v-.1q-.293,0-.293-.2.537-1.465.684-1.465.562-1.758.977-1.758l-.1-.1V-37.5l.684-.586.2-.488v-.2q0-.244-.391-.293v-.2q.586,0,.586-.684.635-.513.684-.781-.488,0-.488-.2.342,0,.488-.977l.781-.586-.1-.1v-.2A8.068,8.068,0,0,1-71.4-45.02l.1-.1v-.1h-.2q0,.293-.2.293h-.2v-.293q1.074-.854,1.074-1.367a15.076,15.076,0,0,0,1.367-3.027h-.1Zm-3.809,10.84h.2v.1h-.2ZM-110.95-34.57h-.684q0,.391-.293.391l-.293-.2a1.125,1.125,0,0,0-.684.293h-.488l-.2-.391-.586.391h-.2l-.391-.2q-.22.024-.684.586a4.633,4.633,0,0,0-2.734,1.27q-.488.049-.977,1.074h-.781l-.391.781.2.2v.1l-.391.293.1.488a5.828,5.828,0,0,0-.879,1.953h.293v.488l-.1.488a7.562,7.562,0,0,1,.879,2.441,2.4,2.4,0,0,1,1.074,1.465q.586.049.586.586.391.049.391.293l-.1.1q.977.391.977.977l.1-.1h.2q.22.049.488.781h.391l.586-.293q.2,0,.781.781l.488.1.391-.1a1.025,1.025,0,0,0,1.074.879l.2-.2h.1a1.661,1.661,0,0,0,.977.586l.1.391.488-.293.781.488h.1l.684-.293-.2.2a2.477,2.477,0,0,0,.684.879l1.074-.2.2.391.586-.293q.684.244.684.684h.1a1.189,1.189,0,0,1,.781-.391h.1q.2,0,.2.293l.1-.1h.293l.488.1.391-.293.293.391.1-.1h.2a1.363,1.363,0,0,1,.879.293,3.6,3.6,0,0,0,1.563-.586l.293.2a25.415,25.415,0,0,1,2.832-3.027l-.2-.2q0-.22.684-.488l.2-.684-.1-.391.2-.2q.2,0,.2.293h.293q.171,0,.293-.879,1.562-1.074,1.563-2.051.806,0,1.074-1.465,0-.2.488-.2l.781-1.172-.1-.1v-.1l.977-.879v-.1H-92l-.684-.781a.432.432,0,0,1-.488-.488h-.2v-.1l-.586.2h-.1q-.2,0-.2-.293l-.1-.1h-.1l-.2.2-.2-.2.2-.293a.937.937,0,0,1-.684-.293l-.293.293q-.2,0-.2-.488l-.391-.2-.293.1v-.1q0-.586-.781-.586l-.2.2h-.1q0-.269-.586-.684v-.2h-.1a1.332,1.332,0,0,1-.879.391q-.122-.488-.293-.488h-.293l-.684.1v-.1l.2-.684h-.1l-.781.1q0-.2-.781-.293l-.684-.488h-.586l-.586.293-.1-.1.1-.1v-.293h-.2v-.1l-.488.1h-.488a1.836,1.836,0,0,0-.977-.391l-1.27.2-.2-.391-.293.1-.293-.293-.879.293q-.122-.488-.293-.488a.644.644,0,0,1-.684.391v-.1l.2-.293-.1-.1h-.1l-.391.2-.2-.293Zm21.387,3.906h.293l.1-.391A.529.529,0,0,0-89.563-30.664Zm3.809,2.734h.391v-.293h-.1Zm-6.348.781v.293l.2-.2v-.1Zm4,2.344-.1.1v.1h.1l.1-.1v-.1Zm-10.449,5.566.1.1v.1l-.1.1h-.2v-.1Zm6.934,0v.293h-.2v-.1Zm-39.844,1.953h.1v.2l-.2.2h-.1v-.2Zm54,1.465.2.2v.391l-.684,1.465.488.391-.1.1.1.488v.2l-.684.781.293.391-.2.977.1.293-.2.391q.269,0,.586.879l-.1.781.1.684-.1.391.488.781q.2,0,.2.293l-.1.293h.1q.586,0,.586.293v.1l-.1.1a.543.543,0,0,0,.586.488A.543.543,0,0,0-75.4-4.1q0,.781.2.781l.781-.488V-4q-.488,0-.488-.2v-.1q.391-.586.781-.586v-.2q-.293,0-.293-.2l.684-.781v-.1l-.1-.391.1-.293q-.146,0-.391-.684-.293,0-.293-.2l.879-1.172-.684-.684.293-.293-.1-.1v-.293l.1-.1v-.1q-.391,0-.391-.2v-.1l.2-.293v-.2q-.293,0-.293-.2v-.1l.2-.293q-.293,0-.293-.2l.2-.586-.391-.391-.1.1h-.1l-.2-.2.293-.391v-.2q-.2,0-.586-.488l.1-.293a3.2,3.2,0,0,1-.879-1.27q-.684-.122-.684-.293v-.2l.1-.1-.1-.293h-.1A.817.817,0,0,0-77.454-15.82ZM-96.2-13.867h.1v.2h-.1ZM-111.34-7.324l.2.2-.2.2h-.2v-.2Zm2.539,2.246v.1h.2v-.1ZM-48.23-54h.684l.391.684v.2l-.293.391.586.1-.391.684.293.293-.1.488q.049.269.488.391l.1.391-.488.684v.1h.293l-.293,1.27.1.1h.1a1.654,1.654,0,0,1-.293.879l.293.586-.293.781.391.293q-.269.879-.586.879v.1h.391v.293a3.165,3.165,0,0,0-.684,1.563l.2.2v.1l-.2.293h.391v.391q-.391.781-.977.781v.293h.1l.488-.1v.1l-.684,1.66.1.1a4.834,4.834,0,0,1-.586,2.051l.391.488a4.535,4.535,0,0,0-1.367,2.637l-.1.1.1.1q.2,0,.2.488v.2q-.9,0-1.074,1.074l.586.391a1.233,1.233,0,0,1-.586.977h-.1l-.293-.2h-.1l-.488.684q.391,0,.391.2v.293a5.2,5.2,0,0,0-1.367,2.441,5.219,5.219,0,0,0-.879,1.66q-.171,0-1.27,1.367l-.2.684q-.22,0-.781,1.074v.2l.293-.2h.1v.1a1.4,1.4,0,0,1-.684.684h-.684v.1l.2.293.488-.2v.293q0,.244-1.172.586v.1q.2,0,.2.293,0,.488-.977,1.074a2.168,2.168,0,0,1-1.074,1.563,7.167,7.167,0,0,1-1.367,1.953q-1.172,1.66-1.562,1.66-.2,0-.2.586l.2.2q-.977.61-.977.781l.2.2v.2l-.2.293v.2a.259.259,0,0,1,.293.293l-.391.781.1.1v.1l-.1.586.2.2q-.122.684-.293.684l.586,1.172-.1.391.293.488-.1.488.684,1.563q.952.879,1.27.879l.488-.1.1.1v.1l-.1.391.488-.2v.1l-.2.293v.1h.1l.781-.1.293.1q0-.293,1.465-.586v.293A8.737,8.737,0,0,1-54.48-5.273a5.056,5.056,0,0,1,2.148-2.051l.2-.391h-.1a1.341,1.341,0,0,0-.684.488l-.2-.2.879-1.27v-.391l-.1-.1-.488-.391v-.1l.293-.488v-.1q0-.488-.293-.488l.1-.488v-.2l-.488-.1.586-.684-.2-.293.1-.391a.523.523,0,0,1-.586-.391l.391-.879-.2-1.074.391-.391v-.2h-.1l-.293.1v-.488l.586-.977-.1-.293.293-.488v-.1l-.488.1h-.1v-.1l.977-1.172h-.1l-.293.1-.1-.1v-.1a5.634,5.634,0,0,1,.977-1.465l.1-.488-.1-.1v-.1l.781-1.074-.391-.586a1.828,1.828,0,0,0,1.074-1.562l.1-.1q0-.2.781-.488l.1-.1-.1-.1v-.2q0-.2.391-.2a.626.626,0,0,1,.391-.586h.2l.391.2.293-.1.586.684-.391.879.391.1-.391.586a1.1,1.1,0,0,1,.879.293l-.488.684.488.2v.391l-.1.1.1.1v.293l-.391.684.1.391h-.1l.1.1v.2l-.293.293.488.684-.488.879v.1h.1l.293-.2.2.2q0,.269-.684.684l.1.1v.2a1.125,1.125,0,0,0-.293.684q.391.146.391.293v.1l-.391.586.2.391a1.454,1.454,0,0,1-.488,1.172l.1.1v.1l-.1.1v.1l.2.879-.488.879-.879,1.074a1.956,1.956,0,0,1-.586,1.27l.2.391L-49.988-8.2l.1.1a1.116,1.116,0,0,1,.684.781q.293,0,.293.2l-.1.1q.391.146.391.293l.684-.1h.2l1.074.1q.366,0,1.074-.781a.971.971,0,0,0,.879-.586v-.1H-45.1v-.1q0-.244.879-.391,0-.171,1.172-.781.439-1.27.879-1.367l.391.1.293-.1-.1-.391.488-.781v-.1h-.293v-.2l.1-.1q.464,0,.977-1.074.171,0,.684-.684h-.488v-.1l1.563-1.367-.1-.488.2-.2h.2l.1.1a1.877,1.877,0,0,0,.879-1.562,2.1,2.1,0,0,0,.879-1.367q.366,0,.684-.879l.1-.1h.391l.1.1h.1l.1-.1v-.2l-.391-.488V-21l.781-.1.1.1q0-.244.586-.586l.2.2v.1l-.293.391v.1q.293,0,.293.2v.391q0,.366-.879,1.367l-.1.293.1.1v.2a1.78,1.78,0,0,0-.781,1.27q0,.391-.977,1.074,0,.659-1.172,1.855l.2.2v.1l-.781.879h-.1q0-.293-.2-.293a4.869,4.869,0,0,1-1.367,2.246.8.8,0,0,0-.293.684q-.513.586-.781.586-.439,1.27-1.074,1.27L-43.933-6.25a1.8,1.8,0,0,1-1.66.977,3.815,3.815,0,0,1-2.148.684V-4.98l-.684.586q-.2,0-.2-.293l-.488.1-.1-.1v-.1l.1-.1v-.1q-1.074,0-1.074-.293l.1-.488h-.1l-.586.293-.1-.586h-.2a3.548,3.548,0,0,0-1.074,1.563h-.391v-.2h-.1a2.621,2.621,0,0,0-.879.879l.1.1v.293a1.887,1.887,0,0,1-1.367.781q0,.317-.781.488a1.639,1.639,0,0,0-.684.879l-1.172.391h-.1l-.1-.1a2.8,2.8,0,0,0-1.562.684l-.1-.1h-.1l-.586.2a2.513,2.513,0,0,1-1.27-.391q-.269,0-.391.586h-.1l-.2-.2.293-.391v-.1l-.488-.2-.684.1-.1-.1v-.1l-.488.2q0-.537-1.172-1.074h-.488a1.166,1.166,0,0,0-.293-.781l.1-.1v-.1q-.586,0-.684-.781l-.1.1H-66.3q-.22,0-.293-.488l.1-.293h-.1q-.391,0-.391-.293v-.1l.1-.488q-.391,0-.391-.2V-6.25q-.391,0-.391-.2.293-.1.293-.586l-.488-.781.2-.586v-.293q-.391,0-.391-.2l.2-.781-.1-.1v-.1l.2-.586q-.488,0-.488-.977.293,0,.586-1.562l.2-.586h-.488v-.684l.391-.977-.391-.1v-.2q.439-.586.684-.586v-.293a1.647,1.647,0,0,1,.293-.977l-.1-.1v-.1l.293-.391v-.1l-.293-.391v-.488l.488-.488v-.1l-.1-.488.1-.1h.1l-.1-.1v-.1l.1-.1-.1-.1v-.2a2.369,2.369,0,0,1,.684-1.172l-.1-.391.488-.586v-.1l-.2-.293.488-1.367q.464-1.953.684-1.953l-.1-.1v-.1l.684-1.172h-.293v-.2l.586-.586-.1-.391a2.067,2.067,0,0,0,.684-.781v-.1l-.1-.488q.293,0,.293-.488h-.1l-.2-.2A6.077,6.077,0,0,0-62.1-32.617l-.2-.2q.171-.879.391-.879h.2q0,.391.2.391h.1l-.1-.1v-.391l.293-.391v-.1l-.2-.293v-.1l1.172-1.074q-.2,0-.2-.293l.2-.586-.2-.293v-.1a4.054,4.054,0,0,0,1.172-1.953,1.01,1.01,0,0,1,.977-.586v-.2q-.244,0-.293-.488,0-.2.781-.879l.2-.391-.1-.293a5.037,5.037,0,0,1,1.367-1.66l-.293-.1-.293.1v-.1a3.024,3.024,0,0,1,1.27-1.367l.781-.977-.293-.293q0-.464,1.27-.879l.1-.293-.1-.293q.22-1.074.879-1.074l.391-.586h-.2v-.2q0-.293.586-.293.537-1.074,1.172-1.074a4.621,4.621,0,0,1,1.172-1.562h.1l.293.1q.317-1.074.684-1.074Q-48.23-53.662-48.23-54Zm-4.59,8.2v.1l.1.1v.1q-.464,0-.586.977l-.781.586.1.1v.2l-.977,1.66.2.2q-.928,1.66-1.172,1.66l-.2.586-.1.1v.1l.2.293a1.213,1.213,0,0,0-.684.977l.2.2-.684.586v.2h.2l.293-.2h.2v.2q-.415.684-.586.684v-.293q-.244,0-.488.879l.1.1v.1l-.488.879v.2q.293,0,.293.2a3.4,3.4,0,0,0-.684,1.27l.1.586a4.234,4.234,0,0,0-.977,1.563l.2.586q.293,0,.293.2l-.684.684.2.586q-.22,0-.391.684l.1.391v.1l-.488.684.1.1v.1l-.781,1.465h.293a1.125,1.125,0,0,1-.293.684l.1.488a.818.818,0,0,0-.586.781l.293.293-.391.488.293.586v.2l-.1.1.1.1v.1A2.017,2.017,0,0,1-62-20.7l.1.1v.293l-.1.1v.1l.293.293v.1l-.2.879.293.293v.1l-.879,1.27a.529.529,0,0,0,.391.391.927.927,0,0,1,.977-.586l.2-.684-.488.391h-.1l.2-.879h.293v.293h.1a4.972,4.972,0,0,1,1.172-1.27l-.2-.781q.244,0,1.172-1.074l.684-.488v-.1h-.2q1.563-1.343,1.563-2.344l-.2-.2a3.23,3.23,0,0,0,1.074-1.562l-.1-.293,1.465-1.66.1-.1-.2-.293v-.1l.391-.488-.1-.488.684-.488v-.1l-.2-.2.293-.488-.1-.781,1.074-1.66-.2-.586q.439-.2.488-.391l-.1-.293q.171,0,.293-.879l.293-.293v-.586h-.2l-.391.293h-.2v-.2l.391-.293-.1-.293.879-1.172-.586-.488.684-.684-.1-.586.1-.1v-.1l-.293-.2a1.735,1.735,0,0,1,.391-1.074v-.1q-.293,0-.293-.2.244,0,.391-.781l-.2-.293.1-.391h-.293v-.2a1.363,1.363,0,0,0,.293-.879l-.293-.293.2-.293v-.1l-.293-.391.1-.977-.391-.293.2-.586h-.1Zm2.93,13.184h.1v.1l-.2.2h-.1v-.1ZM-63.464-29.98l.2.2v.1h-.391v-.1Zm5.566,7.031h.2v.1l-.293.293h-.2v-.1Zm5.957,1.465.1.1v.1l-.1.1h-.1l-.1-.1v-.1l.1-.1Zm13.281,6.152-.2.293h.391v-.1Zm-3.125,6.348-.1.293h.1l.2-.2v-.1ZM-45.2-5.762h.2l.293-.1v-.293Q-45.154-5.957-45.2-5.762ZM-56.726-1.953l.2.2v-.2Zm33.3-25.879h.2l.488-.1q.2.439.391.488h.1l.977-.2q0,.2.488.2l.1.293.391-.2.1.1v.1l-.1.293.2.2.1-.1h.293q.342.391.586.391l.293-.293.2.2-.2.586h.1l.1.1.1-.1h.2q.317.1.586,1.074.635,0,.977,1.27a.937.937,0,0,0,.684.293v.391l-.1.1.1.1v.1l-.1.488.586.2v.2l-.2.293v.2h.2v.391a.518.518,0,0,0,.586.586v.2l-.488.586v.1l.684.391v.1l-.1.1v.1l.1.391a3.8,3.8,0,0,1-.684,1.367,2.014,2.014,0,0,1,.293,1.27l-.391.781v.1l.1.391-.2.488h.293v.2l-.684.977v.1h.2v.2q-1.27,1.489-1.27,2.051l.1.293a6.064,6.064,0,0,0-.977,1.465q.122.684.684.684,0,.269.879.391l.1.293.684-.391h.1l.1.1h.1A1.788,1.788,0,0,1-14.343-8.2q0-.439,1.074-.781v-.488q.073-.293.684-.488l.293.1q.464,0,.586-1.27a2.369,2.369,0,0,0,.977-.781q0-.366.781-1.172l-.1-.1v-.2l.2-.2.2.2.2-.2-.1-.1q.024-.244.684-.684l-.1-.1v-.391l.1-.1v-.1l.1.1h.2q.879-.122.879-1.172L-8-16.6q1.27-.171,1.27-.977a.622.622,0,0,1,.586-.293,2.907,2.907,0,0,1,.879-1.367l-.1-.488q.293,0,.293-.391.684,0,.684-.586.415-.488.684-.488v-.391h-.2v-.1l.391-.391.488.1q0-.146.391-.293l.1.1v.1l-.293.879.293.293q0,.293-.391.293l.1.586a6.344,6.344,0,0,1-1.367,1.758q.488.024.488.293l-.586.586.1.293-.1.1h-.1l-.293-.1a14.781,14.781,0,0,1-1.953,2.246l-.1.1v.1h.1l.488-.2.1.1v.1l-.488.488-.488-.1L-8.191-12.6l-.1-.1-.684,1.172.1.293a2.008,2.008,0,0,0-1.367,1.465l.293.1q-.122.464-1.66,1.367a10.891,10.891,0,0,1-3.418,3.32l-.391-.1q0,.415-1.27.977h-.1l-.293-.2h-.2l-.293.2h-.2l-.391-.1-.586.391h-.2l-.1-.586-.684.1a.518.518,0,0,0-.586-.586l-.391.1v-.1l.2-.488-.293-.2a1.655,1.655,0,0,0-.293.879q-.586,0-.586.879l-.781.586h-.1v-.293q-.146,0-.879.977h-.2l-.1-.1q-1.66.928-1.66,1.172l-.977-.2a1.541,1.541,0,0,1-.488.781h-.293l-.1-.1a2.324,2.324,0,0,1-1.074.586L-28.7-.684A1.33,1.33,0,0,1-29.578,0h-.2q0-.2-.488-.2,0-.293-.2-.293h-.391l-1.27.391V-.2L-32.7,0h-.1V-.293l.1-.1v-.1h-.2l-.488.391-.2-.2.1-.391-.684.1h-.391V-.879l.1-.1v-.1l-1.855-.293-.1.1-.1-.1v-.1l.1-.293h-.1l-.293.2a1.984,1.984,0,0,0-1.172-1.172,3.1,3.1,0,0,1-.781-1.172l-.2-.2v-.586h-.586v-.1l.1-.1-.488-1.172.1-.1-.2-.2.1-.1v-.1l-.293-.293v-.488l.1-.1v-.1q-.2,0-.684-.977l.293-.586-.1-.391v-.1l.2-.293-.488-.684a1.125,1.125,0,0,0,.293-.684v-.2q-.391,0-.391-.2.732-.464.781-.781l-.293-.293.488-.781h-.2v-.2l.684-.586-.2-.586q.146-.391.293-.391l-.1-.1v-.293q.464-1.465,1.172-1.758l.293-.1-.1-1.172q.562,0,1.27-1.758l.1-.1h.586q0-.562,1.855-2.148A5.194,5.194,0,0,1-33-24.219l.391.1.2-.391h-.2V-24.8h.293v.2h.2a9.284,9.284,0,0,0,2.148-1.953l.488.1h.391a2.707,2.707,0,0,1,1.074-.781l.488.1.391-.2.488.1.1-.391.293.1,1.465-.391.391.293.977-.586Zm-1.562,2.441-.1-.1h-.1l-.293.1-.586-.1a3.326,3.326,0,0,1-1.465.879q0,.464-.879.781,0,.171-1.172,1.172,0,.562-.977,1.074l-.1.293.2.2-.2.2h-.1v-.2h-.293l-.586.586v.1l.1.1v.1q-.2,0-.391.586l.2.391a1.5,1.5,0,0,1-.977,1.465l-.488.977.293.293-.391.391.391.488-.1.1h-.1l-.1-.1h-.1l-.1.1.1.1v.2a1.65,1.65,0,0,0-.781,1.465l.2.2v.1l-.684.684.391.1v.2q-.757.781-.977.781v.1q.293,0,.293.391.293,0,.293.2v.391l-.488.684q.684.122.684.293-.879.854-.879,1.367l.1-.1h.488l.2.2a2.322,2.322,0,0,1-.488.977l-.1.391q.488.22.488,1.074l-.1.1.586.1v.391l-.1.1.2.684-.1.293.1.1h.1l.293-.1.293.488v.684h.488l.2.2.1-.1h.488v.1l-.1.293h.1q.391,0,.391.293.073.293.781.293a2.018,2.018,0,0,0,.977-.488h.2q.2,0,.2.488a5.022,5.022,0,0,1,1.465-.879l.1.1v.1q.659,0,.977-.977.537,0,1.172-1.074.2,0,1.074-1.172l.391-.2.1.1v.2l-.1.1v.1h.2l.684-1.758-.1-.1v-.1q.122-.488.293-.488h.488l.391-.684a1.489,1.489,0,0,0-.586-.879v-.1l.2-.293q0-.293-.391-.293l.293-.781q-.2,0-.2-.293l.2-.586-.2-.391.1-.1v-.1l-.1-.586q.2-.488.586-.488l.1-.684-.1-.391.586-1.66.2-.2q-.293,0-.293-.2,1.074-.952,1.074-1.172l-.1-.293.293-.391-.2-.2.586-.879q.537,0,.977-1.465l-.391-.293a1.422,1.422,0,0,0,.488-.879l-.488-.391.1-.1v-.2l-.1-.1v-.1l-.1.1H-20.2l-.1-.1h-.1l.1-.1v-.293l-.586-.781.2-.391q-.488,0-.586-.684l-1.172-.391-.586.293-.2-.488-.488.1-.293-.391-.879.781Zm9.668,3.906h.2v.2l-.2.2h-.2v-.2Zm-23.828,3.906h.293l-.2.2h-.1Zm29.3,3.613h.2v.2ZM-7.6-12.891h.1v.2q-.342.684-.488.684h-.293v-.1A1.264,1.264,0,0,1-7.6-12.891ZM-21.96-4.59h.2v-.2ZM.305-27.148H.793v.2h.1l.684-.1.2.2h.488v.2a1.9,1.9,0,0,0-.586.977l.1.1v.1l-.2.488h.293v.2l-.2.293q.2,0,.2.293a1.88,1.88,0,0,1-.684.879l.2.488-.586.488.1.1v.1l-.2.391.1.1v.391a.8.8,0,0,0-.293.684q-.342,0-.488.781l.1.391-.781,1.074v.1q.293,0,.293.2v.488q.293,0,.293.2v.1l-1.367,1.66-.293.684h.1l.2.2v.1l-.684.684q.146,0,.293.391L-2.527-12.4l.2.684-.977,1.367h.1l.293-.1v.1l-.293.488.1.1v.1l-.488.684v.2l.2.293q-.781.439-.781.586l.2.2a1.151,1.151,0,0,1-.586,1.172v.1l.391.586-.2.2-.293-.2-.1.293q.122.488.488.488v.2l-.391.391.684.684q0,.391.2.391l2.734-1.074A6.9,6.9,0,0,1,.793-6.25l.781-.586v-.1h-.2v-.391L2.551-8.691q.2,0,.2.293a2.273,2.273,0,0,0,.977-1.855l.586-.391.293.1a3.424,3.424,0,0,1,1.172-1.367,1.071,1.071,0,0,1,.391-.684v-.1l-.2-.293a2.085,2.085,0,0,0,.977-1.172,1.651,1.651,0,0,0,.879-1.27q1.66-.977,1.66-2.051l-.1-.1v-.1q0-.244.586-.586,0-.269.488-.293v-.1q-.293,0-.293-.2v-.1l.781-.586-.1-.293Q11.853-21,12.024-21q0-.171-.684-.684.293,0,1.367-1.367h.2v-.2q-.488-.073-.488-.293,0-.2.879-.488l.2-.391-.1-.293a.97.97,0,0,0,.488-.586h-.1q0-.659,2.051-1.465l.488.1.586-.2.1.1,1.172-.391h.2l.684.293-.293,1.172.1.293-.586.879v.1q.488,0,.488.2l-.781,1.172A2.031,2.031,0,0,0,17.3-21.68l.1.586L17-20.605q.391,0,.391.2l-.977.879v.1H17q0,.586-.879.977l.1.1v.293A4.3,4.3,0,0,1,15.54-16.5l.293.293a3.406,3.406,0,0,0-.879,2.148l-.293.2.1.488a2.262,2.262,0,0,0-.391,1.563q-.684.269-.684.586l.1.781a2.018,2.018,0,0,0-.488.977q.2,0,.2.293l-.2.488.1.1q-.293,0-.293.684l-.684.488a2.151,2.151,0,0,1,.293.977q-.244,0-.293.879l.488-.391q.2,0,.2.293a2.732,2.732,0,0,1-.781,1.172q.684.415.684.684l-.1.293H13l.293.2.879-.1.391.1q0-.293.586-.684h.586q0-.537.977-.684l-.1-.488q.024-.2.977-.488a4.136,4.136,0,0,1,1.27-1.465q0-.464,1.074-1.27a21.123,21.123,0,0,0,2.344-3.32q.83,0,1.172-1.465l.586-.2v-.1l-.2-.293q0-.513.684-.879a1.822,1.822,0,0,0,.391-.879h.1l.1.391h.1q.146,0,.391-.781l.391-.2-.1-.1V-16.5l.879-.879v-.391h-.1l-.1.1h-.1v-.1l.781-.684q0-.415.879-.879l.1-.293-.1-.293q1.855-1.538,1.855-2.246h.2l.1.1h.1l-.2.391.2.391.1-.1h.2v.1a5.547,5.547,0,0,0-.879,1.66l-.391.391q.586.1.586.293l-.684.391L28.137-16.6l-.1.1a.7.7,0,0,0-.2.586q-.415.1-.684.977-.562,0-.781.977-.586.342-.586.684l.1.293-.684.684.1.391-.1.1h-.1l-.391-.2-.391.586.1.293q-.684,0-1.27,1.855,0,.415-.879.586,0,.366-.586.781,0,.464-.977,1.172-.073.586-.391.586v.1q.391,0,.391.2a4.706,4.706,0,0,1-1.367.781A2.149,2.149,0,0,1,18.372-4q-.317.1-.684.977h-.2l-.1-.1q-1.074.464-1.074.977-.244.049-1.074.977l-1.562.781-.391-.2A.824.824,0,0,1,12.61-.1l-.1-.1h-.1l-.293.1V-.2l-.1.1h-.1l-.391-.1-.2.2h-.1q-.2,0-.2-.293-.586,0-.586-.2l-.488.1-.1-.1a.614.614,0,0,0-.488-.2l-.1-.488H8.7l-.2-.2v-.684q-.488,0-.488-.2l.2-.586a.783.783,0,0,1-.684-.879q0-.2.293-.2v-.2a1.115,1.115,0,0,1-.391-.879l-.1.1h-.2v-.293q.342,0,.781-2.246.2,0,.684-1.172l-.293.2h-.1l-.2-.2a1.416,1.416,0,0,0,.586-1.367v-.391q-.293,0-.293-.2l.293-.2h.1v.293h.1l.2-.2-.1-.1H8.8l.488-.977q-.391-.146-.391-.293v-.1q0-.244.781-.488l-.1-.488.586-.586-.2-.586q-.2,0-.781.781-.293,0-.293.586l-.684.293v-.1q-.269,0-.488.488l.1.1.1-.1h.293v.293q0,.146-.977.879a2.47,2.47,0,0,1-1.172,1.27l-.293.488.1.1v.1q0,.2-.977.977a4.015,4.015,0,0,1-.781,1.465h-.1v-.293h-.1q0,.293-.977,1.172a.787.787,0,0,1-.391.586q0,.537-.781.586L.4-3.125v.1H.793v.1l-.2.2-.293-.2q-.781,0-2.148,1.563A7.857,7.857,0,0,0-3.992-.1h-.1l-.2-.2-.1.1h-.1l-.1-.1-1.465.2L-7.214-.586l-.293.1v-.1q0-.2-.293-.2l-.488.1q-.269-.781-.488-.781l.2-.488h-.1l-.781-.293v-.2l.1-.391-.1-.1v-.1l.1-.488h-.1l-.391.1v-.2l.488-.879-.488-.684a1.558,1.558,0,0,0,.586-1.367l.2-.2-.2-.293-.293.1-.1-.1v-.1a2.206,2.206,0,0,0,.781-1.953l.586-.879v-.2q-.488,0-.488-.2v-.1l.488-.488h.1l.1.1H-8l.2-.293v-.1l-.293-.391a10.625,10.625,0,0,1,1.465-2.734l-.391-.586v-.1h.293v-.2l-.2-.293v-.1q.024-.171.781-.586l-.1-.488.488-.781-.1-.488a1.626,1.626,0,0,1,.586-1.074l-.1-.391q.2-.439.391-.488l-.1-.1v-.391a1.921,1.921,0,0,0,.293-1.074q.366,0,.586-1.66.391-.2.391-1.074l.488-.684a2.472,2.472,0,0,1,.391-1.172l-.2-.2.586-.488q.2,0,.2.586h.2l.1.1.1-.1q.122-.488.293-.488h.293l.293.2.781-.488.2.2v.1l-.1.1v.1h.1Q.305-26.465.305-27.148Zm2.051,1.27v.1l-.2.2-.1-.1v-.1l.1-.1Zm26.66,4.1h.1l.2.2-.1.1h-.2Zm-29.98,4.59.2.2.1-.1v-.391ZM8.8-16.8l.1.1v.293H8.8l-.2-.2ZM-.183-2.637l.2.2-.684.586h-.2v-.2ZM36.438-37.891h.293a1.169,1.169,0,0,0,.488.879l.1.586v.293l-.1.1.1.1v.391q0,.171-.586.488l-.391.977v.1q0,.2.293.2a2.436,2.436,0,0,1-.2,1.074l.1.1v.1a2.136,2.136,0,0,1-.684,1.172l-.293.488.2.2v.293l-.391.977.1.488a2.5,2.5,0,0,0-.586,1.172l.2.2v.293q-.342.684-.488.684l.1.488-.2.2.293.586,1.27-.488.293.293.586-.1.293.1.2-.2h.1l.879.781v.2l-1.074,1.172q.293,0,.293.2a1.822,1.822,0,0,0-.879.391h-.1q-.2,0-.2-.586l-.586.2-.391-.1-.293.1-.293-.1-.488.293H33.9l-.1-.1h-.1l-.2.391.2.488-.781.879-.1.293q.293.1.293.586h-.1l.2.488-.781.488.1.1v.1q0,.488-.2.488l.2.586-.781,1.27a1.179,1.179,0,0,0-.488.781l.391.2v.293l-.391.391.1.293-.586,1.758-.293.391.1.293-.391.488.391.293v.2a4.055,4.055,0,0,1-.879,1.27v.1l.293.293-.586.781.1.293a3.5,3.5,0,0,0-.684,1.758v.2q.293,0,.293.2v.1q-.049.2-.488.391l.293.684-.391.684.1.1v.1l-.2.293q0,.488.586.684v.1l-.1.488h.1l.391-.1.293.488h.1q.2,0,.2-.293l.1-.1h.293v.293h.1l.586-.2h.2l.293.1v-.1q0-.122.879-.391l.684-.586q0-.342,1.563-1.172,0-.22.781-.488l.1-.293-.2-.2L37.9-8.5l.1-.1v-.1l-.293-.1-.1.1h-.2v-.1l.781-.684h.293l.1.1h.1q.684-1.416.977-1.465l-.1-.1v-.1l.781-.684q0-.269.781-.977v-.1l-.2-.293q.391-.879.977-.879l-.1-.1v-.293q0-.171.684-.293v-.2h-.2v-.293a3.131,3.131,0,0,1,1.465-1.074V-16.5l-.2-.293q.415-.122,1.27-1.66.122,0,.2-.781l-.2-.2q.049-.22,1.27-.879,0-.2.586-.684a.824.824,0,0,1,.488-.684h.2L47.083-21q.293,0,.391.781-.22,0-.391,1.172-.2,0-.391.781-.586.024-.586,1.172l-.684.684h.391q0,.586-.879.879a2.379,2.379,0,0,1-1.172,1.27l-.1.391a.259.259,0,0,1,.293.293l-1.27,1.66q-.879.269-.879.586l-.293.781.1.293A3.818,3.818,0,0,0,40.149-8.3q-.562,0-3.32,3.418,0,.293-1.074,1.172,0,.244-.879.684v.2h-.1l.1.1v.1l-.293.391h-.1l-.293-.2-.684.586h-.1l-.1-.1h-.1A3.19,3.19,0,0,1,30.872-.586,1.189,1.189,0,0,1,30.09-.2l-.2-.2L29.5,0l-.879-.2-1.27.2q0-.22-.977-.488,0-.244-.488-.293l-1.27-.781q-.2,0-.2-.293l-.1-.391-.1-.1h-.1l-.391.1v-.2h.391v-.1l-.391-.684v-.1l.2-.293-.2-.2V-4l.1-.293h-.488v-.2l.2-.977h-.2v-.2a3.551,3.551,0,0,0,.488-1.465v-.1l-.391.2-.1-.1v-.1a3.674,3.674,0,0,0,1.172-1.66v-.2h-.1l-.488.2-.1-.1v-.1l.977-1.367v-.1h-.1l-.293.2v-.1a1.329,1.329,0,0,0,.2-.879.529.529,0,0,0,.391-.391h-.2v-.2a2.151,2.151,0,0,0,.684-1.562q.171,0,.293-.586l-.1-.391.391-.391v-.1l-.293-.391a5.46,5.46,0,0,0,.977-1.953h.1l-.293-.488v-.1l.488-.879-.1-.1v-.1l.488-.684-.293-.488v-.293q.586-.366.586-.684l-.1.1h-.293v-.2l.684-.586v-.1q-.391,0-.391-.293l.391-.488v-.293l-.586-.586v-.1h-.2l-.684.488-.488-.1h-.293v-.293l-.293.1-.879-.1-.2.2h-.2l-.293-.293v-.684a.691.691,0,0,0,.781-.781l.977-.586h.293l.488.488.1-.1h.684l.293.293q1.172-.2,1.172-.879.977-.391.977-1.953.22,0,.488-1.66l.2-.2-.1-.488.1-.1v-.1l-.1-.586q.293,0,.391-.879l.879-.977-.1-.293.1-.391-.1-.391q.171,0,.879-1.758l-.1-.488q.415-.854.586-.879h.2l.293.2h.1l.977-.293q0-.244.879-.586l.293.781ZM34.192-26.367v.1h.2v-.1Zm-8.984,12.7h.1v.2h-.1Zm61.45-13.77h.2q.2,0,.2.293l.1.1h.1l.586-.1.1.1h.1l.586-.293.1.1v.1l-.1.1.293.2H89l.488-.1q0,.488.391.488l.293-.1v.1q0,.488.391.488.2.488.586.488v.1l-.2.684.391.781-.488,1.172q.488.122.488.293a1.125,1.125,0,0,1-.293.684l.2.2v.1a2.653,2.653,0,0,0-.781,1.66h.2v.1a1.245,1.245,0,0,0-.391.684l.2.2-.2.2v1.074l-.684.684v.1l.1-.1h.2l.2.2v.391L89.1-14.844v.293h.1l.293-.1.1.1v.293l-.684.1v.2l.1.684h.293q0-.293.684-.684l.684-.781-.2-.488,1.27-1.562a3.819,3.819,0,0,1,.781-1.27,5.245,5.245,0,0,0,1.074-1.855q.342,0,.781-.781l.879-.977q.293,0,.781-.684.317,0,.586-1.27l.1-.1h.293l.1.1h.1l.391-.391-.1-.1v-.2q1.636-1.147,1.66-1.66l.684.1h.2a.569.569,0,0,1,.391-.586l.1.1h.1q0-.293,1.074-.488,0-.122,1.465-.488l.1-.1h.684v.2a.616.616,0,0,1,.488.293l.684-.391h.2q0,.464.879.977v.1l-.1.293h.1q.488,0,.488.293l-.1.1v.1l.293.391h.586v.2a1.125,1.125,0,0,0-.293.684q.2,0,.2.293l-.1.293.293.293v.684l.1.391-.488,1.074.1.293a3,3,0,0,1-.586,1.758,1.245,1.245,0,0,1-.391.684v.1q.488.073.488.488l-1.074.977v.1l.391.1-.879,1.758.1.391-.1.293h.1l.1.1h.1q-.244,1.367-.879,1.367l.1.488q-.391.171-.781,1.172l-.293.293v.1q0,.2.391.2v.1a1.329,1.329,0,0,0-.2.879h-.1l.1.1v.1l-.293.293h-.1l-.1-.1h-.1l-.1.293.1.1v.1l-.2.391h.293a2.3,2.3,0,0,1-.781,1.367l.586.586-.586.684q.1.781.488.781l-.1.488v.1a1.558,1.558,0,0,1,.879.391h.1l.391-.293.586.293a4.246,4.246,0,0,0,1.563-1.074l.488.1a5.611,5.611,0,0,1,1.563-1.758q.049-.61,1.27-1.66,0-.293.391-.293.244,0,1.172-1.172v-.1q-.293,0-.293-.2,0-.415,1.367-1.465a2.407,2.407,0,0,0,.488-1.27,11.7,11.7,0,0,0,2.344-2.344q.488,0,.488-.2l-.2-.2v-.2a8.813,8.813,0,0,1,1.367-1.66l-.1-.1v-.391l1.563-1.855-.1-.1v-.1q0-.293.684-.293,0-.488.781-1.074h.2a.345.345,0,0,0,.391.391v.2l-.2.293.2.391a2.852,2.852,0,0,0-.391,1.367q-.562,0-.586.684l-.879,1.074.1.391a3.043,3.043,0,0,1-1.367,1.465l-.2.293.1.1v.293l-.2.293v.1h.2v.293q0,.146-.879.488,0,.293-.488.293v.1h.293q0,.757-1.367,1.563v.2l-.1.1.293.293-.293.2h-.2l-.1-.1h-.1l-.2.2v-.1l-.293.1v.1q.293,0,.293.2v.1q0,.2-.879.586l.1.1q0,.708-.879,1.074l-.586.977v-.1q-.464,0-.977.977l.293.1v.1a.626.626,0,0,1-.586.391v-.1l.1-.293h-.1q-.391.146-.391.293v.1h.391v.1A3.152,3.152,0,0,0,108.826-4l-.586.391q-.415,0-.879.781-.171,0-1.172,1.074l-.586-.1-.2.781-.293-.1A5.427,5.427,0,0,0,103.65-.2l-.879-.488L101.111,0h-.391l-.1-.586.1-.1-.293-.2a.817.817,0,0,1-.781.488h-.1v-.1l.293-.391v-.2l-.293.2h-.2v-.1l.2-.293a3,3,0,0,0-1.367-.781v-.1l.1-.488q-.464,0-.781-1.172L97.3-4q.586-.61.586-.879h-.1L97.3-5.273q0-.2.977-.977l-.2-.2-.293.2h-.2v-.1l.2-.293-.1-.1v-.1a1.26,1.26,0,0,1,.391-.781h-.2V-7.91l.2-.2-.1-.1V-8.5a1.069,1.069,0,0,0,.391-.781q.22,0,.391-.977l.293-.1v-.1l-.2-.293a5.534,5.534,0,0,0,.781-2.539l-.2-.2a4.15,4.15,0,0,0,.781-1.66q.586-.1.586-.293l-.2-.391.2-.586v-.1h-.1l-.293.1-.1-.1v-.1l.781-.488-.1-.1v-.1q.024-.488.2-.488l-.1-.1v-.391a2.067,2.067,0,0,1,.781-.684l-.1-.1v-.1l.1-.391q-.049-.391-.293-.391v-.293a3.161,3.161,0,0,0,1.074-1.27,1.125,1.125,0,0,1-.293-.684l.391-.781-.391-.293v-.1l.1-.1q0-.293-.488-.293a.432.432,0,0,0-.488-.488l-.488.293h-.1l-.293-.2q-2.734,1.416-2.734,2.344l-.684.586.1.488-.293.2q-.2,0-.2-.391h-.1q-.2,0-.2.488-.2,0-.2.488h-.2q-.1.684-.684.684-.317,0-.488,1.27a1.968,1.968,0,0,0-.977,1.465q-.391,0-.391.781a14.5,14.5,0,0,1-2.051,2.344v.2h.293v.1a2.374,2.374,0,0,1-1.27.977l-.2.293.1.1h.1l.2-.2h.2v.2a1.8,1.8,0,0,1-1.074.879v.1l.1.488q-.2.024-.879,1.172a1.87,1.87,0,0,0-.586,1.172q-.415.488-.684.488l-.2.977h.2v.1l-.781.684h.293v.293q-.684.562-.684.977a6.126,6.126,0,0,1-1.465,2.344Q85.022-.684,83.826-.684l-.1.1-.391-.1-.293.1a.259.259,0,0,1-.293-.293h-.1a2.185,2.185,0,0,0-1.074.586A2.142,2.142,0,0,1,80.7-.977q.22,0,.293-.488h-.2l-.391.293h-.1v-.1l.391-.684q-.391-.146-.391-.293a2.7,2.7,0,0,0,.879-1.367h.1l-.1-.488a1.245,1.245,0,0,0,.391-.684l-.2-.488.2-.293-.1-.1v-.293a2.885,2.885,0,0,0,.684-1.27l-.488-.1v-.1L82.556-8.5v-.977q.684-.61.684-.879l-.293-.293.2-.293-.1-.1v-.1a1.613,1.613,0,0,1,.488-.977v-.2h-.2v-.1a1.774,1.774,0,0,0,.586-1.074v-.2q-.391,0-.391-.2l.684-1.074-.293-.391v-.2l.1-.1-.1-.1v-.2L84.7-16.8a1.6,1.6,0,0,1,.488-.879l-.1-.977.1-.293-.2-.2v-.2l.488-.781-.1-.1v-.2L85.779-21v-.293l-.2-.293v-.1l.684-.781v-.1h-.1l-.293.1v-.1l.293-.586q-.317-.977-.977-.977l-.391.1-.1-.293h-.1a3.385,3.385,0,0,1-1.074.781q0,.464-.684.586-.171.488-1.27.977,0,.244-.391.293a3.365,3.365,0,0,1-1.074,1.953,3.978,3.978,0,0,1-1.172,1.172q0,.22-.977,1.074v.1l.586-.391h.2v.2q0,.146-1.27.879v.2q.293,0,.293.2a9.669,9.669,0,0,0-1.465,2.148,3.4,3.4,0,0,0-1.27,2.344l-.586.586h-.488l-.293,1.074.1.1v.2l-.1.1v.1l.293.293-.293.2-.2-.2-.488.293v.1l.2.293L72.5-7.91l.2.2-.586.684v.2l.2.293v.1l-.977.781.1.488v.1q-1.074.854-1.074,1.367v.2h.2v.2l-.293.1.1.1v.293l-.977,1.27L68.3-.781h-.2l-.2-.488-.684.684-.586.1h-.1q0-.293-.2-.293l-.293.391-.1-.1h-.1l-.488.2q0-.22-.586-.684a1.008,1.008,0,0,0-.2-.684v-.2l.391-.488-.2-.293a4.571,4.571,0,0,1,.977-2.246l-.1-.488.586-1.074-.1-.1v-.1l.1-.391-.1-.391q.439-.2.488-.391l-.1-.1v-.1l1.172-2.93-.1-.391a1.61,1.61,0,0,1,.684-1.562h.1l-.2-.977.391-1.27-.2-.2.2-.2h.1v.2h.391l.1-.293q-.439-.2-.488-.391,0-.2.781-.684l.1-.488q-.293,0-.293-.2l.2-.586-.1-.391.684-.781-.293-.293v-.391a2.537,2.537,0,0,0,.879-1.66l-.2-.293a1.493,1.493,0,0,0,.488-1.074l-.1-.293.488-.488-.1-.488.1-.391-.2-.2.684-.781-.1-.488a5.023,5.023,0,0,0,1.465-.879h.1q0,.2.293.2l.586-.2.293.2,1.563-.586.2.2.293-.1.1.1-.1.1v.1l.2.586h.488v.1l-.391.488.2.684h-.1q-.488,0-.488.879l.1.1v.1l-.2.488.2.2-.586.781.2.2A3.466,3.466,0,0,0,75.33-20.7q-.293,0-.488.391v.2q.488.024.488.293l-.391.586.1.1v.293l-.293.488.1.1v.1a2.846,2.846,0,0,1-.977,1.66l.2.2-.2.781h.1a2.815,2.815,0,0,0-.684,1.27l.2.2-.391.488.2.293v.293q0,.2-.293.2l-.1.1v.1h.391q.684-.61.684-.879l-.293-.1v-.1l.1-.1-.1-.1v-.293q0-.171.977-.879,0-.488.2-.488l.1.1h.1l.586-.781-.1-.488a1.353,1.353,0,0,1,1.074-.684v-.293h-.293v-.391q0-.2.781-.586a3.254,3.254,0,0,1,.977-1.66l.1-.391V-21q1.025,0,1.367-1.758l.781-.488.293.1L82.166-25.2q0-.293.586-.293a3.3,3.3,0,0,1,2.051-1.27l.684-.488.391.1Q85.95-27.441,86.658-27.441Zm11.035,3.32h.1l.2-.2h-.1Zm-8.4,7.91v.2h.1v-.2Zm2.93,1.465v.1h.2v-.1ZM68.2-13.867l-.293.293-.1-.1v-.1l.1-.1Zm23.926.293h.1v.2l-.2.2h-.1v-.2Zm19.336,3.613.879-.879v-.1Q111.462-10.522,111.462-9.961ZM110.1-8.4v.2h.1v-.2Zm18.164-19.629.1.1v.1l.488-.1.293.2h.2l.293-.2h.2a.788.788,0,0,0,.586.293v.1l.879-.488.1.488.1-.1h.1a.891.891,0,0,1,.879.684v.488l.879-.293.391.1v.391l-.1.1v.1l1.074.586-.1.1v.293l.2.586q.391,0,.391.684h.2v.1l-.293,1.465q.293,0,.293.2l-.1.488.1.293-.488.391.293.391-.781,1.074.1.1q-.22,0-.586.586l.1.781a3.623,3.623,0,0,0-1.953,2.051q0,.293-.2.293h-.1l-.1-.1h-.1l-1.27,1.074q0,.391-1.27.879-.586.977-1.172.977l-.391-.1a2.873,2.873,0,0,1-1.758.879l-.488.488-.2-.2-.879.879a.909.909,0,0,0-.586.293h-.2l-.2-.2.1-.1v-.1h-.2q-.171,0-.879.977a2.8,2.8,0,0,0-2.246.977h-.2q0-.391-.2-.391h-.2l-.488.293-.2,1.66.1.391h-.1l.1.1v.586l.391.1v.879l.488-.1.1.1-.1.1v.1l.293.391v.1l-.2.293.1-.1h.1a2.023,2.023,0,0,0,1.172.684q0,.781.586.781l.391.2.586-.391q1.27.146,1.27.391l.586-.293.1.391.879-.2.391.1A5.343,5.343,0,0,1,127.478-4q.122.586.293.586l.781-.391q.049-.244.684-.488l.293.2a1.192,1.192,0,0,0,.879-.781l.781-.293q0-.293.2-.293l.391.1v-.1l-.2-.293.2-.2h.2l.293.2h.1Q134.9-8.105,134.9-8.5q0-.293.2-.293h.488q0-.537.781-.781,0-.415.781-.488l.1-.488h-.2v-.1q.61,0,1.367-1.27l.391-.293-.1-.1v-.1l.2-.2q.2,0,.2.293.2,0,.293-.781a14.251,14.251,0,0,0,2.148-2.832q.342,0,.586-.781l.1-.1h.1l-.1-.1v-.391q.977-.464.977-.684l-.2-.293v-.2q0-.2.781-.684l.488-.879a2.322,2.322,0,0,1,.488-.977q0-.61,1.074-.879h.2l.293.488v.1a4.583,4.583,0,0,0-.781,2.441l.2.2v.2l-.391.1-.293-.1v.1q-.22,1.074-.586,1.074h-.293v.1l.2.293v.2l-.684.879h.2v.1l-1.562,1.953-.293.293v.1h.293v.1q-.977.806-.977,1.074t-.977.488l-.391.586h.391v.2q0,.2-.781.293l-.1.1v.1l.2.293a2.962,2.962,0,0,0-1.27.977q-.635,0-1.367,1.855l-.781.684-.293-.1a1.62,1.62,0,0,0-.879.781l-.391.2.1.488a1.784,1.784,0,0,1-1.27.488l-1.367.879q0,.732-1.953,1.074-.684.317-.781.781a1.071,1.071,0,0,0-.684.391l-.879.488-.1-.391-.488.293.1.1v.1l-.2.2h-.1v-.1l.1-.1v-.1h-.2l-1.074.879h-.1l-.488-.488-.1.1h-.1l-.293-.2-.586.586h-.1l-.391-.1L123.181,0q-.879-.244-.879-.586l-1.66.488q0-.391-.586-.391l-.2-.293-.586.2q0-.488-.2-.488l-.684.2q0-.171-.684-.391l-.2-.586h-.684a2.044,2.044,0,0,0-1.27-.781q0-.684-.391-.684-.2,0-.293-.586-.122,0-.2-.586h-.293v-.684A1.558,1.558,0,0,1,114-6.055l.2-.2q-.2,0-.2-.488l-.391.1-.293-.1.391-.488v-.2h-.2v-.2l.293-.391-.1-.1v-.1l-.1.1h-.2l-.2-.2v-.1l.293-1.074-.293-.293.2-.293-.2-.879q0-.2.293-.2v-.2q0-.2-.488-.2v-.2a5.514,5.514,0,0,0,.977-1.66l-.2-.2v-.2a1.394,1.394,0,0,0,.586-1.074l-.1-.586q.244,0,1.074-2.344l-.1-.1v-.293h.1l.488.1-.1-.488.586-.879-.1-.1v-.488l.586-.293.293.1.293-.1v-.293h-.2q.537-.977.879-.977v-.1h-.391v-.1q.146-.391,1.27-.781,0-.635,1.074-1.074,0-.366,1.953-1.855l-.2-.293.1-.1h.1l.2.2h.1a2.953,2.953,0,0,1,1.855-.977v.2h.2a5.125,5.125,0,0,1,1.563-1.27h.293v.2h.1l.391-.293h.488l.2.2A1.881,1.881,0,0,1,128.259-28.027Zm-5.078,1.953v.2l.2-.2Zm-.2,3.418v.1l.2.293v.391a.626.626,0,0,1-.586.391l-.1-.1a1.329,1.329,0,0,0-.2.879q-1.05.952-1.074,1.172h.2v.293a1.842,1.842,0,0,0-.586,1.465q-.146,0-.293.879-.146,0-.391.684-.488.122-.488.293l.1.1v.1l-.293.488q0,.2.293.2v.1l-.293.293.1.1v.391l-.488,2.051-.391.488v.2q0,.2.391.2,0,.293.2.293,0-.244.879-.293v.1q.2,0,.879-.977h.1l.1.1h.1l.977-.391.488.1q.146-.391.293-.391l.391.293q.171-.586,1.465-1.172l1.66-1.66q.439,0,1.074-1.562l.1-.1h.391v.293q.684-.317.684-1.562h.1a.788.788,0,0,1,.586-.293l.293-.781v-.293h-.2v-.1a2.668,2.668,0,0,1,.684-1.27l-.1-.1v-.1a2.652,2.652,0,0,1,.586-1.172q-.586,0-.586-.684l.391-.391a1.654,1.654,0,0,0-.293-.879v-.1l.1-.1v-.1a.259.259,0,0,1-.293-.293l.1-.293-.293-.2-.293.1-.1-.1v-.1l.1-.1v-.1l-.586-.1-.1.1h-.1q-.879,0-.879-.488a2.939,2.939,0,0,0-1.367.586,4.752,4.752,0,0,0-2.441,1.953Q124.158-22.656,122.986-22.656Zm-4.59.781h.1l.2-.2v-.1Zm-4.687,8.4.2.2-.391.293h-.1v-.2Zm20.9,5.176h.2v.1h-.2Zm-8.5,7.324v.2h.1v-.2Z" transform="translate(146.348 81.918) rotate(-11.259)" fill="#8a6816"/></svg>