<svg xmlns="http://www.w3.org/2000/svg" width="316.384" height="71.48" viewBox="0 0 316.384 71.48"><path d="M-300.768-21.472c-1.312-2.112-4.512-3.36-6.72-3.9a.563.563,0,0,0-.192-.032c-.192,0-.288.1-.288.224a.449.449,0,0,0,.256.352c3.008,1.568,3.264,2.432,4.8,4.8a1.5,1.5,0,0,0,1.248.832,1.235,1.235,0,0,0,1.184-1.312A2.039,2.039,0,0,0-300.768-21.472ZM-289.92-8.608c-.416-1.92-2.368-4.736-5.664-6.592a.753.753,0,0,0-.256-.064c-.128,0-.224.064-.224.192a.762.762,0,0,0,.192.352,12.912,12.912,0,0,1,3.424,7.1c.192.96.672,1.344,1.184,1.344A1.678,1.678,0,0,0-289.856-8.1,3.193,3.193,0,0,0-289.92-8.608Zm-23.712-5.5c-.064-.544-.576-.544-.608,0-.384,4.9-2.048,5.952-3.3,7.456a1.85,1.85,0,0,0-.48,1.216,1.143,1.143,0,0,0,1.184,1.184,2.135,2.135,0,0,0,.9-.256c1.568-.832,2.528-3.168,2.528-6.56A20.944,20.944,0,0,0-313.632-14.112Zm18.144,12.448c-.672-.416-.96-.7-.96-3.04,0-.672,0-1.568.064-2.656v-.064c0-.192-.1-.288-.192-.288-.128,0-.256.128-.288.352-1.024,6.048-.928,6.016-3.232,6.368a26.922,26.922,0,0,1-3.168.128,27.31,27.31,0,0,1-3.3-.128c-.96-.128-1.28-.352-1.28-1.088V-16.192c0-.416.064-.8.544-.96.544-.192.768-.416.768-.608,0-.256-.288-.448-.736-.544-.928-.192-1.568-.256-2.432-.384a1.132,1.132,0,0,1-.192-.032c-.16,0-.224.064-.224.224a7.435,7.435,0,0,0,.16,1.024c.064.32.1,1.792.1,3.808,0,4-.1,10.048-.1,12.832,0,1.408,1.312,1.76,2.3,1.856s2.784.16,4.672.16a29.293,29.293,0,0,0,6.208-.448c1.28-.352,1.792-.992,1.792-1.568A1,1,0,0,0-295.488-1.664Zm38.464-20a1.741,1.741,0,0,0-.64-1.248,5.8,5.8,0,0,0-4-1.184h-.544c-.256,0-.416.064-.416.16,0,.064.128.16.384.256a7.272,7.272,0,0,1,3.648,2.3,1.2,1.2,0,0,0,.864.512A.718.718,0,0,0-257.024-21.664Zm-2.208,2.784a1.836,1.836,0,0,0-.48-1.184,6.3,6.3,0,0,0-4.48-1.728h-.1c-.288,0-.416.064-.416.16s.128.224.352.32a7.3,7.3,0,0,1,3.552,2.656c.32.48.64.672.928.672C-259.488-17.984-259.232-18.368-259.232-18.88Zm1.568,7.9c0-2.72-2.272-5.728-6.3-6.5a2.363,2.363,0,0,0-.384-.064c-.1,0-.16.032-.16.064,0,.1.1.192.352.32,2.56,1.5,3.68,3.04,3.84,5.152v.256a1.047,1.047,0,0,1-.8,1.152,12.706,12.706,0,0,1-2.912.8c-.448.064-.672.192-.672.288s.256.16.736.224c2.528.256,2.816.224,3.424.7.384.288.8.7,1.248.7.32,0,.64-.192.96-.736A4.422,4.422,0,0,0-257.664-10.976Zm-11.424-.864c0-2.88-1.376-4.736-4.48-4.736a8.771,8.771,0,0,0-1.536.128c-.544.1-1.056.192-1.536.256.32-1.056.64-2.016.96-2.848.416-1.184.96-1.472.96-2.176v-.064c-.064-1.024-1.376-2.4-3.648-2.4-.16,0-.288.032-.448.032-.352.064-.512.128-.512.224,0,.128.16.256.448.384a2.179,2.179,0,0,1,1.28,2.08,6.754,6.754,0,0,1-.064.832,38.025,38.025,0,0,1-.736,4.32c-1.152.256-2.24.544-3.328.768a7.978,7.978,0,0,1-1.5.192,2.673,2.673,0,0,1-1.536-.512.516.516,0,0,0-.288-.1c-.1,0-.16.064-.16.224v.128c.192,1.536,1.28,3.04,2.176,3.04a.545.545,0,0,0,.224-.032c.8-.288.288-.672,3.2-1.792.288-.1.544-.224.8-.32a36.256,36.256,0,0,1-4.8,10.72,3.658,3.658,0,0,0-.672,1.888,1.688,1.688,0,0,0,.48,1.248.782.782,0,0,0,.576.256c.7,0,1.376-1.088,1.984-2.336a110.7,110.7,0,0,0,4.192-12.416c.576-.192,1.184-.384,1.984-.576a5.784,5.784,0,0,1,1.568-.224c1.728,0,2.688.992,2.688,2.912a5.427,5.427,0,0,1-.032.7c-.512,4.288-1.568,7.2-2.944,8.832a1.078,1.078,0,0,1-.9.448,2.193,2.193,0,0,1-.7-.128,25.076,25.076,0,0,1-3.168-1.248,1.071,1.071,0,0,0-.448-.128c-.064,0-.1.032-.1.064,0,.064.128.192.352.416,1.664,1.536,2.24,2.272,2.4,3.424.064.48.608.9,1.408.9a3.226,3.226,0,0,0,2.272-1.12C-270.08-3.232-269.088-8.32-269.088-11.84Zm35.232-5.824h-5.312v-4h5.312Zm-12.576.032a3.142,3.142,0,0,0,.256.576c.1.16.16.192.288.192h.128a13.637,13.637,0,0,1,2.336-.16h5.888c0,1.024.032,2.208.032,3.424h-5.664s-1.472-.864-2.24-1.248a.866.866,0,0,0-.256-.1c-.064,0-.1.032-.1.16,0,.1.032.288.064.576.1,1.024.192,4.192.192,8.032,0,2.336-.032,4.96-.128,7.488v.224c0,.64.16.864.832.864h.16c.96-.032,1.024-.192,1.024-1.088-.064-3.68-.1-5.536-.1-6.848,0-2.08.064-2.848.128-7.424h6.08c0,3.072,0,6.4-.032,8.928H-239.9v-1.5c0-1.184,0-2.3.032-3.04v-.1c0-.288.032-.608.416-.736.416-.128.608-.32.608-.512,0-.16-.192-.32-.576-.416a14.166,14.166,0,0,0-1.92-.352h-.192c-.128,0-.16.032-.16.128,0,.128.064.448.128,1.12.032.256.064,1.472.064,2.944s-.032,3.2-.16,4.48a2.124,2.124,0,0,0-.032.416c0,.32.1.48.512.48a1.968,1.968,0,0,0,.416-.032c.768-.128.928-.224.928-.8v-.192c-.032-.384-.032-.8-.064-1.248h6.624c-.032.288-.032.576-.064.864,0,.128-.032.224-.032.32,0,.416.16.544.928.544.864,0,.928-.192.928-.768v-.224c-.032-1.536-.1-2.976-.1-4.224,0-.608.032-1.184.064-1.7v-.1c0-.288.032-.608.416-.736.416-.128.608-.32.608-.48,0-.192-.192-.352-.576-.448a14.077,14.077,0,0,0-1.92-.352h-.192c-.128,0-.16.032-.16.128,0,.128.064.448.128,1.12.032.256.064,1.344.064,2.656,0,.864-.032,1.824-.064,2.752h-2.464c-.032-2.56-.032-5.856-.032-8.928h6.24s.032,5.6.032,9.728v2.72c0,.416-.032.576-.448.576h-.224c-.64-.064-1.5-.064-2.176-.128h-.128c-.192,0-.288.064-.288.16s.128.192.32.256c1.28.352,2.208.512,2.3,1.76.032.192.1.256.224.256a.406.406,0,0,0,.192-.032c1.856-.384,2.048-1.12,2.048-2.144V-.224c-.032-2.24-.032-9.408,0-11.648,0-.384.32-.384.8-.64.32-.16.448-.352.448-.544a.557.557,0,0,0-.288-.416c-.416-.32-1.152-.8-1.568-1.088a.517.517,0,0,0-.32-.128.442.442,0,0,0-.288.16c-.224.224-.512.544-.7.7a.523.523,0,0,1-.512.224h-5.664c.032-1.216.032-2.4.032-3.424h9.952q.384,0,.384-.192a.433.433,0,0,0-.16-.288c-.32-.352-1.5-1.44-2.016-1.856-.1-.064-.16-.128-.224-.128s-.128.064-.224.16c-.224.288-.96,1.28-1.12,1.472a.531.531,0,0,1-.512.192H-232v-4h4.448c.288,0,.416-.1.416-.192a.339.339,0,0,0-.16-.288c-.32-.288-1.28-1.184-2.048-1.792a.63.63,0,0,0-.256-.128.231.231,0,0,0-.192.128c-.48.576-.832,1.024-1.12,1.408a.547.547,0,0,1-.416.224H-232c0-.544.032-1.024.032-1.408v-.1c0-.288.032-.608.448-.736.384-.128.576-.352.576-.512,0-.192-.192-.352-.576-.416-.608-.1-1.376-.224-2.176-.352a1.029,1.029,0,0,0-.256-.032c-.1,0-.128.032-.128.128,0,.16.1.512.192,1.152.032.128.032.96.032,2.272h-5.312c0-.544.032-1.024.032-1.408v-.1c0-.288.032-.608.448-.736.384-.128.576-.352.576-.512,0-.192-.192-.352-.576-.416-.608-.1-1.376-.224-2.176-.352a1.029,1.029,0,0,0-.256-.032c-.1,0-.128.032-.128.128,0,.16.1.512.192,1.152.032.128.032.96.032,2.272h-1.216a9.992,9.992,0,0,1-2.752-.288.814.814,0,0,0-.224-.064.085.085,0,0,0-.1.1c0,.064.032.1.032.16a3.584,3.584,0,0,0,.288.7c.1.16.16.192.288.192h.128a13.637,13.637,0,0,1,2.336-.16h1.216v4h-2.4a9.992,9.992,0,0,1-2.752-.288.348.348,0,0,0-.16-.032c.1-.352.192-.736.288-1.088,0-.032.032-.1.032-.128a.262.262,0,0,0-.256-.288c-.1,0-.192.064-.256.224C-248.16-14.72-250.3-8.8-251.136-7.04a1.33,1.33,0,0,1-1.472.9c-.32,0-.768-.032-1.312-.064h-.032c-.224,0-.352.128-.352.256s.128.256.384.288c2.016.224,2.4,1.5,2.4,2.912,0,.864-.128,1.824-.128,2.624,0,.864.16,1.568.864,1.856a1.627,1.627,0,0,0,.64.128c.736,0,1.344-.608,1.344-1.664a4.3,4.3,0,0,0-.48-1.792,6.491,6.491,0,0,1-.608-2.816,8.492,8.492,0,0,1,.32-2.208C-248.768-9.344-247.616-13.28-246.432-17.632Zm-2.944,3.1c-.128-1.28-1.536-2.688-4.512-3.52a.625.625,0,0,0-.224-.032c-.16,0-.256.064-.256.16,0,.064.064.16.192.256,2.24,1.632,2.144,3.232,2.816,4.032a1.1,1.1,0,0,0,.832.448,1.255,1.255,0,0,0,1.152-1.248Zm2.08-6.72c-.128-1.28-1.5-2.688-4.48-3.68A.545.545,0,0,0-252-24.96c-.16,0-.256.064-.256.16,0,.064.064.16.192.256,2.24,1.568,2.144,3.392,2.816,4.192a1.1,1.1,0,0,0,.832.448,1.252,1.252,0,0,0,1.12-1.248Zm51.52,7.68a1.376,1.376,0,0,0-.224-.7c-.672-1.216-2.944-1.984-5.248-1.984a7.76,7.76,0,0,0-4.16,1.088c-.192.16-.32.288-.32.352s.064.1.192.1c.064,0,.128-.032.192-.032a12.092,12.092,0,0,1,2.272-.224,7.63,7.63,0,0,1,3.072.544c.352.16.512.288.512.448,0,.1-.064.224-.256.32-.736.416-1.792,1.088-2.784,1.76-.288.192-.416.32-.416.384,0,.032.032.064.1.064a1.442,1.442,0,0,0,.512-.128,12.316,12.316,0,0,1,4.256-1.024,6.816,6.816,0,0,1,.864.064h.224A1.1,1.1,0,0,0-195.776-13.568Zm-10.272-5.376a.945.945,0,0,0-.992-.928.886.886,0,0,0-.288.032,2.51,2.51,0,0,1-.7.064,12.918,12.918,0,0,1-2.816-.544.625.625,0,0,0-.224-.032c-.064,0-.1,0-.1.032,0,.064.064.128.224.192.64.288,1.024.48,1.5.7a.4.4,0,0,1,.288.352.433.433,0,0,1-.288.384,10.887,10.887,0,0,1-2.72.864c.544-1.664,1.024-3.04,1.472-4.032.192-.448.48-.48.576-1.088v-.128c0-1.024-1.664-2.176-3.584-2.176a4.507,4.507,0,0,0-.64.032c-.32.032-.48.128-.48.256s.16.256.48.384c.736.288,1.184.576,1.184,1.856a9.159,9.159,0,0,1-.1,1.184,26.411,26.411,0,0,1-.736,3.936c-.576.032-1.184.064-1.824.064a10.713,10.713,0,0,1-4.288-.64.979.979,0,0,0-.48-.224.117.117,0,0,0-.128.128,1.261,1.261,0,0,0,.16.448c.576,1.248,2.784,1.984,5.92,1.984h.192a45.969,45.969,0,0,1-5.312,12.288,4.916,4.916,0,0,0-.96,2.528c0,.864.448,1.344,1.024,1.344.544,0,1.184-.416,1.632-1.376,1.824-3.712,3.68-9.952,5.248-14.88,2.368-.224,4.928-.96,6.144-1.952A1.371,1.371,0,0,0-206.048-18.944Zm9.92,18.368c0-.64-.576-1.248-1.728-1.248a2.587,2.587,0,0,0-.48.032,37.461,37.461,0,0,1-4.32.352A6.73,6.73,0,0,1-207.1-2.656a3.718,3.718,0,0,1-1.28-2.816,4.932,4.932,0,0,1,.288-1.536.75.75,0,0,0,.064-.352c0-.128-.032-.192-.128-.192s-.224.128-.416.352a4.685,4.685,0,0,0-.9,2.816,4.471,4.471,0,0,0,1.152,3.072C-206.688.48-203.744.96-201.12.96a23.093,23.093,0,0,0,3.776-.32C-196.544.48-196.128-.032-196.128-.576Zm29.472-6.848a3.449,3.449,0,0,0-.64-1.952,68.38,68.38,0,0,0-6.368-7.552,17.307,17.307,0,0,0,4.576-2.048,1.86,1.86,0,0,0,.8-1.408c0-.672-.544-1.248-1.568-1.248a4.809,4.809,0,0,0-.64.064,9.793,9.793,0,0,1-1.792.192A4.189,4.189,0,0,1-176-23.264a3.106,3.106,0,0,0-2.528-1.248,3.238,3.238,0,0,0-2.08.736,2.026,2.026,0,0,0-.672,1.536,1.815,1.815,0,0,0,.96,1.632,20.108,20.108,0,0,1,3.552,2.656,27.667,27.667,0,0,1-5.5.672,7.2,7.2,0,0,1-3.712-.768,1.766,1.766,0,0,0-.608-.288.069.069,0,0,0-.064.064,2.173,2.173,0,0,0,.256.544c.832,1.472,2.72,2.08,5.152,2.08a26.787,26.787,0,0,0,5.984-.832,35.886,35.886,0,0,1,5.28,7.008,1.373,1.373,0,0,1,.192.544c0,.192-.128.256-.32.256a2.444,2.444,0,0,1-.672-.16,22.149,22.149,0,0,0-7.136-1.344c-4.288,0-6.944,1.856-7.168,4.832,0,.192-.032.384-.032.576,0,4.128,3.776,6.208,10.4,6.208h.864c1.536-.032,2.176-.512,2.176-1.28V-.032c-.1-.672-.832-1.12-2.3-1.12a8.394,8.394,0,0,0-.864.032,14.745,14.745,0,0,1-1.664.064c-4.768,0-7.392-2.016-7.392-4.128v-.192c.192-2.688,2.528-3.968,5.472-3.968a14.3,14.3,0,0,1,6.784,1.92c1.44.8,2.144,1.888,3.3,1.888a3.054,3.054,0,0,0,.672-.128A1.707,1.707,0,0,0-166.656-7.424Zm-5.5-12.64a.837.837,0,0,1-.512.64A10.6,10.6,0,0,1-175.04-18.4c-1.248-1.312-2.4-2.5-3.328-3.424a1.008,1.008,0,0,1-.32-.7.973.973,0,0,1,1.024-.928,1.442,1.442,0,0,1,1.056.512,7.517,7.517,0,0,0,3.808,2.336C-172.352-20.48-172.16-20.288-172.16-20.064Zm44.384,13.888c0-.1-.032-.128-.1-.128-.1,0-.224.1-.416.32-1.76,2.208-4.128,3.84-6.112,3.84a2.9,2.9,0,0,1-1.376-.32c-.864-.416-1.152-1.344-1.152-2.592,0-2.24.992-5.536,1.44-9.056a7.691,7.691,0,0,0,.1-1.184c0-2.08-.832-3.84-2.816-3.84s-5.216,1.824-9.984,6.976c.032-.32.032-.8.064-1.184,1.152-2.176,1.824-2.016,2.368-2.88a.645.645,0,0,0,.1-.352,1.231,1.231,0,0,0-1.376-1.12,3.1,3.1,0,0,0-.736.1c.064-.672.384-2.528.448-2.912a10.969,10.969,0,0,1,.672-2.016v-.192c0-1.536-2.432-2.464-3.968-2.464h-.32c-.224.032-.32.128-.32.192,0,.128.16.256.384.352a3.289,3.289,0,0,1,1.664,3.232v.256c-.032,1.056-.064,3.424-.128,4.512a22.232,22.232,0,0,1-3.776,1.568,6.367,6.367,0,0,1-1.792.288,2.73,2.73,0,0,1-1.536-.384.432.432,0,0,0-.32-.16c-.064,0-.128.1-.128.288v.128a3.457,3.457,0,0,0,2.944,2.4.878.878,0,0,0,.416-.064,21.881,21.881,0,0,1,4.128-2.72c-.032.64-.1,1.792-.128,2.336A40.52,40.52,0,0,1-156.7-4.8a2.018,2.018,0,0,0-.672,1.568c0,.8.416,1.536,1.024,1.536a1.444,1.444,0,0,0,1.088-.7c.48-.544.832-1.472,1.632-2.688,1.76,2.688,2.3,2.592,2.816,4.512.288,1.12.192,1.888,1.088,2.08a.625.625,0,0,0,.224.032c1.056,0,1.76-1.632,1.76-3.552,0-.192-.032-.384-.032-.576-.192-2.656-.384-5.76-.416-8.544,4.768-4.768,7.424-6.272,8.9-6.272,1.28,0,1.6,1.184,1.6,2.3a7.3,7.3,0,0,1-.064.864c-.48,4.1-1.312,7.3-1.312,9.664,0,1.92.544,3.3,2.208,4.1a3.751,3.751,0,0,0,1.7.352c2.624,0,5.952-2.112,7.264-5.664A.763.763,0,0,0-127.776-6.176Zm-21.856-3.936c-.1,1.888-.1,3.1-.1,4.128v2.24c0,.384-.16.608-.384.608a.517.517,0,0,1-.32-.128,31.908,31.908,0,0,1-2.976-2.144A35.366,35.366,0,0,1-149.632-10.112Zm47.264,3.872c0-3.456-2.976-5.952-7.36-5.952a16.532,16.532,0,0,0-8,2.3.593.593,0,0,1-.224.064c-.1,0-.128-.032-.128-.1s.032-.128.16-.224c2.592-2.432,5.12-5.952,8.96-8.864,1.184-.9,2.336-1.056,2.624-1.856a.7.7,0,0,0,.032-.256,3.109,3.109,0,0,0-2.912-2.464h-.256a15.976,15.976,0,0,0-2.464.832c-1.248.384-3.232.96-4.384,1.216a7.426,7.426,0,0,1-1.408.192,1.857,1.857,0,0,1-1.344-.448.823.823,0,0,0-.384-.224c-.1,0-.16.128-.192.448v.128a2.512,2.512,0,0,0,2.24,2.592,1.244,1.244,0,0,0,.48-.064c1.472-.48,1.76-1.216,6.176-3.1a1.926,1.926,0,0,1,.736-.192c.256,0,.384.1.384.32a1.654,1.654,0,0,1-.384.832,131.463,131.463,0,0,1-11.616,12.48,3.5,3.5,0,0,0-1.184,2.368,1.03,1.03,0,0,0,.9,1.12,1.968,1.968,0,0,0,.416.032c1.824,0,1.888-2.272,4-3.712a12.9,12.9,0,0,1,7.168-2.432c3.2,0,5.536,1.664,5.536,4.544a7.314,7.314,0,0,1-.064.8c-.384,2.368-2.3,3.648-4.576,4.288A5.2,5.2,0,0,0-114.528-5.5c-1.6,0-3.008.768-3.264,2.176a3.153,3.153,0,0,0-.064.544c0,2.24,2.88,3.456,6.112,3.456,4.128,0,8.9-1.952,9.344-6.336A3.477,3.477,0,0,0-102.368-6.24ZM-111.3-1.216a9.23,9.23,0,0,1-1.312.064c-2.3,0-4.288-.736-4.288-2.048a.8.8,0,0,1,.032-.256,1.77,1.77,0,0,1,1.92-1.28A3.819,3.819,0,0,1-111.3-1.216Zm45.12-19.424c-.32-.288-1.376-1.28-1.92-1.856a.33.33,0,0,0-.256-.128.2.2,0,0,0-.192.128,8.608,8.608,0,0,1-.9,1.472.547.547,0,0,1-.416.224h-1.888c.288-1.024.544-2.048.832-3.1.1-.384.288-.48.64-.544.32-.064.48-.192.48-.352a.434.434,0,0,0-.352-.352,18.667,18.667,0,0,0-2.432-.544H-72.8c-.1,0-.16,0-.16.1,0,.064.032.128.032.192,0,.128.032.384.032.7a22.725,22.725,0,0,1-1.76,8.928.192.192,0,0,0-.032.128.282.282,0,0,0,.256.288.331.331,0,0,0,.224-.16,16.222,16.222,0,0,0,2.272-4.64h5.5c.288,0,.416-.1.416-.192A.339.339,0,0,0-66.176-20.64ZM-72.96-10.432c-.288-.256-1.6-1.344-1.952-1.632-.128-.1-.192-.128-.256-.128a.231.231,0,0,0-.192.128c-.32.384-.832,1.088-.992,1.248a3.438,3.438,0,0,1-1.248.16h-.224v-4.32h1.056v.48c0,.416.1.512.608.512h.224c.8-.032.8-.224.8-.832,0-.96-.032-2.24-.032-3.136,0-.352.128-.352.48-.608.32-.128.448-.288.448-.448a.548.548,0,0,0-.256-.384c-.352-.288-.9-.768-1.184-.992a.383.383,0,0,0-.256-.128c-.1,0-.16.064-.256.16-.224.224-.448.48-.608.672a.475.475,0,0,1-.48.224h-.544c-.032-.64-.032-1.184-.032-1.7,0-.672,0-1.312.032-2.08h3.84c.192,0,.32-.1.32-.192a.277.277,0,0,0-.128-.224c-.288-.256-1.6-1.344-1.952-1.632-.128-.1-.192-.128-.256-.128a.231.231,0,0,0-.192.128c-.256.352-.832,1.088-.992,1.248a.557.557,0,0,1-.448.16h-3.68s-1.44-.96-1.952-1.248a.737.737,0,0,0-.288-.1c-.1,0-.16.064-.16.192a2.162,2.162,0,0,0,.16.544,35.649,35.649,0,0,1,.288,5.92c0,3.008-.1,6.528-.192,8.8v.192c0,.736.192.864.832.9h.16c.736,0,.736-.256.736-1.088v-.256h8.576c.256,0,.384-.064.384-.16C-72.768-10.24-72.832-10.336-72.96-10.432Zm6.016-3.872c-.32-.352-1.408-1.44-1.92-1.856-.1-.064-.16-.128-.224-.128-.1,0-.16.064-.224.16-.256.384-.864,1.28-1.024,1.472a.531.531,0,0,1-.512.192h-.7a4.943,4.943,0,0,1-2.016-.288.814.814,0,0,0-.224-.064.085.085,0,0,0-.1.1c0,.064.032.1.032.16a3.584,3.584,0,0,0,.288.7c.1.16.16.192.288.192h.128a5.6,5.6,0,0,1,1.6-.16h4.384q.384,0,.384-.192A.433.433,0,0,0-66.944-14.3ZM-83.68-2.688a.3.3,0,0,0,.192-.256c0-.1-.064-.192-.224-.192h-.128c-1.728.48-3.168.864-4.448,1.152-.032-2.528-.032-6.528-.032-9.792h4.064q.384,0,.384-.192a.433.433,0,0,0-.16-.288,23.94,23.94,0,0,0-1.792-1.6c-.1-.064-.16-.128-.224-.128s-.1.064-.192.16c-.224.288-.768,1.024-.928,1.216a.531.531,0,0,1-.512.192h-.64c0-1.472.032-2.848.032-3.968h3.328c.192,0,.32-.1.32-.192a.277.277,0,0,0-.128-.224c-.512-.48-1.344-1.216-1.7-1.5-.128-.1-.192-.128-.256-.128s-.1.032-.16.128c-.256.352-.7.96-.864,1.12a.557.557,0,0,1-.448.16h-1.5a12.642,12.642,0,0,1-2.368-.192,30.644,30.644,0,0,0,3.36-6.24,8.465,8.465,0,0,1,2.752,3.9.946.946,0,0,0,.864.672,1.036,1.036,0,0,0,.928-1.088,1.86,1.86,0,0,0-.16-.672c-.576-1.248-2.208-2.3-4.224-3.232.032-.064.032-.1.064-.16.128-.32.352-.32.736-.352s.544-.192.544-.352a.539.539,0,0,0-.448-.448c-.9-.256-1.376-.416-2.464-.7h-.064c-.16,0-.192.064-.192.16v.192c-.224,2.624-1.856,6.944-3.936,10.3a.753.753,0,0,0-.064.256c0,.1.032.16.128.16a.467.467,0,0,0,.256-.16,13.836,13.836,0,0,0,1.44-1.6c.032.064.064.1.1.16.1.16.16.192.288.192h.128a10.146,10.146,0,0,1,2.016-.16c0,1.12.032,2.464.032,3.968H-91.04a9.992,9.992,0,0,1-2.752-.288.814.814,0,0,0-.224-.064.085.085,0,0,0-.1.1c0,.064.032.1.032.16a3.584,3.584,0,0,0,.288.7c.1.16.16.192.288.192h.128a13.637,13.637,0,0,1,2.336-.16h1.056c0,3.36,0,7.552-.032,10.112-1.184.16-2.368.352-3.808.416h-.288c-.1,0-.192,0-.192.128A1.3,1.3,0,0,0-94.24-.9c.32.9.64,1.7.992,2.464.1.256.256.352.384.352s.256-.16.32-.416c.064-.416-.032-.64.288-.736A54,54,0,0,0-83.68-2.688Zm-7.3-2.816a7.175,7.175,0,0,0-2.144-4.48.467.467,0,0,0-.256-.16.146.146,0,0,0-.128.16.753.753,0,0,0,.064.256c1.088,2.144.64,3.552.832,4.736.1.512.416.768.736.768.448,0,.9-.416.9-1.216Zm6.656-4.16c-.64-.256-1.184-.48-1.92-.7-.032,0-.1-.032-.128-.032-.1,0-.128.064-.128.16,0,.064.032.192.032.288a24.048,24.048,0,0,1-1.056,5.76.625.625,0,0,0-.032.224c0,.1.032.16.1.16s.128-.032.224-.16a22.83,22.83,0,0,0,2.3-4.384c.16-.384.16-.512.48-.544.384-.064.544-.192.544-.352S-84.064-9.568-84.32-9.664ZM-65.76.7c-.32-.288-1.152-1.376-1.568-1.856-.1-.1-.16-.16-.256-.16a.236.236,0,0,0-.192.16A10.128,10.128,0,0,1-68.384.32a.576.576,0,0,1-.288.192c-.032-1.152-.064-2.016-.064-2.72,0-1.12.032-1.952.064-3.264,0-.384.352-.576.64-.7.256-.128.352-.256.352-.416a.786.786,0,0,0-.32-.48c-.448-.384-1.056-.928-1.376-1.184a.658.658,0,0,0-.288-.16c-.064,0-.128.064-.224.16a9.228,9.228,0,0,1-.608.768.585.585,0,0,1-.544.224h-9.44s-1.408-.96-1.952-1.28a.984.984,0,0,0-.288-.128c-.064,0-.1.064-.1.224,0,.128.032.32.064.576a19.5,19.5,0,0,1,.128,2.784c0,1.44-.032,3.3-.128,5.632h-.032A9.992,9.992,0,0,1-85.536.256.814.814,0,0,0-85.76.192a.085.085,0,0,0-.1.1c0,.064.032.1.032.16a3.583,3.583,0,0,0,.288.7c.1.16.16.192.288.192h.128a13.637,13.637,0,0,1,2.336-.16h16.768c.288,0,.416-.1.416-.192A.339.339,0,0,0-65.76.7Zm-13.632-20.16h-2.336v-3.776h2.336A37.133,37.133,0,0,1-79.392-19.456Zm2.656,3.84h-4.992v-3.2h4.992c.032.448.032.864.032,1.312C-76.7-16.864-76.7-16.256-76.736-15.616Zm-2.656,4.96h-2.336v-4.32h2.336C-79.328-13.5-79.328-11.968-79.392-10.656Zm8.928,11.2h-2.624c-.032-3.36-.032-3.9,0-7.168h2.624s.032,1.536.032,3.68C-70.432-1.888-70.432-.672-70.464.544Zm-4.128,0h-2.5c0-3.36,0-3.9.032-7.168h2.464c.032,1.888.032,2.88.032,4.032C-74.56-1.76-74.56-.864-74.592.544ZM-78.56-6.624c.032,1.632.032,2.592.032,3.584,0,.96,0,1.92-.064,3.584h-2.336V-1.792c0-2.912.032-4.832.032-4.832ZM-33.952-.8c.256-.1.352-.224.352-.352,0-.1-.1-.192-.32-.192h-.1c-2.528.256-4.832.384-6.848.384a42.388,42.388,0,0,1-5.792-.384c-.032-1.984-.032-4.544-.032-7.1h9.344c.192,0,.32-.064.32-.192,0-.064-.032-.128-.128-.224-.352-.352-2.048-1.792-2.464-2.112A.446.446,0,0,0-39.9-11.1c-.064,0-.1.032-.16.128-.32.48-1.088,1.568-1.248,1.728a.557.557,0,0,1-.448.16h-4.928c0-2.24.032-4.416.032-6.048h9.792c.288,0,.416-.1.416-.192a.339.339,0,0,0-.16-.288c-.352-.32-1.344-1.152-2.144-1.792,1.28-.928,2.4-2.336,3.712-2.336h.384c.48,0,.7-.192.7-.48a1.232,1.232,0,0,0-.416-.768c-.544-.544-1.5-1.376-1.92-1.7a.446.446,0,0,0-.288-.128c-.064,0-.128.032-.224.128-.128.128-.7.672-.9.832a.584.584,0,0,1-.48.192h-9.152c0-.544,0-1.44.032-2.08v-.1c0-.288.032-.608.416-.736.416-.128.608-.352.608-.544,0-.16-.192-.32-.576-.384-1.056-.16-1.408-.192-2.4-.352a1.029,1.029,0,0,0-.256-.032c-.1,0-.128.032-.128.128,0,.16.1.512.192,1.152.032.256.032,1.888.032,2.944H-58.24c-.064-.576-.16-1.12-.256-1.6-.064-.288-.16-.416-.288-.416s-.256.192-.288.48c-.192,3.392-1.888,3.52-2.464,4.864a1.72,1.72,0,0,0-.16.672,1.1,1.1,0,0,0,1.184,1.088,1.414,1.414,0,0,0,.7-.16c1.184-.608,1.6-2.272,1.6-3.936v-.352h20.64a30.387,30.387,0,0,1-1.6,3.264.425.425,0,0,0-.224-.1.231.231,0,0,0-.192.128c-.48.64-.8,1.056-1.344,1.728a.547.547,0,0,1-.416.224H-56.32a9.992,9.992,0,0,1-2.752-.288.814.814,0,0,0-.224-.064.085.085,0,0,0-.1.1c0,.064.032.1.032.16a3.584,3.584,0,0,0,.288.7c.1.16.16.192.288.192h.128a13.637,13.637,0,0,1,2.336-.16h7.456c.032,2.5.032,6.208.032,9.536v3.84A12.106,12.106,0,0,1-51.68-2.816,7.744,7.744,0,0,1-55.232-7.04a21.634,21.634,0,0,0,.8-2.912.56.56,0,0,1,.544-.352c.064,0,.128.032.192.032h.064c.352,0,.544-.16.544-.32s-.128-.352-.448-.48c-.384-.128-1.76-.608-2.624-.864A1.3,1.3,0,0,0-56.384-12c-.1,0-.1.064-.128.32-.16,2.784-1.44,9.12-5.728,13.5a.33.33,0,0,0-.128.256.214.214,0,0,0,.224.192.346.346,0,0,0,.224-.1,18.967,18.967,0,0,0,6.368-8.352,8.71,8.71,0,0,0,2.72,4.416c2.944,2.368,7.1,3.136,15.424,3.136h1.6c.384,0,.416-.1.448-.32A2.573,2.573,0,0,1-33.952-.8ZM-2.688-14.688a2.1,2.1,0,0,0-.32-1.056,6.255,6.255,0,0,0-4.064-2.368.886.886,0,0,0-.288-.032q-.192,0-.192.1c0,.064.1.192.32.32a7.538,7.538,0,0,1,2.912,3.2c.224.544.576.768.9.768A.844.844,0,0,0-2.688-14.688ZM-5.5-12.7a1.925,1.925,0,0,0-.224-.864A6.36,6.36,0,0,0-9.6-16.416a1.651,1.651,0,0,0-.352-.064c-.128,0-.224.064-.224.128,0,.1.1.224.288.352a7.31,7.31,0,0,1,2.72,3.52c.224.64.544.928.864.928C-5.888-11.552-5.5-12.032-5.5-12.7Zm.544-8.16a2.363,2.363,0,0,0-.064-.384c-.288-.928-.864-1.5-2.432-1.5a4.08,4.08,0,0,0-.608.032,16.985,16.985,0,0,0-2.624.64c-6.016,1.28-11.9,2.784-14.432,3.3a11.1,11.1,0,0,1-2.272.32,2.681,2.681,0,0,1-1.536-.384.851.851,0,0,0-.448-.192c-.1,0-.16.064-.16.256a1.1,1.1,0,0,0,.032.288,3.941,3.941,0,0,0,3.2,2.816h.1c1.024-.064,1.728-.672,3.072-1.248a43.9,43.9,0,0,1,11.1-3.68,1.723,1.723,0,0,1,.352-.032c.1,0,.128,0,.128.032q0,.1-.48.288c-5.728,2.048-7.648,7.3-7.648,12,0,.416,0,.832.032,1.216.416,5.92,3.68,7.36,8.1,7.616.192,0,.416.032.608.032,1.312,0,2.4-.352,2.4-1.344V-.832c-.032-1.024-.9-1.344-2.688-1.344H-12a5.813,5.813,0,0,1-6.144-5.5,16.236,16.236,0,0,1-.128-2.112c0-6.112,3.52-9.728,10.336-10.208C-6.688-20.1-4.96-19.808-4.96-20.864ZM-191.648,20.664c-.416-.384-1.7-1.472-2.528-2.112a.63.63,0,0,0-.256-.128.231.231,0,0,0-.192.128c-.48.64-.8,1.056-1.344,1.728a.491.491,0,0,1-.416.16h-8.576c0-.416,0-.1.032-1.184v-.1c0-.288.032-.608.416-.736.416-.128.608-.352.608-.544,0-.16-.192-.32-.576-.384-1.056-.16-1.28-.192-2.272-.352a1.029,1.029,0,0,0-.256-.032c-.1,0-.128.032-.128.128,0,.16.1.512.192,1.152.032.256.032.928.032,2.048h-9.376a9.992,9.992,0,0,1-2.752-.288.814.814,0,0,0-.224-.064.085.085,0,0,0-.1.1c0,.064.032.1.032.16a3.584,3.584,0,0,0,.288.7c.1.16.16.192.288.192h.128a13.637,13.637,0,0,1,2.336-.16H-191.9c.288,0,.416-.064.416-.16A.332.332,0,0,0-191.648,20.664Zm-5.312,3.072c-.352-.32-1.216-.9-1.632-1.216a.52.52,0,0,0-.288-.128c-.1,0-.16.064-.224.16-.16.192-.576.7-.736.9-.064.128-.16.192-.448.192H-211.2s-1.728-.9-2.272-1.12a.511.511,0,0,0-.256-.1c-.064,0-.1.032-.1.16a2.553,2.553,0,0,0,.1.512,7.249,7.249,0,0,1,.192,2.08c0,1.248-.1,2.72-.128,3.936-.032.672.224.8.768.8h.288c.768-.032.992,0,.992-.64v-.64h11.808v.416c0,.8.16.832.9.832.8-.032,1.184-.032,1.184-.736v-.1c-.032-.672-.032-1.152-.032-1.632,0-.64,0-1.248.032-2.272,0-.352.224-.352.608-.576.288-.128.384-.288.384-.416A.676.676,0,0,0-196.96,23.736Zm3.9,7.9c-.544-.448-1.248-1.056-1.792-1.408a.714.714,0,0,0-.352-.16c-.1,0-.16.064-.256.192-.224.256-.64.9-.8,1.088-.128.16-.192.224-.544.224h-17.728s-1.888-.992-2.464-1.248a.737.737,0,0,0-.288-.1c-.1,0-.128.064-.128.192a1.74,1.74,0,0,0,.128.544,35.329,35.329,0,0,1,.32,6.208c0,2.656-.064,5.472-.192,7.1V44.5c0,.64.288.864.96.864h.128c.928-.032,1.152-.192,1.152-1.088-.032-2.976-.032-6.784-.032-9.472V32.216h18.88c0,1.216.032,2.56.032,4,0,1.792-.032,3.712-.1,5.664,0,.48-.032.64-.544.64-1.056,0-2.432-.16-3.1-.224h-.064c-.192,0-.288.1-.288.224a.375.375,0,0,0,.288.352c2.208.48,2.528.64,2.656,2.176.032.224.1.352.288.352h.128c2.528-.48,2.752-1.6,2.752-2.688V39.544c0-2.208,0-4.544.032-6.208,0-.416.224-.416.736-.672.32-.16.448-.352.448-.544A.716.716,0,0,0-193.056,31.64Zm-6.208,3.52c-.352-.32-1.152-.9-1.568-1.216a.52.52,0,0,0-.288-.128c-.1,0-.16.064-.224.16-.16.192-.576.7-.736.9-.064.128-.16.192-.448.192h-6.432s-1.728-.9-2.272-1.12a.511.511,0,0,0-.256-.1c-.1,0-.1.16,0,.672a19.79,19.79,0,0,1,.128,2.784c0,1.344-.032,2.88-.064,3.968v.1c0,.672.32.864.928.864h.128c.768-.032.992-.128.992-.8v-.16c0-.224,0-.736-.032-.992h7.36v.48c0,.8.16.992.9.992.8-.032,1.12-.192,1.12-.9v-.1c-.032-.672-.032-1.184-.032-1.728,0-.736,0-1.44.032-2.464,0-.352.224-.352.608-.576.288-.128.384-.288.384-.416A.676.676,0,0,0-199.264,35.16Zm-.48-10.88v.832c0,1.056-.032,1.792-.064,2.88h-11.84c0-1.28,0-2.528.064-3.712Zm-2.24,11.424v.864c0,1.12-.032,1.952-.064,3.072h-7.36c0-1.376,0-2.784.064-3.936Zm41.472-2.464a9.881,9.881,0,0,0-6.4-9.12,1.524,1.524,0,0,0-.608-.16c-.064,0-.1.032-.1.064,0,.064.16.256.448.512,2.528,2.336,3.744,4.224,3.872,6.944v.288c0,.672-.224.96-.608.96a.545.545,0,0,1-.224-.032,2.554,2.554,0,0,0-.512-.1c-.064,0-.1.032-.1.064a2.381,2.381,0,0,0,.224.576c.416.928.1,2.272,1.344,2.688a1.812,1.812,0,0,0,.576.1C-161.376,36.024-160.512,34.648-160.512,33.24Zm-16.064.224c0-.064-.032-.1-.064-.1a1.132,1.132,0,0,0-.48.384c-1.408,1.6-2.048,2.5-3.392,3.968-.32.352-.576.576-.832.576-.224,0-.448-.224-.736-.672a10.046,10.046,0,0,1-1.312-5.344,21.584,21.584,0,0,1,.7-5.216,9.321,9.321,0,0,0,.512-2.208,2.266,2.266,0,0,0-.032-.448c-.16-.8-.64-1.792-2.784-2.528a1.605,1.605,0,0,0-.448-.1c-.1,0-.128.032-.128.128a1.612,1.612,0,0,0,.16.48,5.137,5.137,0,0,1,.576,2.56c0,.48-.032,1.024-.1,1.664-.1,1.312-.128,2.528-.128,3.712,0,4.928.864,8.64,3.232,11.136a2.859,2.859,0,0,0,1.888.992,1.058,1.058,0,0,0,1.12-1.12,2.2,2.2,0,0,0-.064-.416,5.286,5.286,0,0,1-.16-1.184,4.74,4.74,0,0,1,.352-1.728c.64-1.408,1.088-2.336,1.952-4.032A1.213,1.213,0,0,0-176.576,33.464Zm31.648-12.544c-.352-1.12-2.688-1.792-3.808-1.792h-.16c-.288.032-.448.1-.448.192s.16.256.416.384c1.024.544,1.28,1.344,1.28,2.72.032,2.912,0,5.408-.1,6.656s-.32,1.408-.32,2.432c0,2.144.672,3.04,1.344,3.04.64,0,1.28-.8,1.312-2.112v-.192c0-.9-.16-2.144-.16-5.568,0-1.056.032-2.3.064-3.776.032-.928.608-1.216.608-1.728A.7.7,0,0,0-144.928,20.92Zm10.72-.64c-.032-.928-2.592-2.208-4.576-2.208h-.256c-.32,0-.48.1-.48.192s.16.224.448.352c1.28.608,1.664,1.408,1.728,3.136.064,1.376.1,2.752.1,4.064,0,8.064-1.6,14.528-9.824,19.232-.384.192-.544.384-.544.448s.064.1.16.1a1.442,1.442,0,0,0,.512-.128c10.56-4.448,12.032-10.784,12.032-20.576,0-.864,0-1.792-.032-2.752v-.064c0-.928.736-1.056.736-1.76Zm38.528.576A3.408,3.408,0,0,0-99.1,17.432a3.428,3.428,0,0,0-3.424,3.424A3.455,3.455,0,0,0-99.1,24.312,3.435,3.435,0,0,0-95.68,20.856Zm-4.768,5.984a.406.406,0,0,0,.032-.192c0-.8-1.408-2.688-3.168-3.232-.416-.128-.608-.1-.608.064a1.16,1.16,0,0,0,.16.416,1.529,1.529,0,0,1,.32.9,1.274,1.274,0,0,1-.576,1.024A46.128,46.128,0,0,1-115.3,31.64c.192-3.232.48-6.432.672-7.872.128-.736.7-.928.7-1.7v-.064c-.032-.992-2.848-2.176-4.576-2.176-.736,0-.8.192-.192.608.864.608,1.312,1.248,1.408,3.616.1,2.144.064,6.72-.1,12.544v.384c0,2.88,1.408,4.992,6.08,5.376,1.28.128,2.848.192,4.448.192a46.363,46.363,0,0,0,5.728-.32c1.408-.192,2.048-.8,2.048-1.408,0-.7-.8-1.376-2.272-1.408h-.128a14.439,14.439,0,0,0-2.5.512,35.321,35.321,0,0,1-5.952.544c-.352,0-.7-.032-1.088-.032-3.744-.128-4.672-1.056-4.672-3.488,0-1.632.256-2.848.352-4.992,4.7-1.024,9.28-2.048,13.312-4.48C-101.248,27-100.64,27.448-100.448,26.84Zm3.776-5.984A2.418,2.418,0,0,1-99.1,23.32a2.438,2.438,0,0,1-2.432-2.464A2.431,2.431,0,0,1-99.1,18.424,2.411,2.411,0,0,1-96.672,20.856ZM-66.912,31c0-.48-.8-.992-2.464-1.12-.224,0-.512-.032-.864-.032-2.912,0-10.208.448-15.488.448-.992,0-1.952-.032-2.752-.064-1.984-.1-2.752-.192-4.128-1.408a1.043,1.043,0,0,0-.576-.32c-.16,0-.224.192-.192.608.1,1.408,1.568,3.712,2.784,3.68.832-.032.864-.352,2.08-.384,4.032-.128,9.856-.32,14.944-.32,1.184,0,2.336,0,3.392.032h.256C-67.936,32.12-66.912,31.576-66.912,31Zm26.176.864c-1.536-1.568-5.248-3.2-9.024-4.1.032-1.376.128-3.68.192-5.056.064-1.5.8-1.824.8-2.624v-.064c-.064-1.216-2.88-2.208-5.024-2.272h-.1c-.7,0-.7.352,0,.64,1.44.512,1.92,1.536,2.016,3.3.224,4,.224,11.808,0,15.744-.16,2.944-.576,3.3-.576,4.256,0,2.432.768,3.424,1.536,3.424.736,0,1.472-.9,1.472-2.24V42.68c0-1.6-.32-5.856-.32-13.536V28.12c3.648,1.856,5.824,3.52,7.648,6.464A2.022,2.022,0,0,0-40.48,35.64a1.126,1.126,0,0,0,1.152-1.216A3.893,3.893,0,0,0-40.736,31.864ZM-2.848,20.28c-.416-.384-1.7-1.472-2.528-2.112a.63.63,0,0,0-.256-.128.231.231,0,0,0-.192.128c-.48.64-.8,1.056-1.344,1.728a.547.547,0,0,1-.416.224h-7.84v-.864c.032-.288-.032-.672.416-.832.416-.128.608-.352.608-.544,0-.16-.192-.32-.576-.384-1.056-.16-1.344-.192-2.336-.352a1.029,1.029,0,0,0-.256-.032c-.1,0-.128.032-.128.128,0,.16.1.512.192,1.152a9.089,9.089,0,0,1,.032,1.088v.64h-8.544a9.992,9.992,0,0,1-2.752-.288.814.814,0,0,0-.224-.064.085.085,0,0,0-.1.1c0,.064.032.1.032.16a3.584,3.584,0,0,0,.288.7c.1.16.16.192.288.192h.128a13.637,13.637,0,0,1,2.336-.16h7.968a12.242,12.242,0,0,1-1.5,3.424,14.637,14.637,0,0,0-2.432-1.024.288.288,0,0,0-.16-.032.151.151,0,0,0-.16.16.387.387,0,0,0,.192.288c2.464,1.568,2.368,2.5,3.168,3.552a1.17,1.17,0,0,0,.96.544.825.825,0,0,0,.832-.9,1.089,1.089,0,0,0-.032-.32,4,4,0,0,0-1.984-2.08,19.054,19.054,0,0,0,3.424-3.616H-3.1c.288,0,.416-.1.416-.192A.339.339,0,0,0-2.848,20.28ZM-3.776,23.7a23.308,23.308,0,0,0-2.016-1.7c-.1-.1-.16-.128-.192-.128-.1,0-.128.128-.192.224a21.2,21.2,0,0,1-4.384,4.512.678.678,0,0,0-.256.384c0,.032.032.064.1.064a.848.848,0,0,0,.32-.1,41.712,41.712,0,0,0,5.28-2.72.617.617,0,0,1,.32-.1,2.344,2.344,0,0,1,.576.128.886.886,0,0,0,.288.032c.224,0,.32-.1.32-.224A.665.665,0,0,0-3.776,23.7Zm-19.456,1.984c-.192-.96-1.792-2.432-4.576-3.392a.625.625,0,0,0-.224-.032c-.1,0-.16.032-.16.128,0,.064.064.16.192.256,2.208,1.408,2.112,2.944,2.88,3.936a1.111,1.111,0,0,0,.9.48A1.046,1.046,0,0,0-23.2,25.976.886.886,0,0,0-23.232,25.688Zm13.44,6.848c-.32-.928-1.5-2.272-4.32-3.84a.345.345,0,0,0-.224-.064.146.146,0,0,0-.16.128.4.4,0,0,0,.128.256,10.42,10.42,0,0,1,1.792,2.272c-2.4.16-4.992.32-6.976.32H-20.1a43.686,43.686,0,0,0,7.648-6.688.7.7,0,0,1,.576-.256c.1,0,.224.032.32.032h.256c.384,0,.576-.1.576-.256,0-.128-.1-.256-.288-.416a15.594,15.594,0,0,0-2.3-1.376c-.224-.128-.32-.064-.416.192-.9,2.272-4.1,6.336-7.04,8.736-.8-.032-1.312-.1-1.888-.16-.128,0-.256-.064-.352-.064-.128,0-.16.064-.1.288.224.768.448,1.536.7,2.368.1.32.256.448.384.448.192,0,.384-.224.448-.576.064-.192,0-.416.352-.48,3.008-.416,5.952-.864,8.9-1.568a18.269,18.269,0,0,1,.7,1.7c.224.512.544.7.864.7a1.181,1.181,0,0,0,1.024-1.248A1.166,1.166,0,0,0-9.792,32.536ZM-21.248,27.96a.533.533,0,0,0,.192-.384c0-.1-.032-.128-.128-.128a.792.792,0,0,0-.48.224,25.472,25.472,0,0,1-7.264,3.968c-.192.064-.416.1-.416.256a.455.455,0,0,0,.064.192c.416.7,1.088,1.664,1.408,2.08.192.256.384.384.512.384.192,0,.32-.16.32-.48,0-.064-.032-.128-.032-.192a1.2,1.2,0,0,1-.032-.32.53.53,0,0,1,.16-.384A44.986,44.986,0,0,0-21.248,27.96Zm17.024,3.808c-1.152-1.664-4.1-2.656-6.144-3.264a.406.406,0,0,0-.192-.032c-.128,0-.192.064-.192.16a.352.352,0,0,0,.192.32,11.693,11.693,0,0,1,4.544,4.16,1.3,1.3,0,0,0,1.056.672A1.081,1.081,0,0,0-3.9,32.664,1.535,1.535,0,0,0-4.224,31.768ZM-1.792,37.3c-.416-.384-1.7-1.472-2.528-2.112a.63.63,0,0,0-.256-.128.231.231,0,0,0-.192.128c-.48.64-.8,1.056-1.344,1.728a.547.547,0,0,1-.416.224h-8.928c0-.448.032-.832.064-1.216V35.8c0-.256.032-.608.416-.7.416-.128.608-.32.608-.48,0-.192-.192-.352-.576-.448-.832-.224-2.08-.448-2.336-.512a.625.625,0,0,0-.224-.032c-.064,0-.1.032-.1.16,0,.16.064.48.1,1.12.032.48.064,1.248.064,2.24h-9.888a9.992,9.992,0,0,1-2.752-.288.814.814,0,0,0-.224-.064.085.085,0,0,0-.1.1c0,.064.032.1.032.16a3.584,3.584,0,0,0,.288.7c.1.16.16.192.288.192h.128a13.637,13.637,0,0,1,2.336-.16h9.92c0,1.76-.032,4.064-.192,6.72v.128c0,.512.224.736.864.736h.256c.992-.064,1.12-.224,1.12-.736v-.256c-.1-3.328-.128-5.216-.1-6.592H-2.048c.288,0,.416-.1.416-.192A.339.339,0,0,0-1.792,37.3Z" transform="translate(318.016 25.888)"/></svg>