<svg xmlns="http://www.w3.org/2000/svg" width="134.992" height="109.681" viewBox="0 0 134.992 109.681"><path d="M81.653-53.2c0-29.315-10.725-54.626-36.036-54.626-25.454,0-35.75,25.168-35.75,54.626,0,30.745,10.725,55.055,35.75,55.055C70.928,1.859,81.653-22.022,81.653-53.2ZM70.5-53.053c0,32.747-10.01,49.907-24.882,49.907S20.735-20.306,20.735-53.053c0-31.46,10.01-50.193,24.882-50.193S70.5-84.513,70.5-53.053Zm74.36,52.2c0-1.144-.286-1.144-1.144-1.287-7.293-1-14.443-.715-14.443-6.864v-97.1c0-1.287-.572-1.716-1.144-1.716a.86.86,0,0,0-.572.143c-8.294,3.718-13.442,6.578-23.023,10.01a1.489,1.489,0,0,0-1,1.43c0,1,.572,1.859,1.43,1.859.143,0,.286-.143.429-.143q6.864-3,9.867-3c2,0,2.86.858,2.86,2.717v85.8c0,4.147-6.721,5.434-14.872,6.864C102.96-2,102.1-2,102.1-.858c0,.715.572.858,1.287.858h40.326C144.859,0,144.859-.143,144.859-.858Z" transform="translate(-9.867 107.822)" fill="#c09c56"/></svg>