<svg xmlns="http://www.w3.org/2000/svg" width="346.144" height="71.16" viewBox="0 0 346.144 71.16"><path d="M28.928-9.76a9.881,9.881,0,0,0-6.4-9.12,1.524,1.524,0,0,0-.608-.16c-.064,0-.1.032-.1.064,0,.064.16.256.448.512,2.528,2.336,3.744,4.224,3.872,6.944v.288c0,.672-.224.96-.608.96a.545.545,0,0,1-.224-.032,2.553,2.553,0,0,0-.512-.1c-.064,0-.1.032-.1.064a2.381,2.381,0,0,0,.224.576c.416.928.1,2.272,1.344,2.688a1.812,1.812,0,0,0,.576.1C28.064-6.976,28.928-8.352,28.928-9.76Zm-16.064.224c0-.064-.032-.1-.064-.1a1.132,1.132,0,0,0-.48.384c-1.408,1.6-2.048,2.5-3.392,3.968-.32.352-.576.576-.832.576-.224,0-.448-.224-.736-.672A10.046,10.046,0,0,1,6.048-10.72a21.584,21.584,0,0,1,.7-5.216,9.32,9.32,0,0,0,.512-2.208,2.267,2.267,0,0,0-.032-.448c-.16-.8-.64-1.792-2.784-2.528a1.605,1.605,0,0,0-.448-.1c-.1,0-.128.032-.128.128a1.612,1.612,0,0,0,.16.48,5.137,5.137,0,0,1,.576,2.56c0,.48-.032,1.024-.1,1.664-.1,1.312-.128,2.528-.128,3.712,0,4.928.864,8.64,3.232,11.136A2.859,2.859,0,0,0,9.5-.544a1.058,1.058,0,0,0,1.12-1.12,2.2,2.2,0,0,0-.064-.416,5.286,5.286,0,0,1-.16-1.184,4.74,4.74,0,0,1,.352-1.728C11.392-6.4,11.84-7.328,12.7-9.024A1.213,1.213,0,0,0,12.864-9.536Zm48.9-2.624a8.658,8.658,0,0,0-.576-3.04c-1.312-3.552-4.672-5.024-8.96-5.024A34.594,34.594,0,0,0,39.616-17.28a10.04,10.04,0,0,1-3.648.9,3.861,3.861,0,0,1-1.664-.352,1.16,1.16,0,0,0-.416-.16c-.192,0-.256.224-.192.64.224,1.632,2.528,2.976,3.584,2.976a.545.545,0,0,0,.224-.032c1.376-.416,2.016-1.312,3.68-2.3,3.488-2.048,7.584-3.584,11.008-3.584,3.1,0,5.7,1.248,6.784,4.512a6.406,6.406,0,0,1,.352,2.048c0,4.9-5.632,10.08-16.352,10.88-.352.032-.544.16-.544.288,0,.1.192.224.608.224C54.976-1.376,61.76-6.176,61.76-12.16Zm31.552-2.528a2.1,2.1,0,0,0-.32-1.056,6.255,6.255,0,0,0-4.064-2.368.886.886,0,0,0-.288-.032q-.192,0-.192.1c0,.064.1.192.32.32a7.538,7.538,0,0,1,2.912,3.2c.224.544.576.768.9.768A.844.844,0,0,0,93.312-14.688ZM90.5-12.7a1.925,1.925,0,0,0-.224-.864A6.361,6.361,0,0,0,86.4-16.416a1.651,1.651,0,0,0-.352-.064c-.128,0-.224.064-.224.128,0,.1.1.224.288.352a7.31,7.31,0,0,1,2.72,3.52c.224.64.544.928.864.928C90.112-11.552,90.5-12.032,90.5-12.7Zm.544-8.16a2.363,2.363,0,0,0-.064-.384c-.288-.928-.864-1.5-2.432-1.5a4.08,4.08,0,0,0-.608.032,16.985,16.985,0,0,0-2.624.64c-6.016,1.28-11.9,2.784-14.432,3.3a11.1,11.1,0,0,1-2.272.32,2.681,2.681,0,0,1-1.536-.384.851.851,0,0,0-.448-.192c-.1,0-.16.064-.16.256a1.1,1.1,0,0,0,.032.288,3.941,3.941,0,0,0,3.2,2.816h.1c1.024-.064,1.728-.672,3.072-1.248a43.9,43.9,0,0,1,11.1-3.68,1.723,1.723,0,0,1,.352-.032c.1,0,.128,0,.128.032q0,.1-.48.288c-5.728,2.048-7.648,7.3-7.648,12,0,.416,0,.832.032,1.216.416,5.92,3.68,7.36,8.1,7.616.192,0,.416.032.608.032,1.312,0,2.4-.352,2.4-1.344V-.832c-.032-1.024-.9-1.344-2.688-1.344H84a5.813,5.813,0,0,1-6.144-5.5,16.236,16.236,0,0,1-.128-2.112c0-6.112,3.52-9.728,10.336-10.208C89.312-20.1,91.04-19.808,91.04-20.864ZM122.112-5.152c0-2.88-1.536-6.368-5.5-8.8a1.18,1.18,0,0,0-.512-.224c-.064,0-.1.032-.1.064,0,.1.128.256.352.48a10.4,10.4,0,0,1,3.328,7.36,11.645,11.645,0,0,1-.16,1.792,6.894,6.894,0,0,1-6.848,5.568A4.493,4.493,0,0,1,107.84-3.68v-.128a24.048,24.048,0,0,1,.512-3.84,33.9,33.9,0,0,0,4.992.544h.1c1.152,0,1.76-.576,1.76-1.152,0-.512-.576-1.056-1.824-1.056h-.16c-.288.032-.7.032-1.12.032a30.56,30.56,0,0,1-3.392-.192c.448-1.92.928-3.712,1.376-5.312.512,0,1.184,0,1.408.032,1.056.128,1.664.32,2.112.32a1.069,1.069,0,0,0,.48-.1.7.7,0,0,0,.352-.64c0-.48-.448-1.12-1.664-1.536a8.836,8.836,0,0,0-2.08-.352c.288-.992.512-1.92.7-2.656.448-1.824,1.088-1.248,1.248-2.56V-22.4c0-1.056-1.664-3.2-4-3.2-.384,0-.544.064-.544.192s.16.288.448.48a1.961,1.961,0,0,1,1.12,1.984,13.958,13.958,0,0,1-.128,1.44c-.16,1.376-.384,2.72-.64,4.032-1.5-.48-3.04-1.184-3.712-2.3-.128-.16-.224-.224-.288-.224s-.1.064-.1.224v.128c.16,1.92,1.632,2.944,3.808,3.616-.032.128-.1.448-.128.576-3.648.672-5.152,2.4-5.152,3.808v.1c.064,1.376.768,2.848,3.712,3.616a29.123,29.123,0,0,0-.384,4v.16c0,4.032,3.52,6.112,7.168,6.112,3.776,0,7.744-2.208,8.256-6.688A6.689,6.689,0,0,0,122.112-5.152Zm-13.792-9.5c-.352,1.7-.7,3.36-.992,4.96-2.176-.448-3.2-.96-3.264-1.92v-.128C104.064-13.024,105.472-14.24,108.32-14.656ZM147.712-7.2v-.1a.255.255,0,0,0-.192-.256q-.384-.144-.48.1c-.9,2.272-2.72,5.664-4.928,6.176a26.641,26.641,0,0,1-4.9.384,11.157,11.157,0,0,1-2.144-.128,1.061,1.061,0,0,1-.736-1.12V-21.536c0-.992.416-1.44,2.4-1.728.128-.032.224.032.224-.256,0-.16-.1-.224-.256-.224h-7.1c-.16,0-.256.064-.256.224,0,.288.1.224.224.256,2.08.352,2.4.736,2.4,1.728V-2.08c0,.864-.608,1.408-2.4,1.6-.064.032-.224.1-.224.256s.1.224.256.224h8.256c1.76,0,5.792.1,8.352.16.256,0,.256-.064.288-.48A58.539,58.539,0,0,1,147.712-7.2ZM157.856-.224c0-.16-.16-.224-.224-.256-1.536-.32-2.656-.608-2.656-1.472v-19.84c0-.864,1.12-1.152,2.656-1.472.064-.032.224.032.224-.256,0-.16-.1-.224-.256-.224h-7.616c-.224,0-.256.032-.256.16v.064c0,.288.032.224.224.256,1.536.32,2.656.608,2.656,1.472v19.84c0,.864-1.12,1.152-2.656,1.472-.192.032-.224.1-.224.256s.1.224.256.224H157.6C157.76,0,157.856-.064,157.856-.224Zm24.992-23.3c0-.16-.1-.224-.256-.224h-6.976c-.16,0-.256.032-.256.224,0,.256.16.256.224.288,1.888.32,3.072,1.28,3.072,2.752V-3.968L164.96-23.2a1.026,1.026,0,0,0-.928-.544h-4c-.16,0-.256.032-.256.224,0,.224.1.224.224.256,1.6.32,2.208.608,2.912,1.6v18.4c0,1.376-.992,2.432-2.912,2.784-.064.032-.224.1-.224.256s.1.224.256.224h7.2c.16,0,.256-.064.256-.224s-.16-.224-.352-.256c-1.76-.32-2.944-1.376-2.944-2.784V-20.448L178.336-.416c.48.672.576.8,1.28.8.288,0,.32-.256.32-1.088V-20.48c0-1.44.864-2.3,2.56-2.752C182.688-23.3,182.848-23.3,182.848-23.52Zm21.92,17.28V-6.3c0-.064-.064-.1-.256-.16a.242.242,0,0,0-.128-.032c-.128,0-.16.064-.224.192-1.5,2.944-2.464,4.384-4.448,5.152a30.067,30.067,0,0,1-5.536.32,23.987,23.987,0,0,1-3.392-.16c-.384-.1-.672-.512-.672-1.216v-9.536s5.376,0,5.824.032a3,3,0,0,1,1.6.768,9.044,9.044,0,0,1,1.536,3.3c0,.032.032.032.032.064a.315.315,0,0,0,.256.1c.16,0,.288-.064.288-.192v-.032a27.826,27.826,0,0,1-.512-4.576,29.574,29.574,0,0,1,.512-4.544v-.032c0-.128-.128-.192-.32-.192-.128,0-.224,0-.256.128a7.768,7.768,0,0,1-1.5,3.328,2.544,2.544,0,0,1-1.632.8c-.448.032-5.824.032-5.824.032V-22.816h6.976c2.912,0,4.9,1.536,6.08,4.864.064.16.128.192.224.192h.1c.128-.032.224-.1.224-.192v-.064a40.658,40.658,0,0,1-.8-5.6c-.064-.352-.224-.448-.352-.448H202.5a51.387,51.387,0,0,1-5.7.32H185.472c-.224,0-.256.032-.256.224,0,.224.064.224.224.256,1.792.192,2.3.736,2.3,1.728V-2.08c0,.864-.512,1.408-2.3,1.6-.192.032-.224.1-.224.256V-.16c0,.128.032.16.256.16h11.264c1.888,0,2.048.064,6.528.16.192,0,.32-.064.384-.48A58.632,58.632,0,0,1,204.768-6.24Zm28-12.544v-.064c0-.96-1.28-1.6-3.072-1.632h-.384c-1.856,0-4.16.7-6.656.7a11.747,11.747,0,0,1-1.472-.1h-.128c-.224,0-.224.1,0,.224a7.733,7.733,0,0,0,4.256,1.12,23.777,23.777,0,0,0,2.5-.16h.128c.288,0,.384.064.384.16a.63.63,0,0,1-.128.256c-.512.544-1.28,1.312-1.824,1.824a.652.652,0,0,0-.224.352.069.069,0,0,0,.064.064.737.737,0,0,0,.288-.1,22.337,22.337,0,0,1,3.968-1.7C231.68-18.112,232.7-17.664,232.768-18.784ZM216.416-12c0-.128-.032-.224-.1-.224-.1,0-.16.1-.256.288-1.024,2.5-1.728,4.352-2.592,6.624-.128.384-.288.576-.416.576-.16,0-.32-.256-.448-.768a13.155,13.155,0,0,1-.224-2.656,21.985,21.985,0,0,1,1.952-8.9c.352-.832.96-1.312,1.056-2.08v-.16a4.266,4.266,0,0,0-2.208-3.008,1.01,1.01,0,0,0-.48-.16c-.064,0-.1.032-.1.128a.8.8,0,0,0,.032.256,5.065,5.065,0,0,1,.16,1.312,9.495,9.495,0,0,1-.32,2.368,44.144,44.144,0,0,0-1.344,10.208,15.213,15.213,0,0,0,1.344,7.04c.48.864,1.024,1.184,1.472,1.184.64,0,1.12-.672,1.12-1.5a2.537,2.537,0,0,0-.16-.8,3.06,3.06,0,0,1-.16-1.12c0-1.7.736-4.288,1.632-8.288A1.2,1.2,0,0,0,216.416-12Zm17.728,8.768v-.16c-.1-.608-.96-.832-2.048-.832a9.839,9.839,0,0,0-1.344.1,35.033,35.033,0,0,1-4.352.288c-3.68,0-6.464-.864-6.464-3.68a5.75,5.75,0,0,1,.1-.992,1.326,1.326,0,0,0,.032-.32c0-.16-.032-.256-.1-.256-.1,0-.224.128-.352.416a6.738,6.738,0,0,0-.608,2.528c0,2.976,3.1,4.544,8.96,4.544a38.414,38.414,0,0,0,4.1-.224C233.152-1.952,234.144-2.432,234.144-3.232ZM265.6-20.864a2.365,2.365,0,0,0-.064-.384c-.288-.928-.864-1.5-2.432-1.5a4.08,4.08,0,0,0-.608.032,16.985,16.985,0,0,0-2.624.64c-6.016,1.28-11.9,2.784-14.432,3.3a11.1,11.1,0,0,1-2.272.32,2.681,2.681,0,0,1-1.536-.384.851.851,0,0,0-.448-.192c-.1,0-.16.064-.16.256a1.1,1.1,0,0,0,.032.288,3.941,3.941,0,0,0,3.2,2.816h.1c1.024-.064,1.728-.672,3.072-1.248a43.9,43.9,0,0,1,11.1-3.68,1.723,1.723,0,0,1,.352-.032c.1,0,.128,0,.128.032q0,.1-.48.288c-5.728,2.048-7.648,7.3-7.648,12,0,.416,0,.832.032,1.216.416,5.92,3.68,7.36,8.1,7.616.192,0,.416.032.608.032,1.312,0,2.4-.352,2.4-1.344V-.832c-.032-1.024-.9-1.344-2.688-1.344h-.768a5.813,5.813,0,0,1-6.144-5.5,16.238,16.238,0,0,1-.128-2.112c0-6.112,3.52-9.728,10.336-10.208C263.872-20.1,265.6-19.808,265.6-20.864ZM29.824,26.552a2.513,2.513,0,0,0-.288-1.088c-1.024-1.984-3.648-3.136-6.016-3.136a6.637,6.637,0,0,0-1.6.192c-.288.064-.416.128-.416.192s.16.1.416.128a6.372,6.372,0,0,1,4.448,2.368.886.886,0,0,1,.1.416.637.637,0,0,1-.384.608c-.544.256-.992.448-1.536.672-.288.128-.448.224-.448.256,0,.064.16.1.512.1H24.9a4.55,4.55,0,0,1,3.168.768.945.945,0,0,0,.416.064A1.445,1.445,0,0,0,29.824,26.552ZM28.032,36.44a5.424,5.424,0,0,0-3.584-5.248A8.387,8.387,0,0,0,21.5,30.68c-3.136,0-6.432,1.536-9.248,3.392a55.1,55.1,0,0,1,0-5.632,14.632,14.632,0,0,0,5.5-1.952,1.267,1.267,0,0,0,.608-.96c0-.576-.608-1.056-1.408-1.056a7.723,7.723,0,0,1-3.712-.9.866.866,0,0,0-.256-.1c-.032,0-.064,0-.064.032a.477.477,0,0,0,.192.224c.736.544,1.056.736,1.6,1.152a.668.668,0,0,1,.32.544.483.483,0,0,1-.288.448,22.723,22.723,0,0,1-2.368.7,21.751,21.751,0,0,1,.8-4.48c.192-.64.608-.96.64-1.536V20.5c0-1.12-1.408-2.176-2.944-2.176a3.1,3.1,0,0,0-1.312.256c-.256.1-.384.224-.384.352,0,.064.064.192.256.288a2.457,2.457,0,0,1,1.568,2.3c-.064,1.632-.1,3.424-.1,5.344a14.123,14.123,0,0,1-2.24.192c-1.472,0-2.624-.32-3.2-1.088-.16-.224-.256-.32-.352-.32-.032,0-.064.064-.064.128a1.579,1.579,0,0,0,.1.48c.544,1.728,2.112,2.4,4.384,2.4.416,0,.864-.032,1.344-.064v6.432c-1.728,1.216-3.712,2.56-4.992,3.584a2.552,2.552,0,0,1-1.408.64.912.912,0,0,1-.832-.576c-.16-.256-.32-.448-.448-.448-.064,0-.128.064-.192.224a2.911,2.911,0,0,0-.224,1.12,2.731,2.731,0,0,0,2.56,2.72H5.5c1.12-.128,1.472-1.024,2.208-2.112.768.736,1.856,1.536,2.144,2.72a1.308,1.308,0,0,0,1.312,1.088,1.571,1.571,0,0,0,1.12-.48,3.16,3.16,0,0,0,.64-2.08,10,10,0,0,0-.128-1.376,43.745,43.745,0,0,1-.48-4.48c2.88-2.3,5.888-3.936,8.736-3.936a7.114,7.114,0,0,1,2.784.576,3.721,3.721,0,0,1,2.24,3.52c0,2.08-1.472,4.384-4.672,5.248a4.528,4.528,0,0,1-1.28.16A3.125,3.125,0,0,1,16.8,37.752a7.358,7.358,0,0,1,.288-1.92,2.347,2.347,0,0,0,.128-.672q0-.192-.1-.192c-.1,0-.288.192-.512.608a6.827,6.827,0,0,0-.992,3.328c0,2.848,2.528,4.48,5.184,4.48a8.252,8.252,0,0,0,1.248-.128A7,7,0,0,0,28.032,36.44Zm-17.184.416c-.032.864-.064,1.728-.1,2.56-.032.736-.1.992-.544.992-.1,0-.192-.032-.32-.032A11.262,11.262,0,0,1,7.9,39.9,23.694,23.694,0,0,1,10.848,36.856Zm49.952-16c-.352-.352-2.048-1.792-2.464-2.112a.446.446,0,0,0-.288-.128c-.064,0-.1.032-.16.128-.32.48-1.088,1.568-1.248,1.728a.557.557,0,0,1-.448.16H41.152c.192-.352.384-.7.544-1.024.192-.416.512-.384,1.088-.416.32-.032.576-.192.576-.416,0-.192-.128-.384-.512-.544a28.715,28.715,0,0,0-2.816-1.056,1.258,1.258,0,0,0-.192-.064c-.1,0-.064.1-.1.224A21.576,21.576,0,0,1,33.888,27.8a.66.66,0,0,0-.224.448c0,.064.032.128.16.128a.848.848,0,0,0,.32-.1c.064-.032.1-.064.16-.1a19.46,19.46,0,0,0,6.5-6.912H60.608c.192,0,.32-.064.32-.192C60.928,21.016,60.9,20.952,60.8,20.856ZM57.312,24.44a26.414,26.414,0,0,0-2.144-1.888c-.224-.192-.352-.192-.512,0-.224.32-.928,1.248-1.152,1.568a.435.435,0,0,1-.416.224h-9.44a9.992,9.992,0,0,1-2.752-.288.814.814,0,0,0-.224-.064.085.085,0,0,0-.1.1c0,.064.032.1.032.16a3.584,3.584,0,0,0,.288.7c.1.16.16.192.288.192h.128a13.637,13.637,0,0,1,2.336-.16h13.44c.288,0,.416-.064.416-.192C57.5,24.7,57.44,24.6,57.312,24.44Zm4.96,13.44v-.128c0-.416-.288-.416-.448.032-.288.832-1.088,3.008-1.344,3.616-.16.352-.32.48-.48.48a.768.768,0,0,1-.512-.288c-2.4-2.464-3.3-5.024-3.392-11.552,0-.544.544-.608.8-.7.224-.1.416-.224.416-.416,0-.128-.1-.288-.32-.48-.32-.32-1.216-.96-1.728-1.344a.277.277,0,0,0-.192-.1.4.4,0,0,0-.256.128c-.192.224-.672.832-.928,1.12-.1.128-.128.16-.448.16H39.424a9.992,9.992,0,0,1-2.752-.288.814.814,0,0,0-.224-.064.085.085,0,0,0-.1.1c0,.064.032.1.032.16a3.584,3.584,0,0,0,.288.7c.1.16.16.192.288.192h.128a13.637,13.637,0,0,1,2.336-.16H54.048c0,6.048.9,13.152,6.208,16.032a2.287,2.287,0,0,0,1.056.32.942.942,0,0,0,1.024-.96,1.681,1.681,0,0,0-.192-.736,3.733,3.733,0,0,1-.384-1.824A28.779,28.779,0,0,1,62.272,37.88Zm-10.24,3.36a18.953,18.953,0,0,0-4.96-3.744,27.639,27.639,0,0,0,3.072-4.512c.064-.1.288-.16.736-.16h.288c.384,0,.608-.16.608-.384a.6.6,0,0,0-.384-.48,24.713,24.713,0,0,0-2.624-1.28.818.818,0,0,0-.352-.064c-.128,0-.192.064-.256.288a19.507,19.507,0,0,1-2.72,5.7,56.341,56.341,0,0,0-7.712-3.328.192.192,0,0,0-.128-.032c-.128,0-.192.1-.192.224a.326.326,0,0,0,.224.288,48.64,48.64,0,0,1,6.944,4,28.765,28.765,0,0,1-9.248,6.816c-.1.064-.16.128-.16.16,0,.1.128.192.256.192h.064a24.715,24.715,0,0,0,10.464-6.144,23.772,23.772,0,0,1,4.128,3.936,2.04,2.04,0,0,0,1.44.928,1.042,1.042,0,0,0,.992-1.152A2.116,2.116,0,0,0,52.032,41.24Zm42.08-12.064a.321.321,0,0,0,.256-.288c0-.1-.1-.192-.32-.224a19.778,19.778,0,0,1-7.04-2.048,24.411,24.411,0,0,0,3.936-5.7c.192-.384.448-.512,1.024-.608.384-.064.64-.192.64-.416,0-.16-.1-.32-.352-.512-.448-.416-1.568-1.248-1.856-1.5a.6.6,0,0,0-.32-.16c-.1,0-.16.064-.256.16s-.576.672-.832.9a.561.561,0,0,1-.448.192h-7.3A10.645,10.645,0,0,1,78.5,18.68a.625.625,0,0,0-.224-.032c-.064,0-.1,0-.1.064a.348.348,0,0,0,.032.16,2.517,2.517,0,0,0,.288.7c.1.16.16.192.288.192h.128c.32,0,1.152-.128,1.92-.16a19.4,19.4,0,0,0,3.936,7.136,24.507,24.507,0,0,1-6.176,4.192.342.342,0,0,0-.192.288.2.2,0,0,0,.224.224.625.625,0,0,0,.224-.032A20.111,20.111,0,0,0,85.824,27.7a19.4,19.4,0,0,0,6.592,3.424,1.623,1.623,0,0,0,.288.064c.192,0,.224-.128.256-.256C93.088,29.976,93.184,29.528,94.112,29.176ZM80.064,38.84c-.32-.352-1.536-1.44-2.048-1.856-.1-.064-.16-.128-.224-.128s-.128.064-.224.16c-.224.288-.992,1.28-1.152,1.472a.531.531,0,0,1-.512.192H73.792c0-1.28-.032-2.528-.032-3.776h2.656v.128c0,.64.224.832.832.832h.128c.736-.032.992-.16.992-.9V34.84c-.064-1.408-.1-3.008-.1-4.448,0-1.664.032-3.168.064-4,0-.352.256-.352.608-.608.256-.128.384-.256.384-.416a.7.7,0,0,0-.352-.512c-.352-.288-.96-.768-1.376-1.056a.52.52,0,0,0-.288-.128c-.064,0-.128.064-.224.16-.128.224-.576.736-.7.928a.426.426,0,0,1-.448.224H73.728c0-1.152.032-2.016.032-2.88h5.408c.288,0,.416-.064.416-.192a.442.442,0,0,0-.16-.288c-.32-.352-1.536-1.44-2.048-1.856-.1-.064-.16-.128-.224-.128s-.128.064-.224.16c-.224.288-.992,1.28-1.152,1.472a.531.531,0,0,1-.512.192h-1.5c.032-1.12.032-1.888.064-2.24.032-.288-.032-.672.416-.832.416-.128.608-.352.608-.512,0-.192-.192-.352-.576-.416a21.016,21.016,0,0,0-2.176-.352H71.9c-.128,0-.16,0-.16.1,0,.128.1.448.16,1.152.032.128.032,1.28.032,3.1H69.024a9.992,9.992,0,0,1-2.752-.288.814.814,0,0,0-.224-.064.085.085,0,0,0-.1.1c0,.064.032.1.032.16a3.583,3.583,0,0,0,.288.7c.1.16.16.192.288.192h.128a13.637,13.637,0,0,1,2.336-.16h2.912v2.88H69.7s-1.568-.928-2.08-1.184a.584.584,0,0,0-.288-.064c-.064,0-.1.032-.1.16a2.034,2.034,0,0,0,.1.48,28.687,28.687,0,0,1,.192,4.32c0,2.336-.064,5.056-.192,6.56v.224c0,.576.256.768.832.768h.128c.864-.032.992-.16.992-.992V34.9h2.656c0,1.248-.032,2.5-.032,3.776H68.672a9.992,9.992,0,0,1-2.752-.288.814.814,0,0,0-.224-.064.085.085,0,0,0-.1.1c0,.064.032.1.032.16a3.583,3.583,0,0,0,.288.7c.1.16.16.192.288.192h.128a13.637,13.637,0,0,1,2.336-.16H71.9c-.032,1.76-.064,3.52-.1,5.216,0,.64.128.864.864.864h.16c1.024-.032,1.056-.256,1.056-.992q-.048-2.592-.1-5.088h6.016c.288,0,.416-.064.416-.192A.442.442,0,0,0,80.064,38.84Zm14.208,4.64c-.416-.384-1.7-1.472-2.528-2.112a.63.63,0,0,0-.256-.128.231.231,0,0,0-.192.128c-.48.64-.8,1.056-1.344,1.728a.547.547,0,0,1-.416.224H86.592c-.032-.736-.064-1.856-.064-3.136,0-1.248.032-2.624.032-3.872h5.824c.288,0,.448-.1.448-.224,0-.1-.1-.192-.224-.32-.416-.352-1.536-1.312-2.048-1.728-.224-.192-.352-.192-.512,0-.256.32-.832,1.056-1.12,1.408a.609.609,0,0,1-.544.224H86.56c0-1.5.032-2.688.064-3.04.032-.288-.032-.672.416-.832.416-.128.608-.352.608-.512,0-.192-.192-.352-.576-.416-.992-.16-1.408-.256-2.336-.352-.128,0-.192-.032-.256-.032a.085.085,0,0,0-.1.1c0,.128.1.48.16,1.184.032.32.064,1.952.064,3.9h-1.92a9.992,9.992,0,0,1-2.752-.288.814.814,0,0,0-.224-.064.085.085,0,0,0-.1.1c0,.064.032.1.032.16a3.583,3.583,0,0,0,.288.7c.1.16.16.192.288.192h.128a13.637,13.637,0,0,1,2.336-.16H84.64c0,2.592,0,5.6-.064,7.008H80.064a9.993,9.993,0,0,1-2.752-.288.814.814,0,0,0-.224-.064.085.085,0,0,0-.1.1c0,.064.032.1.032.16a3.584,3.584,0,0,0,.288.7c.1.16.16.192.288.192h.128a13.637,13.637,0,0,1,2.336-.16H94.016c.288,0,.416-.1.416-.192A.339.339,0,0,0,94.272,43.48ZM89.024,19.608A16.8,16.8,0,0,1,85.7,25.72a15.132,15.132,0,0,1-4.256-6.112ZM76.48,29.3H73.728v-3.68h2.72c.032.576.032,1.408.032,2.4Zm-4.544,0H69.28c.032-1.536.032-2.848.032-3.68h2.624C71.968,26.776,71.968,27.992,71.936,29.3Zm4.544.64c0,1.376-.032,3.04-.064,4.32H73.76V32.056c0-.736,0-1.472-.032-2.112Zm-4.544,4.32H69.28v-4.32h2.656v4.32Zm50.528-10.048v-.064c0-.96-1.28-1.6-3.072-1.632h-.384c-1.856,0-4.16.7-6.656.7a11.748,11.748,0,0,1-1.472-.1h-.128c-.224,0-.224.1,0,.224a7.733,7.733,0,0,0,4.256,1.12,23.777,23.777,0,0,0,2.5-.16h.128c.288,0,.384.064.384.16a.63.63,0,0,1-.128.256c-.512.544-1.28,1.312-1.824,1.824a.651.651,0,0,0-.224.352.069.069,0,0,0,.064.064.737.737,0,0,0,.288-.1,22.337,22.337,0,0,1,3.968-1.7C121.376,24.888,122.4,25.336,122.464,24.216ZM106.112,31c0-.128-.032-.224-.1-.224-.1,0-.16.1-.256.288-1.024,2.5-1.728,4.352-2.592,6.624-.128.384-.288.576-.416.576-.16,0-.32-.256-.448-.768a13.156,13.156,0,0,1-.224-2.656,21.985,21.985,0,0,1,1.952-8.9c.352-.832.96-1.312,1.056-2.08V23.7A4.266,4.266,0,0,0,102.88,20.7a1.01,1.01,0,0,0-.48-.16c-.064,0-.1.032-.1.128a.8.8,0,0,0,.032.256,5.065,5.065,0,0,1,.16,1.312,9.495,9.495,0,0,1-.32,2.368,44.144,44.144,0,0,0-1.344,10.208,15.213,15.213,0,0,0,1.344,7.04c.48.864,1.024,1.184,1.472,1.184.64,0,1.12-.672,1.12-1.5a2.536,2.536,0,0,0-.16-.8,3.06,3.06,0,0,1-.16-1.12c0-1.7.736-4.288,1.632-8.288A1.2,1.2,0,0,0,106.112,31Zm17.728,8.768v-.16c-.1-.608-.96-.832-2.048-.832a9.838,9.838,0,0,0-1.344.1,35.033,35.033,0,0,1-4.352.288c-3.68,0-6.464-.864-6.464-3.68a5.75,5.75,0,0,1,.1-.992,1.325,1.325,0,0,0,.032-.32c0-.16-.032-.256-.1-.256-.1,0-.224.128-.352.416a6.738,6.738,0,0,0-.608,2.528c0,2.976,3.1,4.544,8.96,4.544a38.414,38.414,0,0,0,4.1-.224C122.848,41.048,123.84,40.568,123.84,39.768ZM151.232,22.52c0-.7-.992-1.44-2.944-1.44h-.32c-2.144.064-5.5.672-8.224.672a8.438,8.438,0,0,1-3.008-.416,1.106,1.106,0,0,0-.384-.1c-.1,0-.16.032-.16.128s.1.224.256.448c.96,1.056,2.016,1.5,5.568,1.5.8,0,1.76-.032,2.848-.064h.128c.288,0,.416.064.416.16s-.1.224-.288.384c-.608.608-1.408,1.472-2.336,2.272-.256.224-.288.416-.1.416a.511.511,0,0,0,.256-.1c2.816-1.408,4.352-2.272,5.536-2.528.96-.192,2.272-.064,2.688-1.024A1.137,1.137,0,0,0,151.232,22.52Zm6.048,3.648a1.684,1.684,0,0,0-.48-1.088,6.316,6.316,0,0,0-4.128-1.856h-.192q-.288,0-.288.1c0,.064.128.16.32.256a7.937,7.937,0,0,1,3.136,2.752,1.1,1.1,0,0,0,.928.608A.708.708,0,0,0,157.28,26.168Zm-2.624,2.08a1.731,1.731,0,0,0-.288-.9,6.49,6.49,0,0,0-4.128-2.3.8.8,0,0,0-.256-.032c-.16,0-.224.032-.224.1,0,.1.1.192.32.32a6.869,6.869,0,0,1,2.912,3.04c.256.576.576.8.864.8A.922.922,0,0,0,154.656,28.248Zm-.8,12.992c0-.576-.672-1.152-1.856-1.152a6.248,6.248,0,0,0-.736.064,43.684,43.684,0,0,1-6.72.48c-2.688,0-5.312-.256-6.784-.96a4.218,4.218,0,0,1-2.624-3.712,5.039,5.039,0,0,1,.992-2.88.933.933,0,0,0,.192-.48.151.151,0,0,0-.16-.16c-.128,0-.32.128-.544.384a6.174,6.174,0,0,0-1.824,4.1,5.192,5.192,0,0,0,3.072,4.544c2.048,1.056,5.792,1.472,9.408,1.472a43.484,43.484,0,0,0,5.7-.352C153.28,42.392,153.856,41.816,153.856,41.24Zm21.12-16.9c-.32-.32-1.6-1.568-2.112-1.952a.63.63,0,0,0-.256-.128.231.231,0,0,0-.192.128c-.192.288-.928,1.408-1.088,1.6a.531.531,0,0,1-.512.192h-1.024c0-2.592.032-4.48.064-4.96.032-.288-.032-.672.416-.832.416-.128.64-.352.64-.512,0-.192-.224-.352-.608-.416a23.318,23.318,0,0,0-2.368-.352h-.224c-.128,0-.16,0-.16.1,0,.128.1.448.16,1.152.032.192.064,2.528.064,5.824h-2.5a9.992,9.992,0,0,1-2.752-.288.814.814,0,0,0-.224-.064.085.085,0,0,0-.1.1c0,.064.032.1.032.16a3.584,3.584,0,0,0,.288.7c.1.16.16.192.288.192h.128a13.637,13.637,0,0,1,2.336-.16h2.24a38.436,38.436,0,0,1-5.856,13.024.541.541,0,0,0-.064.16.184.184,0,0,0,.192.192.243.243,0,0,0,.128-.064,32.7,32.7,0,0,0,5.888-8.352c0,5.824-.032,12.224-.192,14.752v.128c0,.544.224.736.928.736h.16c.992-.032,1.216-.224,1.216-.864v-.128c-.1-2.336-.128-7.456-.128-12.48V27.384a10.207,10.207,0,0,1,2.464,5.184.9.9,0,0,0,.864.768,1.144,1.144,0,0,0,1.088-1.248.886.886,0,0,0-.032-.288c-.384-2.368-2.624-3.84-4.384-4.992V24.824h4.96c.256,0,.384-.1.384-.192A.339.339,0,0,0,174.976,24.344Zm13.888-4.736c-.384-.32-1.28-1.024-1.7-1.344a.432.432,0,0,0-.32-.16c-.1,0-.16.064-.256.192-.16.224-.608.8-.768.992a.475.475,0,0,1-.48.224h-7.072s-1.792-.992-2.368-1.248a.737.737,0,0,0-.288-.1c-.1,0-.128.064-.128.192a1.741,1.741,0,0,0,.128.544,74.176,74.176,0,0,1,.32,9.632c0,5.376-.128,11.776-.288,15.776v.16c0,.7.224.928.9.928h.128c.928-.032,1.152-.192,1.152-1.088v-1.28h8.064c0,.416-.032.864-.032,1.248v.16c0,.7.224.928.9.928h.128c.832-.032,1.12-.16,1.12-.96V44.28c-.1-2.88-.1-6.368-.1-9.792,0-6.112.064-11.9.1-13.312,0-.384.256-.384.672-.64q.48-.24.48-.48A.647.647,0,0,0,188.864,19.608Zm-2.88,6.784h-8.128v-6.24h8.1c.032.576.032,1.888.032,3.744Zm0,7.52h-8.128v-6.88h8.128v6.88Zm0,.64c-.032,2.784-.032,5.568-.1,7.84h-8.064c0-2.368,0-5.12.032-7.84Zm17.632-15.264c-.128-.16-1.6-1.44-1.952-1.728-.128-.1-.192-.128-.256-.128a.231.231,0,0,0-.192.128c-.32.384-.9,1.184-1.056,1.344a.557.557,0,0,1-.448.16h-1.888a9.992,9.992,0,0,1-2.752-.288.814.814,0,0,0-.224-.064.085.085,0,0,0-.1.1c0,.064.032.1.032.16a3.584,3.584,0,0,0,.288.7c.1.16.16.192.288.192h.128a13.637,13.637,0,0,1,2.336-.16h5.568c.192,0,.352-.064.352-.192C203.744,19.448,203.712,19.384,203.616,19.288Zm16.992,1.344c-.576-.448-1.408-1.056-2.048-1.472-.1-.1-.16-.16-.224-.16s-.1.1-.192.256a12.039,12.039,0,0,1-3.68,4.544.243.243,0,0,0-.064.128.151.151,0,0,0,.16.16.242.242,0,0,0,.128-.032,14.42,14.42,0,0,0,4.8-2.816.383.383,0,0,1,.256-.128c.128,0,.256.1.576.128h.1c.192,0,.384-.128.384-.288A.437.437,0,0,0,220.608,20.632Zm-15.68,2.56c-.32-.288-1.376-1.248-2.176-1.856a.63.63,0,0,0-.256-.128.231.231,0,0,0-.192.128c-.512.64-.672.9-1.152,1.472a.547.547,0,0,1-.416.224h-4.064a9.992,9.992,0,0,1-2.752-.288.814.814,0,0,0-.224-.064.085.085,0,0,0-.1.1c0,.064.032.1.032.16a3.584,3.584,0,0,0,.288.7c.1.16.16.192.288.192h.128a13.637,13.637,0,0,1,2.336-.16h7.968C205.12,23.672,205.216,23.448,204.928,23.192Zm3.68-3.616c-.032-.224-.128-.32-.224-.32s-.224.128-.256.384c-.288,3.36-2.368,3.776-2.56,5.056,0,.1-.032.16-.032.224a.915.915,0,0,0,.96.928,1.284,1.284,0,0,0,.48-.1c.928-.448,1.824-1.664,1.824-4.032A13.616,13.616,0,0,0,208.608,19.576Zm11.872,9.376c-1.44-1.7-4.544-3.1-7.424-3.872a26.8,26.8,0,0,0,.8-6.56c0-.32.224-.352.576-.416.224-.032.352-.16.352-.288s-.1-.256-.32-.288c-.928-.192-1.664-.288-2.464-.416h-.032a.117.117,0,0,0-.128.128c0,.064.032.16.032.224v1.184c0,6.688-1.152,9.856-7.1,12.448a.176.176,0,0,0-.1.16c0,.1.064.192.224.192h.064c4.768-1.152,6.912-3.008,7.936-5.856a17.746,17.746,0,0,1,6.144,4.9,1,1,0,0,0,.8.448,1.063,1.063,0,0,0,.992-1.088A1.335,1.335,0,0,0,220.48,28.952ZM203.968,27.32c-.288-.256-1.664-1.28-2.016-1.568-.128-.1-.192-.128-.256-.128a.231.231,0,0,0-.192.128c-.32.384-.832,1.024-.992,1.184a.557.557,0,0,1-.448.16h-2.24a9.992,9.992,0,0,1-2.752-.288.814.814,0,0,0-.224-.064.085.085,0,0,0-.1.1c0,.064.032.1.032.16a3.584,3.584,0,0,0,.288.7c.1.16.16.192.288.192h.128a13.637,13.637,0,0,1,2.336-.16h5.92c.192,0,.352-.1.352-.224A.231.231,0,0,0,203.968,27.32Zm0,4.1c-.32-.288-1.632-1.28-2.016-1.568-.128-.1-.192-.128-.256-.128a.231.231,0,0,0-.192.128c-.32.384-.832,1.024-.992,1.184a.557.557,0,0,1-.448.16h-2.24a9.992,9.992,0,0,1-2.752-.288.814.814,0,0,0-.224-.064.085.085,0,0,0-.1.1c0,.064.032.1.032.16a3.584,3.584,0,0,0,.288.7c.1.16.16.192.288.192h.128a13.637,13.637,0,0,1,2.336-.16h5.92c.224,0,.352-.064.352-.192C204.1,31.576,204.064,31.512,203.968,31.416Zm4.352.9c0-.224-.1-.32-.192-.32-.128,0-.224.128-.288.352-.64,3.424-2.752,3.776-2.976,5.056a1.089,1.089,0,0,0-.032.32.915.915,0,0,0,.96.928,1.129,1.129,0,0,0,.448-.1c1.088-.448,2.176-1.856,2.176-4.7A13.182,13.182,0,0,0,208.32,32.312Zm13.92,10.816c.1,0,.128-.1.128-.16a.269.269,0,0,0-.128-.224c-3.04-.832-5.888-2.144-7.424-5.44a16.7,16.7,0,0,0,5.024-3.1.467.467,0,0,1,.256-.16c.128,0,.256.1.576.128h.1c.192,0,.384-.128.384-.288a.4.4,0,0,0-.224-.32c-.576-.416-1.44-.992-2.08-1.408a.4.4,0,0,0-.224-.128c-.064,0-.128.064-.192.256a12.582,12.582,0,0,1-3.776,4.672,15.183,15.183,0,0,1-.992-5.152c0-.32.032-.608.032-.928s.224-.352.576-.416c.224-.032.352-.16.352-.288s-.1-.256-.32-.288c-.928-.192-1.664-.288-2.464-.416h-.032a.117.117,0,0,0-.128.128c0,.064.032.16.032.224V30.2c0,8.416-3.168,12.224-9.664,14.848a.176.176,0,0,0-.1.16c0,.1.064.192.224.192h.064c6.464-1.6,10.016-4.736,11.1-10.976.64,5.024,2.5,8.448,7.04,10.624a.348.348,0,0,0,.16.032c.1,0,.16-.032.192-.192C220.992,43.576,221.664,43.224,222.24,43.128Zm-18.528-7.616c-.352-.32-1.056-.9-1.472-1.216a.52.52,0,0,0-.288-.128c-.1,0-.16.064-.224.16-.16.192-.608.7-.768.9-.064.128-.16.192-.448.192h-2.976s-1.6-.9-2.144-1.12a.511.511,0,0,0-.256-.1c-.1,0-.128.032-.128.16a1.61,1.61,0,0,0,.128.512,13.992,13.992,0,0,1,.256,3.456c0,1.888-.1,4.1-.192,5.7v.192c0,.576.256.768.832.768h.128c.832-.032.96-.16.96-.96V42.2h3.9a4.726,4.726,0,0,0-.032.672V43c0,.7.224.864.928.864.768-.032,1.024-.16,1.024-.864v-.128c-.032-1.024-.032-1.888-.032-2.688,0-1.12,0-2.144.032-3.264,0-.352.224-.352.608-.576.288-.128.384-.288.384-.416A.676.676,0,0,0,203.712,35.512Zm-2.656.544c0,.7.032,1.376.032,2.08,0,1.024-.032,2.112-.064,3.424h-3.9V39.672c0-1.408,0-2.528.032-3.616Zm44,7.872a2.38,2.38,0,0,0-.192-.9c-2.048-4.672-5.888-7.84-10.048-10.528a1.472,1.472,0,0,1-.8-1.216,2.024,2.024,0,0,1,.928-1.472,87.647,87.647,0,0,0,8.064-7.136c.9-.96,1.44-1.088,1.792-1.728a1.488,1.488,0,0,0,.16-.672c0-1.184-1.28-2.72-3.84-2.816H240.9c-.256,0-.352.032-.352.1s.16.224.384.48a2.213,2.213,0,0,1,.736,1.5,3.477,3.477,0,0,1-.736,1.792,36.5,36.5,0,0,1-6.976,7.776,3.228,3.228,0,0,0-1.28,2.368,2.383,2.383,0,0,0,1.248,2.048c5.024,3.36,5.824,5.056,7.776,10.08.544,1.408,1.312,1.952,1.984,1.952A1.5,1.5,0,0,0,245.056,43.928Zm40.8-22.144a1.8,1.8,0,0,0-.736-1.28,5.318,5.318,0,0,0-3.36-.96,8.948,8.948,0,0,0-1.28.1c-.256.032-.416.1-.416.16,0,.1.128.192.384.256a7.676,7.676,0,0,1,3.84,2.016,1.2,1.2,0,0,0,.9.48A.7.7,0,0,0,285.856,21.784Zm-2.976,2.56a1.843,1.843,0,0,0-.576-1.28,6.223,6.223,0,0,0-4.192-1.376H277.7c-.352.032-.512.1-.512.192s.128.192.384.256a7.2,7.2,0,0,1,3.744,2.432,1.181,1.181,0,0,0,.928.608C282.624,25.176,282.88,24.824,282.88,24.344Zm1.344,5.088a1.376,1.376,0,0,0-.224-.7c-.672-1.216-2.944-1.984-5.248-1.984a7.76,7.76,0,0,0-4.16,1.088c-.192.16-.32.288-.32.352s.064.1.192.1c.064,0,.128-.032.192-.032a12.092,12.092,0,0,1,2.272-.224,7.63,7.63,0,0,1,3.072.544c.352.16.512.288.512.448,0,.1-.064.224-.256.32-.736.416-1.792,1.088-2.784,1.76-.288.192-.416.32-.416.384,0,.032.032.064.1.064a1.442,1.442,0,0,0,.512-.128,12.316,12.316,0,0,1,4.256-1.024,6.816,6.816,0,0,1,.864.064h.224A1.1,1.1,0,0,0,284.224,29.432Zm-10.272-5.376a.945.945,0,0,0-.992-.928.886.886,0,0,0-.288.032,2.51,2.51,0,0,1-.7.064,12.918,12.918,0,0,1-2.816-.544.625.625,0,0,0-.224-.032c-.064,0-.1,0-.1.032,0,.064.064.128.224.192.64.288,1.024.48,1.5.7a.4.4,0,0,1,.288.352.433.433,0,0,1-.288.384,10.886,10.886,0,0,1-2.72.864c.544-1.664,1.024-3.04,1.472-4.032.192-.448.48-.48.576-1.088v-.128c0-1.024-1.664-2.176-3.584-2.176a4.507,4.507,0,0,0-.64.032c-.32.032-.48.128-.48.256s.16.256.48.384c.736.288,1.184.576,1.184,1.856a9.158,9.158,0,0,1-.1,1.184,26.409,26.409,0,0,1-.736,3.936c-.576.032-1.184.064-1.824.064a10.713,10.713,0,0,1-4.288-.64.979.979,0,0,0-.48-.224.117.117,0,0,0-.128.128,1.261,1.261,0,0,0,.16.448c.576,1.248,2.784,1.984,5.92,1.984h.192a45.97,45.97,0,0,1-5.312,12.288,4.917,4.917,0,0,0-.96,2.528c0,.864.448,1.344,1.024,1.344.544,0,1.184-.416,1.632-1.376,1.824-3.712,3.68-9.952,5.248-14.88,2.368-.224,4.928-.96,6.144-1.952A1.371,1.371,0,0,0,273.952,24.056Zm9.92,18.368c0-.64-.576-1.248-1.728-1.248a2.587,2.587,0,0,0-.48.032,37.461,37.461,0,0,1-4.32.352,6.73,6.73,0,0,1-4.448-1.216,3.718,3.718,0,0,1-1.28-2.816,4.932,4.932,0,0,1,.288-1.536.75.75,0,0,0,.064-.352c0-.128-.032-.192-.128-.192s-.224.128-.416.352a4.685,4.685,0,0,0-.9,2.816,4.471,4.471,0,0,0,1.152,3.072c1.632,1.792,4.576,2.272,7.2,2.272a23.094,23.094,0,0,0,3.776-.32C283.456,43.48,283.872,42.968,283.872,42.424Zm29.472-6.848a3.449,3.449,0,0,0-.64-1.952,68.383,68.383,0,0,0-6.368-7.552,17.307,17.307,0,0,0,4.576-2.048,1.86,1.86,0,0,0,.8-1.408c0-.672-.544-1.248-1.568-1.248a4.809,4.809,0,0,0-.64.064,9.793,9.793,0,0,1-1.792.192A4.189,4.189,0,0,1,304,19.736a3.106,3.106,0,0,0-2.528-1.248,3.238,3.238,0,0,0-2.08.736,2.026,2.026,0,0,0-.672,1.536,1.815,1.815,0,0,0,.96,1.632,20.108,20.108,0,0,1,3.552,2.656,27.667,27.667,0,0,1-5.5.672,7.2,7.2,0,0,1-3.712-.768,1.765,1.765,0,0,0-.608-.288.069.069,0,0,0-.064.064,2.173,2.173,0,0,0,.256.544c.832,1.472,2.72,2.08,5.152,2.08a26.787,26.787,0,0,0,5.984-.832,35.886,35.886,0,0,1,5.28,7.008,1.372,1.372,0,0,1,.192.544c0,.192-.128.256-.32.256a2.444,2.444,0,0,1-.672-.16,22.149,22.149,0,0,0-7.136-1.344c-4.288,0-6.944,1.856-7.168,4.832,0,.192-.032.384-.032.576,0,4.128,3.776,6.208,10.4,6.208h.864c1.536-.032,2.176-.512,2.176-1.28v-.192c-.1-.672-.832-1.12-2.3-1.12a8.393,8.393,0,0,0-.864.032,14.745,14.745,0,0,1-1.664.064c-4.768,0-7.392-2.016-7.392-4.128v-.192c.192-2.688,2.528-3.968,5.472-3.968a14.3,14.3,0,0,1,6.784,1.92c1.44.8,2.144,1.888,3.3,1.888a3.054,3.054,0,0,0,.672-.128A1.707,1.707,0,0,0,313.344,35.576Zm-5.5-12.64a.837.837,0,0,1-.512.64A10.6,10.6,0,0,1,304.96,24.6c-1.248-1.312-2.4-2.5-3.328-3.424a1.008,1.008,0,0,1-.32-.7.973.973,0,0,1,1.024-.928,1.442,1.442,0,0,1,1.056.512,7.517,7.517,0,0,0,3.808,2.336C307.648,22.52,307.84,22.712,307.84,22.936Zm41.088,10.3a9.881,9.881,0,0,0-6.4-9.12,1.524,1.524,0,0,0-.608-.16c-.064,0-.1.032-.1.064,0,.064.16.256.448.512,2.528,2.336,3.744,4.224,3.872,6.944v.288c0,.672-.224.96-.608.96a.545.545,0,0,1-.224-.032,2.554,2.554,0,0,0-.512-.1c-.064,0-.1.032-.1.064a2.38,2.38,0,0,0,.224.576c.416.928.1,2.272,1.344,2.688a1.812,1.812,0,0,0,.576.1C348.064,36.024,348.928,34.648,348.928,33.24Zm-16.064.224c0-.064-.032-.1-.064-.1a1.132,1.132,0,0,0-.48.384c-1.408,1.6-2.048,2.5-3.392,3.968-.32.352-.576.576-.832.576-.224,0-.448-.224-.736-.672a10.046,10.046,0,0,1-1.312-5.344,21.583,21.583,0,0,1,.7-5.216,9.321,9.321,0,0,0,.512-2.208,2.266,2.266,0,0,0-.032-.448c-.16-.8-.64-1.792-2.784-2.528a1.605,1.605,0,0,0-.448-.1c-.1,0-.128.032-.128.128a1.611,1.611,0,0,0,.16.48,5.137,5.137,0,0,1,.576,2.56c0,.48-.032,1.024-.1,1.664-.1,1.312-.128,2.528-.128,3.712,0,4.928.864,8.64,3.232,11.136a2.859,2.859,0,0,0,1.888.992,1.058,1.058,0,0,0,1.12-1.12,2.2,2.2,0,0,0-.064-.416,5.286,5.286,0,0,1-.16-1.184,4.74,4.74,0,0,1,.352-1.728c.64-1.408,1.088-2.336,1.952-4.032A1.213,1.213,0,0,0,332.864,33.464Z" transform="translate(-2.784 25.6)"/></svg>