<svg xmlns="http://www.w3.org/2000/svg" width="157.609" height="109.681" viewBox="0 0 157.609 109.681"><path d="M81.653-53.2c0-29.315-10.725-54.626-36.036-54.626-25.454,0-35.75,25.168-35.75,54.626,0,30.745,10.725,55.055,35.75,55.055C70.928,1.859,81.653-22.022,81.653-53.2ZM70.5-53.053c0,32.747-10.01,49.907-24.882,49.907S20.735-20.306,20.735-53.053c0-31.46,10.01-50.193,24.882-50.193S70.5-84.513,70.5-53.053Zm96.954,29.315c.143-.429-.429-.572-.715-.572h-.429c-.286,0-.429,0-.572.286-6.721,13.3-14.014,13.442-25.454,14.586-7.579.715-18.3.858-25.74.858h-8.294c3.861-11.869,15.3-24.6,29.744-33.176,25.025-13.728,29.172-24.167,29.172-38.181,0-16.731-12.584-27.885-32.318-27.885-20.735,0-30.888,13.013-30.888,25.6,0,4.147,1.716,9.581,7.865,9.581a6.785,6.785,0,0,0,6.864-7.007c0-4.719-3.718-6.578-3.718-11.3,0-7.293,6.578-11.726,19.877-11.726,12.012,0,20.735,8.151,20.735,21.736,0,10.153-1.43,19.734-20.878,32.747C118.118-38.324,103.961-22.737,98.1-5.005a19.7,19.7,0,0,0-.858,3.718c0,.715.286,1.287,1,1.287H161.3c1,0,1.287-.572,1.573-1.859A110.453,110.453,0,0,1,167.453-23.738Z" transform="translate(-9.867 107.822)" fill="#c09c56"/></svg>