<svg xmlns="http://www.w3.org/2000/svg" width="156.442" height="109.681" viewBox="0 0 156.442 109.681"><path d="M81.653-53.2c0-29.315-10.725-54.626-36.036-54.626-25.454,0-35.75,25.168-35.75,54.626,0,30.745,10.725,55.055,35.75,55.055C70.928,1.859,81.653-22.022,81.653-53.2ZM70.5-53.053c0,32.747-10.01,49.907-24.882,49.907S20.735-20.306,20.735-53.053c0-31.46,10.01-50.193,24.882-50.193S70.5-84.513,70.5-53.053Zm95.81,23.881c0-14.872-14.3-27.17-27.313-27.313-1.859,0-2.86-.143-2.86-.429,0-.143,1-.286,2.717-.429,12.584-1.144,23.166-10.01,23.166-25.168,0-14.586-12.155-25.311-31.889-25.311-17.16,0-30.888,9.867-30.888,21.736,0,3.718,2,7.436,7.007,7.436,4.29,0,7.007-2.145,7.007-6.578,0-2.86-2.574-4.719-2.574-9.152,0-4.862,7.579-8.58,18.733-8.58,11.44,0,22.451,7.436,22.451,21.021,0,17.732-13.871,22.451-30.888,22.88-3,.143-3.575.572-3.575,2,0,1.859.858,2.145,3,2.145,22.737.143,34.749,9.581,34.749,28.028,0,16.016-12.441,24.024-25.168,24.024-27.17,0-13.728-24.453-27.742-24.453-4.719,0-6.149,4-6.149,7.293,0,12.012,13.3,21.736,34.177,21.736C150.722,1.716,166.309-8.294,166.309-29.172Z" transform="translate(-9.867 107.822)" fill="#c09c56"/></svg>