<svg xmlns="http://www.w3.org/2000/svg" width="345.536" height="71.32" viewBox="0 0 345.536 71.32"><path d="M30.208-16.96c-.416-.384-1.7-1.472-2.528-2.112a.63.63,0,0,0-.256-.128.231.231,0,0,0-.192.128c-.48.64-.8,1.056-1.344,1.728a.547.547,0,0,1-.416.224H19.584c0-2.752,0-5.344.032-6.656v-.1c0-.288.032-.608.448-.736.384-.128.576-.352.576-.512,0-.192-.192-.352-.576-.416-.608-.1-1.6-.224-2.4-.352a1.029,1.029,0,0,0-.256-.032c-.1,0-.128.032-.128.128,0,.16.1.512.192,1.152.032.288.032,3.616.032,7.52H9.536v-1.44c0-1.824-.032-3.456-.032-4.96,0-.512.032-.48.448-.64s.608-.352.608-.544-.224-.352-.608-.416c-.7-.1-2.016-.32-2.5-.384a1.386,1.386,0,0,1-.16-.032c-.128,0-.16.032-.16.128,0,.128.1.384.128.7.064.672.16,3.1.16,5.984,0,3.04-.1,6.624-.352,9.216A18.34,18.34,0,0,1,1.888,1.664a.611.611,0,0,0-.224.384.146.146,0,0,0,.16.128,1.16,1.16,0,0,0,.416-.16c4.1-2.432,6.112-6.528,6.784-10.88.032-.288.064-.48.1-.672H19.9c.032,1.12.064,3.008.064,5.024s-.032,4.16-.1,5.824v.16c0,.7.224.928.928.928h.128c.864-.032,1.152-.192,1.152-.96V1.312c-.064-2.08-.1-3.872-.1-5.408,0-1.792.032-3.264.064-4.416,0-.384.256-.384.672-.64q.48-.24.48-.48a.647.647,0,0,0-.288-.448c-.384-.32-1.312-1.024-1.728-1.344a.432.432,0,0,0-.32-.16c-.1,0-.16.064-.256.192-.16.224-.64.8-.8.992a.475.475,0,0,1-.48.224H9.184c.224-1.984.32-4.16.352-6.3H29.952c.288,0,.416-.1.416-.192A.339.339,0,0,0,30.208-16.96Zm28.7-6.784c-.352-.288-1.344-.992-1.792-1.312a.446.446,0,0,0-.288-.128c-.064,0-.128.064-.224.16-.192.224-.608.8-.768.992a.475.475,0,0,1-.48.224H40.544s-1.888-.96-2.4-1.216a.584.584,0,0,0-.288-.064c-.064,0-.1.032-.1.16a2.034,2.034,0,0,0,.1.48,46.832,46.832,0,0,1,.192,5.664c0,3.1-.064,6.656-.192,8.16v.192c0,.608.32.8.928.8h.128c.832-.032,1.216-.16,1.216-.9v-.1c0-.32,0-.64-.032-.992H55.9c0,.32-.032.64-.032.9v.1c0,.7.352.928.992.928h.128c.8-.032,1.184-.192,1.152-1.024-.064-1.408-.1-3.68-.1-5.824,0-2.5.032-4.864.064-5.7,0-.352.32-.416.672-.672.288-.128.416-.256.416-.416A.662.662,0,0,0,58.912-23.744ZM51.232-7.52c-.672-.928-2.816-1.888-5.312-2.4-.064,0-.1-.032-.128-.032-.16,0-.288.1-.288.192s.064.192.224.256C48.192-8.128,48.8-6.464,49.5-5.632a1.265,1.265,0,0,0,.928.48,1.277,1.277,0,0,0,1.184-1.312A1.789,1.789,0,0,0,51.232-7.52Zm10.56,4.48c-.256-1.6-2.272-3.36-4.96-4.928a.511.511,0,0,0-.256-.1c-.128,0-.192.1-.192.224a.481.481,0,0,0,.128.352,10.816,10.816,0,0,1,2.88,5.44,1.18,1.18,0,0,0,1.12.9,1.422,1.422,0,0,0,1.312-1.536A1.435,1.435,0,0,0,61.792-3.04ZM38.784-8.16c-.032-.224-.128-.32-.224-.32s-.224.1-.256.288c-.832,3.392-1.792,4.416-3.424,5.5A1.454,1.454,0,0,0,34.144-1.5,1.289,1.289,0,0,0,35.488-.288a1.714,1.714,0,0,0,.832-.224c1.76-.928,2.5-3.2,2.5-6.432C38.816-7.328,38.816-7.744,38.784-8.16Zm16.9,6.912c-.48-.288-.544-.192-.544-1.664V-5.376c0-.224-.1-.352-.224-.352-.1,0-.192.1-.224.352C53.856-1.312,53.952-.928,52.352-.7c-.832.1-2.624.192-4.32.192A21.336,21.336,0,0,1,44.9-.672c-.96-.16-1.024-.352-1.056-1.056-.032-.416-.032-1.5-.032-2.464,0-.672,0-1.312.032-1.568.032-.352,0-.64.48-.8.544-.192.768-.416.768-.608,0-.256-.288-.448-.736-.544-.928-.192-1.7-.256-2.432-.384a1.132,1.132,0,0,1-.192-.032.17.17,0,0,0-.192.192c0,.192.064.512.128,1.056.064.608.1,2.432.1,4.064,0,.864,0,1.7-.032,2.208V-.48c0,1.312,1.056,1.632,1.888,1.76a32.5,32.5,0,0,0,4.448.224A42.368,42.368,0,0,0,54.72,1.12c.96-.256,1.568-.864,1.568-1.44A1.091,1.091,0,0,0,55.68-1.248ZM55.936-18.5H48.8c0-1.6.032-3.04.032-4.672H55.9C55.936-22.368,55.936-20.608,55.936-18.5Zm-9.12,0H40.1c.032-2.144.064-3.872.064-4.672h6.624C46.784-21.536,46.816-20.064,46.816-18.5Zm9.12.64c0,1.92,0,4.032-.032,5.6H48.832c-.032-1.888-.032-3.776-.032-5.6Zm-9.12,0c0,1.824,0,3.712-.032,5.6H40.1c-.032-1.76-.032-3.808,0-5.6Zm46.112,8.1a9.881,9.881,0,0,0-6.4-9.12,1.524,1.524,0,0,0-.608-.16c-.064,0-.1.032-.1.064,0,.064.16.256.448.512,2.528,2.336,3.744,4.224,3.872,6.944v.288c0,.672-.224.96-.608.96a.545.545,0,0,1-.224-.032,2.553,2.553,0,0,0-.512-.1c-.064,0-.1.032-.1.064a2.381,2.381,0,0,0,.224.576c.416.928.1,2.272,1.344,2.688a1.812,1.812,0,0,0,.576.1C92.064-6.976,92.928-8.352,92.928-9.76Zm-16.064.224c0-.064-.032-.1-.064-.1a1.132,1.132,0,0,0-.48.384c-1.408,1.6-2.048,2.5-3.392,3.968-.32.352-.576.576-.832.576-.224,0-.448-.224-.736-.672a10.046,10.046,0,0,1-1.312-5.344,21.584,21.584,0,0,1,.7-5.216,9.32,9.32,0,0,0,.512-2.208,2.267,2.267,0,0,0-.032-.448c-.16-.8-.64-1.792-2.784-2.528a1.605,1.605,0,0,0-.448-.1c-.1,0-.128.032-.128.128a1.612,1.612,0,0,0,.16.48,5.137,5.137,0,0,1,.576,2.56c0,.48-.032,1.024-.1,1.664-.1,1.312-.128,2.528-.128,3.712,0,4.928.864,8.64,3.232,11.136A2.859,2.859,0,0,0,73.5-.544a1.058,1.058,0,0,0,1.12-1.12,2.2,2.2,0,0,0-.064-.416,5.286,5.286,0,0,1-.16-1.184,4.74,4.74,0,0,1,.352-1.728C75.392-6.4,75.84-7.328,76.7-9.024A1.213,1.213,0,0,0,76.864-9.536Zm30.976-2.24a2.226,2.226,0,0,0-2.24-2.24,2.226,2.226,0,0,0-2.24,2.24A2.256,2.256,0,0,0,105.6-9.6,2.256,2.256,0,0,0,107.84-11.776Zm18.048-13.152c-.928-.384-1.7-.608-2.656-.928-.064,0-.1-.032-.128-.032-.16,0-.1.192-.16.384a17.838,17.838,0,0,1-5.664,7.84.647.647,0,0,0-.192.352.151.151,0,0,0,.16.16.737.737,0,0,0,.288-.1,20.434,20.434,0,0,0,7.3-6.624c.192-.256.48-.288.864-.288.416-.032.576-.16.576-.32A.581.581,0,0,0,125.888-24.928ZM145.28.224c.192-.064.288-.16.288-.256s-.1-.16-.288-.192a19.112,19.112,0,0,1-8.128-2.08,20.631,20.631,0,0,0,3.84-4.384,1.373,1.373,0,0,1,1.024-.672c.384-.032.64-.192.64-.416a.722.722,0,0,0-.352-.544c-.48-.416-1.408-1.12-1.728-1.376a.6.6,0,0,0-.32-.16.442.442,0,0,0-.288.16l-.928.928a.5.5,0,0,1-.48.192h-5.888a19.127,19.127,0,0,0,1.216-2.592h5.952c.032.544.288.736.864.736h.16c.832-.032,1.12-.16,1.12-.864v-.224c-.1-1.536-.128-2.784-.128-3.84,0-.9.032-1.632.1-2.368.032-.384.352-.384.768-.64.32-.16.448-.32.448-.512a.6.6,0,0,0-.256-.416c-.416-.32-1.312-.992-1.792-1.28a.674.674,0,0,0-.352-.128c-.064,0-.128.064-.224.16-.192.224-.544.608-.768.832a.505.505,0,0,1-.48.224h-8.32s-1.632-.768-2.464-1.056a16.324,16.324,0,0,0,1.5-1.44h14.368c.288,0,.416-.064.416-.192,0-.1-.064-.192-.192-.352a26.416,26.416,0,0,0-2.144-1.888c-.224-.192-.352-.192-.512,0-.224.32-.928,1.248-1.152,1.568a.435.435,0,0,1-.416.224H130.56c.352-.416.64-.864.96-1.28a1.105,1.105,0,0,1,.864-.448c.384-.064.544-.256.544-.448a.409.409,0,0,0-.384-.384c-.416-.064-1.856-.448-2.976-.672H129.5c-.192,0-.128.224-.16.384-.512,2.4-1.568,4.128-4.128,6.624-.224.192-.224.448,0,.448a.715.715,0,0,0,.32-.1,22.475,22.475,0,0,0,2.656-1.76c.032.1.064.224.128.384a10.4,10.4,0,0,1,.256,2.88c0,1.664-.1,3.744-.256,5.664v.256c0,.64.224.832.9.832h.128c.864-.032,1.12-.16,1.152-.928h1.056c-.96,3.52-2.848,6.016-6.528,8.864a.231.231,0,0,0-.128.192.282.282,0,0,0,.288.256.348.348,0,0,0,.16-.032,17.606,17.606,0,0,0,6.112-4.864,18.5,18.5,0,0,0,3.1,4.224c-2.368,1.664-5.408,2.976-10.112,4.416a.265.265,0,0,0-.224.256c0,.1.1.224.352.224h.128c4.992-.832,8.672-2.112,11.1-3.712A21.431,21.431,0,0,0,143.392,2.3a.8.8,0,0,0,.256.032c.192,0,.288-.1.288-.224A1.9,1.9,0,0,1,145.28.224Zm-19.264-18.08c-.672-.32-1.6-.608-2.432-.928a.814.814,0,0,0-.224-.064c-.1,0-.1.1-.16.32A25.81,25.81,0,0,1,117.088-8.7a.611.611,0,0,0-.224.384c0,.1.064.16.192.16a.607.607,0,0,0,.288-.1,20.506,20.506,0,0,0,3.52-3.072c0,1.632.032,3.488.032,5.408,0,2.368-.032,4.864-.1,7.232v.16c0,.7.224.928.9.928h.128c.864-.032,1.088-.16,1.088-.928v-.16c-.064-2.112-.1-4.736-.1-7.392s.032-5.344.064-7.584a23.738,23.738,0,0,0,2.08-3.04c.16-.32.448-.32.8-.352.448-.032.64-.192.64-.352S126.24-17.728,126.016-17.856ZM139.9-15.9H130.5c.032-1.888.064-2.944.064-2.944h9.312S139.9-17.664,139.9-15.9Zm0,.64c0,1.12,0,2.3-.064,3.456H130.5v-3.456Zm-.96,7.328a13.664,13.664,0,0,1-3.36,4.64,16.8,16.8,0,0,1-3.744-4,4.572,4.572,0,0,0,.448-.64Zm17.248-16.512c.256-.064.384-.192.384-.352,0-.128-.128-.288-.416-.384-.736-.224-1.312-.416-2.464-.7a.322.322,0,0,1-.1-.032c-.128,0-.1.128-.128.288a19.919,19.919,0,0,1-1.536,5.536,14.4,14.4,0,0,0-2.208-1.024.348.348,0,0,0-.16-.032.214.214,0,0,0-.224.192.342.342,0,0,0,.192.288,7.45,7.45,0,0,1,2.784,3.744,1.112,1.112,0,0,0,.992.832,1.026,1.026,0,0,0,.928-1.12,2.078,2.078,0,0,0-.256-.992,2.662,2.662,0,0,0-.576-.8,6.292,6.292,0,0,0-.96-.768,24.662,24.662,0,0,0,2.944-4.288C155.584-24.448,155.616-24.352,156.192-24.448ZM177.376-3.04a11.117,11.117,0,0,1-4.9-5.408,21.313,21.313,0,0,0,3.136-2.88.256.256,0,0,1,.256-.128h.512c.416-.032.544-.16.544-.288a.724.724,0,0,0-.32-.48,19.815,19.815,0,0,0-2.08-1.344.425.425,0,0,0-.224-.1c-.1,0-.128.1-.16.256a16.941,16.941,0,0,1-1.856,4.448,32.8,32.8,0,0,1-1.824-6.72h6.688q.384,0,.384-.192a.433.433,0,0,0-.16-.288c-.32-.352-1.5-1.44-2.016-1.856-.1-.064-.16-.128-.224-.128s-.128.064-.224.16c-.224.288-.96,1.28-1.12,1.472a.531.531,0,0,1-.512.192h-.96c.32-2.272.64-4.48.96-6.528,0-.064.032-.1.032-.16.128-.224.384-.288.832-.48.288-.128.384-.256.384-.352,0-.16-.16-.32-.352-.48-.416-.32-1.024-.768-1.44-1.088a.559.559,0,0,0-.32-.16c-.128,0-.192.064-.256.192-.16.224-.576.576-.7.768-.128.16-.192.224-.512.224h-6.56a9.992,9.992,0,0,1-2.752-.288.814.814,0,0,0-.224-.064.085.085,0,0,0-.1.1c0,.064.032.1.032.16a3.584,3.584,0,0,0,.288.7c.1.16.16.192.288.192h.128a13.637,13.637,0,0,1,2.336-.16h7.1c-.1,1.024-.224,1.952-.384,3.04h-5.888a9.992,9.992,0,0,1-2.752-.288.814.814,0,0,0-.224-.064.085.085,0,0,0-.1.1c0,.064.032.1.032.16a3.583,3.583,0,0,0,.288.7c.1.16.16.192.288.192h.128a13.637,13.637,0,0,1,2.336-.16h5.824c-.192,1.216-.288,2.3-.608,3.744h-7.84a9.992,9.992,0,0,1-2.752-.288.814.814,0,0,0-.224-.064.085.085,0,0,0-.1.1c0,.064.032.1.032.16a3.584,3.584,0,0,0,.288.7c.1.16.16.192.288.192h.128a13.637,13.637,0,0,1,2.336-.16h3.36c-.832,1.216-2.24,2.272-4.8,3.616a.352.352,0,0,0-.192.32c0,.1.064.16.192.16.032,0,.064-.032.128-.032a17.528,17.528,0,0,0,4.64-2.016,9.525,9.525,0,0,1,.64.928A15.769,15.769,0,0,1,160.1-7.456a.333.333,0,0,0-.128.256c0,.128.064.224.192.224h.1a16.715,16.715,0,0,0,7.232-4.032,10.83,10.83,0,0,1,.544,1.728c-1.7,2.528-3.936,4.416-7.52,6.56v-.064c0-1.7-1.12-3.744-2.944-5.856a.339.339,0,0,0-.288-.16c-.1,0-.16.064-.16.192a.715.715,0,0,0,.1.32,12.635,12.635,0,0,1,1.376,6.048c.032.768.384,1.12.8,1.12a1.193,1.193,0,0,0,.992-.9,19.619,19.619,0,0,0,8.064-5.024,15.311,15.311,0,0,1,.064,1.7,8.492,8.492,0,0,1-.9,4.448,1.3,1.3,0,0,1-1.248.544c-.576,0-1.5-.1-3.136-.288h-.064c-.16,0-.256.1-.256.16a.234.234,0,0,0,.192.224c2.08.768,2.816.8,2.976,2.336.032.256.1.32.224.32a.8.8,0,0,0,.256-.032,3.783,3.783,0,0,0,2.624-1.76A9.613,9.613,0,0,0,170.24-4a15.406,15.406,0,0,0-3.84-9.984,10.546,10.546,0,0,0,1.856-1.7h1.536C170.848-8.928,172-5.056,175.2-.864c.032.032.032.064.064.064a.192.192,0,0,0,.128.032.385.385,0,0,0,.32-.224c.352-.768.672-1.44,1.6-1.536.192,0,.256-.1.256-.224A.342.342,0,0,0,177.376-3.04Zm-16.832-8.224c-.16-1.408-1.376-3.072-3.424-4.416a.455.455,0,0,0-.192-.064.17.17,0,0,0-.192.192.425.425,0,0,0,.1.224,6.141,6.141,0,0,1,1.472,2.56c-2.688.256-4.576.288-5.92.288a36.266,36.266,0,0,0,6.528-8.1c.128-.32.288-.352.672-.352h.224c.288-.032.448-.16.448-.32,0-.128-.128-.288-.352-.416-.48-.256-1.632-.8-2.4-1.12a.242.242,0,0,0-.128-.032c-.128,0-.1.1-.128.224-.544,2.816-3.264,7.392-5.568,10.08-.832-.032-1.568-.1-2.336-.16-.128,0-.288-.064-.384-.064a.085.085,0,0,0-.1.1.406.406,0,0,0,.032.192c.192.64.512,1.568.768,2.4.1.288.256.384.384.384.192,0,.352-.192.416-.512.064-.192,0-.448.352-.48,1.056-.16,2.272-.352,3.552-.608,0,4.224,0,8.928-.192,12.9v.224c0,.352.1.512.672.512h.256c.9-.064,1.088-.224,1.088-.736V1.5c-.1-2.432-.1-5.6-.1-8.672v-4.48c.672-.192,1.6-.384,2.3-.608.128.544.128,1.088.224,1.6.1.672.48.992.9.992.544,0,1.024-.48,1.024-1.376Zm-7.072,3.456c-.64-.224-1.568-.576-2.3-.8-.032,0-.1-.032-.128-.032-.1,0-.128.064-.128.16,0,.064.032.192.032.288A39.218,39.218,0,0,1,149.056.256a.289.289,0,0,0-.032.16c0,.128.064.224.192.224a.231.231,0,0,0,.192-.128A32.95,32.95,0,0,0,152.736-6.4c.16-.48.288-.544.608-.576.448-.032.608-.192.608-.352C153.952-7.52,153.76-7.712,153.472-7.808Zm52.192-10.976v-.064c0-.96-1.28-1.6-3.072-1.632h-.384c-1.856,0-4.16.7-6.656.7a11.747,11.747,0,0,1-1.472-.1h-.128c-.224,0-.224.1,0,.224a7.733,7.733,0,0,0,4.256,1.12,23.777,23.777,0,0,0,2.5-.16h.128c.288,0,.384.064.384.16a.63.63,0,0,1-.128.256c-.512.544-1.28,1.312-1.824,1.824a.652.652,0,0,0-.224.352.069.069,0,0,0,.064.064.737.737,0,0,0,.288-.1,22.337,22.337,0,0,1,3.968-1.7C204.576-18.112,205.6-17.664,205.664-18.784ZM189.312-12c0-.128-.032-.224-.1-.224-.1,0-.16.1-.256.288-1.024,2.5-1.728,4.352-2.592,6.624-.128.384-.288.576-.416.576-.16,0-.32-.256-.448-.768a13.155,13.155,0,0,1-.224-2.656,21.985,21.985,0,0,1,1.952-8.9c.352-.832.96-1.312,1.056-2.08v-.16A4.266,4.266,0,0,0,186.08-22.3a1.01,1.01,0,0,0-.48-.16c-.064,0-.1.032-.1.128a.8.8,0,0,0,.032.256,5.065,5.065,0,0,1,.16,1.312,9.495,9.495,0,0,1-.32,2.368,44.144,44.144,0,0,0-1.344,10.208,15.213,15.213,0,0,0,1.344,7.04c.48.864,1.024,1.184,1.472,1.184.64,0,1.12-.672,1.12-1.5a2.537,2.537,0,0,0-.16-.8,3.06,3.06,0,0,1-.16-1.12c0-1.7.736-4.288,1.632-8.288A1.2,1.2,0,0,0,189.312-12ZM207.04-3.232v-.16c-.1-.608-.96-.832-2.048-.832a9.839,9.839,0,0,0-1.344.1,35.033,35.033,0,0,1-4.352.288c-3.68,0-6.464-.864-6.464-3.68a5.75,5.75,0,0,1,.1-.992,1.326,1.326,0,0,0,.032-.32c0-.16-.032-.256-.1-.256-.1,0-.224.128-.352.416a6.738,6.738,0,0,0-.608,2.528c0,2.976,3.1,4.544,8.96,4.544a38.414,38.414,0,0,0,4.1-.224C206.048-1.952,207.04-2.432,207.04-3.232Zm34.24-12.416c-.352-.352-2.048-1.792-2.464-2.112a.446.446,0,0,0-.288-.128c-.064,0-.1.032-.16.128-.32.48-1.088,1.568-1.248,1.728a.557.557,0,0,1-.448.16h-4.256c-.032-1.152-.032-3.168,0-4.9h7.136c.288,0,.416-.064.416-.192,0-.1-.064-.192-.192-.352a26.416,26.416,0,0,0-2.144-1.888c-.224-.192-.352-.192-.512,0-.224.32-.928,1.248-1.152,1.568a.435.435,0,0,1-.416.224h-3.136c0-1.152.032-2.048.032-2.368a.761.761,0,0,1,.48-.832c.416-.128.608-.352.608-.512,0-.192-.192-.352-.576-.416-.992-.16-1.472-.256-2.4-.352-.128,0-.192-.032-.256-.032a.085.085,0,0,0-.1.1c0,.128.1.48.16,1.184.032.32.064,1.632.064,3.232h-3.424a9.992,9.992,0,0,1-2.752-.288.814.814,0,0,0-.224-.064.085.085,0,0,0-.1.1c0,.064.032.1.032.16a3.584,3.584,0,0,0,.288.7c.1.16.16.192.288.192h.128a13.637,13.637,0,0,1,2.336-.16h3.424c0,.736.032,1.5.032,2.24,0,1.056-.032,1.984-.064,2.656h-4.736a9.992,9.992,0,0,1-2.752-.288.814.814,0,0,0-.224-.064.085.085,0,0,0-.1.1c0,.064.032.1.032.16a3.584,3.584,0,0,0,.288.7c.1.16.16.192.288.192h.128a13.637,13.637,0,0,1,2.336-.16h15.424c.192,0,.32-.064.32-.192C241.408-15.488,241.376-15.552,241.28-15.648ZM224.7-12.608a.332.332,0,0,0,.16-.256.17.17,0,0,0-.192-.192.814.814,0,0,0-.224.064,43.415,43.415,0,0,1-4.16,1.792c0-1.6-.032-3.2-.032-4.672,0-.736,0-1.472.032-2.144h4.128c.256,0,.352-.064.352-.192a.675.675,0,0,0-.16-.352c-.256-.352-1.056-1.152-1.6-1.76-.064-.1-.128-.128-.16-.128-.064,0-.1.064-.16.128-.224.352-.576.992-.864,1.408a.588.588,0,0,1-.448.256h-1.088V-20.1c0-1.92.032-3.264.064-3.648.032-.288-.032-.672.416-.832.416-.128.608-.352.608-.512,0-.192-.192-.352-.576-.416a20.755,20.755,0,0,0-2.336-.352h-.192c-.128,0-.16.032-.16.128,0,.128.1.448.16,1.12.032.192.064,2.592.064,5.952H215.9a22.255,22.255,0,0,0,.7-2.688c.1-.48.448-.448.672-.544.352-.128.512-.32.512-.48a.436.436,0,0,0-.32-.352c-.736-.256-1.664-.576-2.592-.832a.348.348,0,0,0-.16-.032c-.128,0-.16.064-.16.16,0,.128.032.256.032.384a33.011,33.011,0,0,1-1.664,9.536.406.406,0,0,0-.032.192c0,.128.064.224.16.224.064,0,.16-.064.256-.192a21.846,21.846,0,0,0,2.368-4.736h2.656v7.52a25.4,25.4,0,0,1-4.8,1.312c-.416.032-.608.032-.608.224a.584.584,0,0,0,.064.288c.352.832.832,1.76,1.152,2.4a.473.473,0,0,0,.416.288c.224,0,.416-.224.416-.64v-.288c0-.416.128-.384.512-.576.832-.416,1.824-.9,2.848-1.408,0,2.176-.032,4.32-.064,6.112-.032,1.824-.064,3.328-.128,4.288v.1c0,.544.224.768.864.768h.224c.96-.064,1.152-.224,1.152-.832v-.16c-.064-1.76-.1-5.056-.1-8.736v-2.5A32.116,32.116,0,0,0,224.7-12.608Zm16.64,2.208a26.411,26.411,0,0,0-2.144-1.888c-.224-.192-.352-.192-.512,0-.224.32-.928,1.248-1.152,1.568a.435.435,0,0,1-.416.224h-.8c0-.768.032-1.408.032-1.824v-.1c0-.288.032-.608.448-.736s.608-.352.608-.512c0-.192-.192-.352-.576-.416-.768-.128-1.7-.256-2.4-.352-.128,0-.192-.032-.256-.032-.1,0-.128.032-.128.128,0,.128.1.48.16,1.152.032.32.064,1.344.064,2.688h-8a9.992,9.992,0,0,1-2.752-.288.814.814,0,0,0-.224-.064.085.085,0,0,0-.1.1c0,.064.032.1.032.16a3.583,3.583,0,0,0,.288.7c.1.16.16.192.288.192h.128a13.637,13.637,0,0,1,2.336-.16h8v2.592c0,2.464-.032,4.992-.064,6.272-.032.48-.16.64-.736.64a35.044,35.044,0,0,1-3.648-.256H229.7c-.192,0-.288.064-.288.128,0,.1.128.192.32.288,1.824.672,2.912.672,3.1,2.24.032.224.1.352.32.352h.1c2.848-.384,3.1-1.632,3.1-2.976V-.9c-.032-2.016-.032-6.144-.032-8.96h4.8c.288,0,.416-.064.416-.192C241.536-10.144,241.472-10.24,241.344-10.4ZM229.792-4.352c-.192-1.312-1.568-2.72-4.832-3.808a.242.242,0,0,0-.128-.032.228.228,0,0,0-.256.224.231.231,0,0,0,.128.192c2.336,1.472,2.432,3.392,3.168,4.448a.905.905,0,0,0,.768.416,1.243,1.243,0,0,0,1.152-1.28ZM272.832-1.5c-.448-.192-.512-.384-.512-2.624V-6.944c0-.224-.128-.384-.256-.384s-.224.128-.288.416c-.928,5.152-1.056,5.856-2.592,6.048a21.807,21.807,0,0,1-2.976.192,29.671,29.671,0,0,1-3.68-.256c-.832-.1-1.024-.32-1.024-.992-.064-3.424-.064-7.168-.064-10.656a31.744,31.744,0,0,0,9.216-4.224.763.763,0,0,1,.448-.192.951.951,0,0,1,.384.064,2.2,2.2,0,0,0,.416.064c.352,0,.512-.16.512-.352a.514.514,0,0,0-.16-.352c-.64-.576-1.7-1.344-2.432-1.92a.511.511,0,0,0-.256-.1c-.128,0-.16.1-.224.224-1.088,1.952-4.128,4.32-7.9,6.112.032-4.224.064-8,.1-10.144v-.1c0-.256.032-.544.416-.64.48-.128.672-.32.672-.544,0-.192-.224-.384-.64-.48a22.83,22.83,0,0,0-2.464-.352,1.131,1.131,0,0,1-.192-.032c-.128,0-.16.032-.16.16,0,.16.064.48.128,1.056.064.672.1,3.36.1,6.976,0,4.64-.032,10.816-.1,16.32a1.887,1.887,0,0,0,1.92,2.176,42.422,42.422,0,0,0,4.448.256c2.048,0,4.064-.16,6.016-.352a2.033,2.033,0,0,0,1.632-1.824A.744.744,0,0,0,272.832-1.5ZM255.744-24.96c-.928-.32-1.824-.608-2.688-.928a.348.348,0,0,0-.16-.032c-.16,0-.128.224-.192.448a37.077,37.077,0,0,1-7.776,14.72.511.511,0,0,0-.1.256c0,.128.064.224.192.224a.674.674,0,0,0,.352-.16,30.094,30.094,0,0,0,4.9-5.248c.064,4.416.032,10.528-.1,17.28,0,.64.064.9,1.056.768.96-.128,1.184-.128,1.184-.864-.064-3.9-.1-7.68-.1-11.008,0-2.656.032-5.024.032-6.816,0-.448,0-.48.352-.608.384-.16.512-.32.512-.48s-.192-.32-.416-.384c-.32-.1-.64-.192-.9-.256a39.9,39.9,0,0,0,2.976-5.76.563.563,0,0,1,.512-.352c.576,0,.768-.16.768-.352A.541.541,0,0,0,255.744-24.96Zm48.032,16.7q0-.192-.1-.192c-.064,0-.192.1-.32.288a1.355,1.355,0,0,0-.16.224C300.9-4.224,295.776-.96,290.944-.96a9.094,9.094,0,0,1-3.2-.544c-2.112-.768-2.72-2.4-2.72-4.672,0-2.976,1.056-7.072,1.152-11.9.032-1.248.608-2.208.64-3.136v-.032c0-1.408-1.76-2.88-4-2.88h-.288c-.352.032-.544.1-.544.224,0,.1.16.256.48.448a3.245,3.245,0,0,1,1.408,3.04c.032.672.032,1.344.032,1.984,0,4.864-.576,8.864-.576,12,0,3.424.7,5.76,3.616,6.88a11.413,11.413,0,0,0,3.936.736c5.44,0,10.592-3.936,12.7-8.768A1.989,1.989,0,0,0,303.776-8.256Zm31.648-5.312a1.376,1.376,0,0,0-.224-.7c-.672-1.216-2.944-1.984-5.248-1.984a7.76,7.76,0,0,0-4.16,1.088c-.192.16-.32.288-.32.352s.064.1.192.1c.064,0,.128-.032.192-.032a12.092,12.092,0,0,1,2.272-.224,7.63,7.63,0,0,1,3.072.544c.352.16.512.288.512.448,0,.1-.064.224-.256.32-.736.416-1.792,1.088-2.784,1.76-.288.192-.416.32-.416.384,0,.032.032.064.1.064a1.442,1.442,0,0,0,.512-.128,12.316,12.316,0,0,1,4.256-1.024,6.816,6.816,0,0,1,.864.064h.224A1.1,1.1,0,0,0,335.424-13.568Zm-10.272-5.376a.945.945,0,0,0-.992-.928.886.886,0,0,0-.288.032,2.51,2.51,0,0,1-.7.064,12.918,12.918,0,0,1-2.816-.544.625.625,0,0,0-.224-.032c-.064,0-.1,0-.1.032,0,.064.064.128.224.192.64.288,1.024.48,1.5.7a.4.4,0,0,1,.288.352.433.433,0,0,1-.288.384,10.886,10.886,0,0,1-2.72.864c.544-1.664,1.024-3.04,1.472-4.032.192-.448.48-.48.576-1.088v-.128c0-1.024-1.664-2.176-3.584-2.176a4.507,4.507,0,0,0-.64.032c-.32.032-.48.128-.48.256s.16.256.48.384c.736.288,1.184.576,1.184,1.856a9.158,9.158,0,0,1-.1,1.184,26.409,26.409,0,0,1-.736,3.936c-.576.032-1.184.064-1.824.064a10.713,10.713,0,0,1-4.288-.64.979.979,0,0,0-.48-.224.117.117,0,0,0-.128.128,1.261,1.261,0,0,0,.16.448c.576,1.248,2.784,1.984,5.92,1.984h.192a45.97,45.97,0,0,1-5.312,12.288,4.916,4.916,0,0,0-.96,2.528c0,.864.448,1.344,1.024,1.344.544,0,1.184-.416,1.632-1.376,1.824-3.712,3.68-9.952,5.248-14.88,2.368-.224,4.928-.96,6.144-1.952A1.371,1.371,0,0,0,325.152-18.944Zm9.92,18.368c0-.64-.576-1.248-1.728-1.248a2.587,2.587,0,0,0-.48.032,37.461,37.461,0,0,1-4.32.352A6.73,6.73,0,0,1,324.1-2.656a3.718,3.718,0,0,1-1.28-2.816,4.932,4.932,0,0,1,.288-1.536.75.75,0,0,0,.064-.352c0-.128-.032-.192-.128-.192s-.224.128-.416.352a4.685,4.685,0,0,0-.9,2.816,4.471,4.471,0,0,0,1.152,3.072C324.512.48,327.456.96,330.08.96a23.094,23.094,0,0,0,3.776-.32C334.656.48,335.072-.032,335.072-.576ZM347.2.9a1.628,1.628,0,0,0-.128-.64c-.64-1.44-3.424-3.84-6.88-4.48a.625.625,0,0,0-.224-.032c-.192,0-.256.064-.256.16a.575.575,0,0,0,.32.384A13.839,13.839,0,0,1,344.9,1.536a1.312,1.312,0,0,0,1.088.7A1.289,1.289,0,0,0,347.2.9ZM29.792,20.664c-.416-.384-1.7-1.472-2.528-2.112a.63.63,0,0,0-.256-.128.231.231,0,0,0-.192.128c-.48.64-.8,1.056-1.344,1.728a.491.491,0,0,1-.416.16H16.48c0-.416,0-.1.032-1.184v-.1c0-.288.032-.608.416-.736.416-.128.608-.352.608-.544,0-.16-.192-.32-.576-.384-1.056-.16-1.28-.192-2.272-.352a1.029,1.029,0,0,0-.256-.032c-.1,0-.128.032-.128.128,0,.16.1.512.192,1.152.032.256.032.928.032,2.048H5.152A9.992,9.992,0,0,1,2.4,20.152a.814.814,0,0,0-.224-.064.085.085,0,0,0-.1.1c0,.064.032.1.032.16a3.584,3.584,0,0,0,.288.7c.1.16.16.192.288.192h.128a13.637,13.637,0,0,1,2.336-.16H29.536c.288,0,.416-.064.416-.16A.332.332,0,0,0,29.792,20.664ZM24.48,23.736c-.352-.32-1.216-.9-1.632-1.216a.52.52,0,0,0-.288-.128c-.1,0-.16.064-.224.16-.16.192-.576.7-.736.9-.064.128-.16.192-.448.192H10.24s-1.728-.9-2.272-1.12a.511.511,0,0,0-.256-.1c-.064,0-.1.032-.1.16a2.553,2.553,0,0,0,.1.512,7.249,7.249,0,0,1,.192,2.08c0,1.248-.1,2.72-.128,3.936-.032.672.224.8.768.8h.288c.768-.032.992,0,.992-.64v-.64H21.632v.416c0,.8.16.832.9.832.8-.032,1.184-.032,1.184-.736v-.1c-.032-.672-.032-1.152-.032-1.632,0-.64,0-1.248.032-2.272,0-.352.224-.352.608-.576.288-.128.384-.288.384-.416A.676.676,0,0,0,24.48,23.736Zm3.9,7.9c-.544-.448-1.248-1.056-1.792-1.408a.714.714,0,0,0-.352-.16c-.1,0-.16.064-.256.192-.224.256-.64.9-.8,1.088-.128.16-.192.224-.544.224H6.912s-1.888-.992-2.464-1.248a.737.737,0,0,0-.288-.1c-.1,0-.128.064-.128.192a1.74,1.74,0,0,0,.128.544,35.328,35.328,0,0,1,.32,6.208c0,2.656-.064,5.472-.192,7.1V44.5c0,.64.288.864.96.864h.128c.928-.032,1.152-.192,1.152-1.088C6.5,41.3,6.5,37.5,6.5,34.808V32.216h18.88c0,1.216.032,2.56.032,4,0,1.792-.032,3.712-.1,5.664,0,.48-.032.64-.544.64-1.056,0-2.432-.16-3.1-.224H21.6c-.192,0-.288.1-.288.224a.375.375,0,0,0,.288.352c2.208.48,2.528.64,2.656,2.176.032.224.1.352.288.352h.128c2.528-.48,2.752-1.6,2.752-2.688V39.544c0-2.208,0-4.544.032-6.208,0-.416.224-.416.736-.672.32-.16.448-.352.448-.544A.716.716,0,0,0,28.384,31.64Zm-6.208,3.52c-.352-.32-1.152-.9-1.568-1.216a.52.52,0,0,0-.288-.128c-.1,0-.16.064-.224.16-.16.192-.576.7-.736.9-.064.128-.16.192-.448.192H12.48s-1.728-.9-2.272-1.12a.511.511,0,0,0-.256-.1c-.1,0-.1.16,0,.672A19.792,19.792,0,0,1,10.08,37.3c0,1.344-.032,2.88-.064,3.968v.1c0,.672.32.864.928.864h.128c.768-.032.992-.128.992-.8v-.16c0-.224,0-.736-.032-.992h7.36v.48c0,.8.16.992.9.992.8-.032,1.12-.192,1.12-.9v-.1c-.032-.672-.032-1.184-.032-1.728,0-.736,0-1.44.032-2.464,0-.352.224-.352.608-.576.288-.128.384-.288.384-.416A.676.676,0,0,0,22.176,35.16ZM21.7,24.28v.832c0,1.056-.032,1.792-.064,2.88H9.792c0-1.28,0-2.528.064-3.712ZM19.456,35.7v.864c0,1.12-.032,1.952-.064,3.072h-7.36c0-1.376,0-2.784.064-3.936ZM62.176,27.9c-.352-.352-1.984-1.7-2.4-2.016-.128-.1-.192-.128-.256-.128-.1,0-.128.064-.192.128-.32.384-1.152,1.472-1.312,1.632a.557.557,0,0,1-.448.16h-3.3V24.408h5.6c.288,0,.416-.1.416-.192a.339.339,0,0,0-.16-.288c-.32-.288-1.248-1.088-2.016-1.76a.33.33,0,0,0-.256-.128.231.231,0,0,0-.192.128,15.844,15.844,0,0,1-1.184,1.376.547.547,0,0,1-.416.224H54.272V20.984h6.336c.288,0,.448-.064.448-.224a.717.717,0,0,0-.224-.32c-.384-.352-1.568-1.376-2.08-1.792-.224-.192-.352-.192-.512,0-.256.32-.96,1.152-1.216,1.472a.464.464,0,0,1-.416.224H54.272c0-.448.032-.8.032-1.056v-.1c0-.288.032-.608.448-.736.384-.128.576-.352.576-.512,0-.192-.192-.352-.576-.416-.608-.1-1.472-.224-2.272-.352a1.029,1.029,0,0,0-.256-.032c-.1,0-.128.032-.128.128,0,.16.1.512.192,1.152.032.1.032.864.032,1.92H49.184a9.992,9.992,0,0,1-2.752-.288.814.814,0,0,0-.224-.064.085.085,0,0,0-.1.1c0,.064.032.1.032.16a3.584,3.584,0,0,0,.288.7c.1.16.16.192.288.192h.128a13.637,13.637,0,0,1,2.336-.16H52.32v2.784H50.3a9.992,9.992,0,0,1-2.752-.288.814.814,0,0,0-.224-.064.085.085,0,0,0-.1.1c0,.064.032.1.032.16a3.584,3.584,0,0,0,.288.7c.1.16.16.192.288.192h.128a13.637,13.637,0,0,1,2.336-.16H52.32v3.264H49.248a11.06,11.06,0,0,1-2.88-.288.814.814,0,0,0-.224-.064.085.085,0,0,0-.1.1c0,.064.032.1.032.16a3.584,3.584,0,0,0,.288.7.3.3,0,0,0,.32.192h.128a19.839,19.839,0,0,1,2.432-.16H61.984c.192,0,.32-.064.32-.192C62.3,28.056,62.272,27.992,62.176,27.9ZM37.568,25.048c0-.1.032-.192.032-.288,0-1.472-1.344-3.776-2.592-5.12a.467.467,0,0,0-.256-.16.179.179,0,0,0-.16.192.406.406,0,0,0,.032.192c1.44,3.3.768,4.448,1.088,5.632a.9.9,0,0,0,.8.736A1.208,1.208,0,0,0,37.568,25.048Zm7.648-5.056c-.64-.256-1.344-.608-2.08-.832-.032,0-.1-.032-.128-.032-.1,0-.1.064-.1.128v.32a25.5,25.5,0,0,1-1.7,6.752.625.625,0,0,0-.032.224c0,.128.064.192.16.192a.254.254,0,0,0,.224-.16,22.893,22.893,0,0,0,3.04-5.216c.16-.384.16-.512.48-.544.448-.032.608-.192.608-.352C45.7,20.28,45.5,20.088,45.216,19.992Zm.384,7.872c-.384-.448-1.184-1.28-1.632-1.728a.406.406,0,0,0-.224-.128c-.064,0-.128.064-.224.16-.224.288-.832,1.152-.992,1.344a.531.531,0,0,1-.512.192h-1.5c0-4.608.032-7.648.1-8.48.032-.288-.032-.672.416-.832.416-.128.608-.352.608-.512,0-.192-.192-.352-.576-.416a20.891,20.891,0,0,0-2.144-.352H38.72c-.128,0-.16,0-.16.1,0,.128.1.448.16,1.152.032.192.032,2.08.032,5.088V27.7h-2.08a9.993,9.993,0,0,1-2.752-.288.814.814,0,0,0-.224-.064.085.085,0,0,0-.1.1c0,.064.032.1.032.16a3.584,3.584,0,0,0,.288.7c.1.16.16.192.288.192h.128a13.637,13.637,0,0,1,2.336-.16h1.664A37.263,37.263,0,0,1,33.7,41.112a.455.455,0,0,0-.064.192.179.179,0,0,0,.16.192.277.277,0,0,0,.224-.128,30.312,30.312,0,0,0,4.736-8.192c-.032,3.552-.064,7.84-.128,11.36,0,.64.1.864.832.864h.16c1.024-.032,1.056-.256,1.056-.992-.1-4.7-.128-9.632-.16-13.6a10.4,10.4,0,0,1,2.272,4.608c.16.7.576.992.96.992a1.085,1.085,0,0,0,.992-1.216,1.558,1.558,0,0,0-.032-.384c-.288-1.536-2.368-3.392-4.192-4.512V28.344h4.736c.288,0,.48-.1.48-.224A.383.383,0,0,0,45.6,27.864Zm14.976,3.072a19.467,19.467,0,0,0-1.728-1.248.714.714,0,0,0-.352-.16c-.1,0-.16.064-.256.192-.224.256-.64.736-.8.928-.128.16-.192.224-.544.224h-7.1s-1.824-.992-2.4-1.248a.737.737,0,0,0-.288-.1c-.1,0-.128.064-.128.192a1.74,1.74,0,0,0,.128.544,39.361,39.361,0,0,1,.32,6.592c0,2.816-.064,5.792-.192,7.424V44.5c0,.64.256.864.928.864h.128c.928-.032,1.12-.192,1.12-1.088,0-1.5-.032-3.36-.032-5.152h8.256c0,.9-.032,1.888-.064,2.752,0,.48-.032.608-.544.64h-.288c-1.088,0-2.784-.128-3.392-.192h-.1c-.192,0-.288.1-.288.192a.342.342,0,0,0,.32.288c2.048.416,2.72.64,2.912,2.24.032.224.1.352.32.352h.1c2.752-.384,3.008-1.6,3.008-2.72V39.416c0-2.432,0-5.12.032-6.784,0-.416.224-.416.736-.672.32-.16.448-.352.448-.544A.716.716,0,0,0,60.576,30.936Zm-2.912,3.456H49.376v-2.88h8.256C57.664,32.344,57.664,33.336,57.664,34.392Zm0,.64c0,1.12,0,2.272-.032,3.456H49.376V35.032ZM94.208,25.72c-.448-.352-1.568-1.184-2.4-1.824a.63.63,0,0,0-.256-.128.231.231,0,0,0-.192.128c-.48.64-.864,1.088-1.152,1.44a.547.547,0,0,1-.416.224H87.264c.032-.416.032-.8.064-1.12v-.1c0-.288.032-.608.416-.736.416-.128.608-.352.608-.512,0-.192-.192-.352-.576-.416a22.971,22.971,0,0,0-2.3-.352H85.28c-.128,0-.16.032-.16.128,0,.128.064.448.128,1.12.032.192.032.96.032,1.984h-7.3c.032-.416.032-.8.064-1.12v-.1c0-.288.032-.608.416-.736.416-.128.608-.352.608-.512,0-.192-.192-.352-.576-.416a22.971,22.971,0,0,0-2.3-.352H76c-.128,0-.16.032-.16.128,0,.128.064.448.128,1.12,0,.192.032.96.032,1.984H70.752V21.368H93.7c.512,0,.608-.224.288-.544-.352-.352-1.344-1.056-2.3-1.856-.224-.192-.32-.192-.48,0a13.5,13.5,0,0,1-1.248,1.5.648.648,0,0,1-.448.256H81.728c0-.64,0-.256.032-1.472v-.1c0-.288.032-.608.416-.736.416-.128.608-.352.608-.544,0-.16-.192-.32-.576-.384-1.056-.16-1.28-.192-2.272-.352a1.029,1.029,0,0,0-.256-.032c-.1,0-.128.032-.128.128,0,.16.1.512.192,1.152a11.532,11.532,0,0,1,.064,1.408c0,.288,0,.608-.032.928h-8.7c-.768-.416-1.984-1.28-2.336-1.472a.425.425,0,0,0-.224-.1c-.064,0-.1.064-.1.16a2.626,2.626,0,0,0,.1.576,35.655,35.655,0,0,1,.224,5.376c0,2.88-.1,6.208-.256,8.192a33.161,33.161,0,0,1-2.688,10.944,1.986,1.986,0,0,0-.16.576c0,.128.064.192.128.192.1,0,.288-.128.512-.416A24.543,24.543,0,0,0,70.3,33.944c.256-2.432.384-5.216.448-7.744H76c0,1.92-.032,4.352-.128,5.44v.224c0,.448.16.672.7.672a1.558,1.558,0,0,0,.384-.032c.992-.128,1.12-.224,1.12-.736v-.256a3.88,3.88,0,0,1-.032-.64h7.136c0,.192-.032.352-.032.512v.224c0,.448.16.672.7.672a1.558,1.558,0,0,0,.384-.032c.992-.128,1.12-.224,1.12-.736v-.256c-.064-.96-.1-2.624-.1-4.1V26.2h6.688c.288,0,.448-.1.448-.192A.387.387,0,0,0,94.208,25.72ZM94.08,43.128c.16-.064.256-.16.256-.256,0-.128-.128-.256-.384-.256A27.2,27.2,0,0,1,83.52,40.728a28.591,28.591,0,0,0,5.024-4.9,1.049,1.049,0,0,1,.96-.48c.448-.032.768-.192.768-.48,0-.16-.1-.352-.384-.544-.608-.448-1.408-.928-2.08-1.344a.516.516,0,0,0-.288-.1.176.176,0,0,0-.16.1c-.16.256-.352.512-.544.8-.16.224-.256.256-.416.256H74.944a9.992,9.992,0,0,1-2.752-.288.814.814,0,0,0-.224-.064.085.085,0,0,0-.1.1c0,.064.032.1.032.16a3.584,3.584,0,0,0,.288.7c.1.16.16.192.288.192h.128a13.637,13.637,0,0,1,2.336-.16h.48c.032.064.1.128.128.192a28.312,28.312,0,0,0,5.12,5.824,28.106,28.106,0,0,1-10.784,4.1c-.48.064-.7.256-.7.384s.16.224.48.224c.064,0,.16-.032.256-.032,4.832-.64,8.608-1.472,12.16-3.648A26.466,26.466,0,0,0,92,45.336h.128c.256,0,.32-.16.32-.384C92.448,44.12,92.8,43.512,94.08,43.128ZM85.28,26.2c0,1.28-.032,2.912-.064,4.032h-7.2c-.032-.7-.064-1.536-.064-2.368,0-.576.032-1.152.032-1.664Zm1.12,8.48a21.074,21.074,0,0,1-4.608,5.152,19.894,19.894,0,0,1-5.6-5.152Zm38.5-3.424a9.892,9.892,0,0,0-6.368-9.28,14.314,14.314,0,0,0-5.184-.992c-7.392,0-13.824,5.888-13.824,13.312A13.59,13.59,0,0,0,100.1,38.1c.64,2.144,1.7,3.008,2.88,3.008a5.515,5.515,0,0,0,3.744-2.272,25.394,25.394,0,0,0,5.568-13.056,9.847,9.847,0,0,0,.064-1.056,3.581,3.581,0,0,0-.9-2.688c.448-.032.928-.064,1.376-.064a12.466,12.466,0,0,1,5.088,1.088c2.752,1.184,4.512,4.384,4.512,7.872,0,4.736-3.168,9.984-11.168,11.744-.32.1-.512.224-.512.32s.128.16.416.16h.16C120.768,42.1,124.9,36.536,124.9,31.256Zm-13.92-7.328a11.644,11.644,0,0,1-.16,1.792,27.508,27.508,0,0,1-4.96,11.3c-.768,1.056-1.536,1.568-2.176,1.568-.7,0-1.28-.576-1.632-1.728a9.893,9.893,0,0,1-.48-3.04c0-5.12,3.616-10.592,9.056-11.648A3.366,3.366,0,0,1,110.976,23.928Zm46.848-1.568c-.32-.288-1.376-1.28-1.92-1.856a.331.331,0,0,0-.256-.128.2.2,0,0,0-.192.128,8.608,8.608,0,0,1-.9,1.472.547.547,0,0,1-.416.224h-1.888c.288-1.024.544-2.048.832-3.1.1-.384.288-.48.64-.544.32-.064.48-.192.48-.352a.434.434,0,0,0-.352-.352,18.667,18.667,0,0,0-2.432-.544H151.2c-.1,0-.16,0-.16.1,0,.064.032.128.032.192,0,.128.032.384.032.7a22.725,22.725,0,0,1-1.76,8.928.192.192,0,0,0-.032.128.282.282,0,0,0,.256.288.331.331,0,0,0,.224-.16,16.223,16.223,0,0,0,2.272-4.64h5.5c.288,0,.416-.1.416-.192A.339.339,0,0,0,157.824,22.36ZM151.04,32.568c-.288-.256-1.6-1.344-1.952-1.632-.128-.1-.192-.128-.256-.128a.231.231,0,0,0-.192.128c-.32.384-.832,1.088-.992,1.248a3.438,3.438,0,0,1-1.248.16h-.224v-4.32h1.056v.48c0,.416.1.512.608.512h.224c.8-.032.8-.224.8-.832,0-.96-.032-2.24-.032-3.136,0-.352.128-.352.48-.608.32-.128.448-.288.448-.448a.548.548,0,0,0-.256-.384c-.352-.288-.9-.768-1.184-.992a.383.383,0,0,0-.256-.128c-.1,0-.16.064-.256.16-.224.224-.448.48-.608.672a.475.475,0,0,1-.48.224h-.544c-.032-.64-.032-1.184-.032-1.7,0-.672,0-1.312.032-2.08h3.84c.192,0,.32-.1.32-.192a.277.277,0,0,0-.128-.224c-.288-.256-1.6-1.344-1.952-1.632-.128-.1-.192-.128-.256-.128a.231.231,0,0,0-.192.128c-.256.352-.832,1.088-.992,1.248a.557.557,0,0,1-.448.16h-3.68s-1.44-.96-1.952-1.248a.737.737,0,0,0-.288-.1c-.1,0-.16.064-.16.192a2.163,2.163,0,0,0,.16.544,35.649,35.649,0,0,1,.288,5.92c0,3.008-.1,6.528-.192,8.8v.192c0,.736.192.864.832.9h.16c.736,0,.736-.256.736-1.088v-.256h8.576c.256,0,.384-.064.384-.16C151.232,32.76,151.168,32.664,151.04,32.568Zm6.016-3.872c-.32-.352-1.408-1.44-1.92-1.856-.1-.064-.16-.128-.224-.128-.1,0-.16.064-.224.16-.256.384-.864,1.28-1.024,1.472a.531.531,0,0,1-.512.192h-.7a4.943,4.943,0,0,1-2.016-.288.814.814,0,0,0-.224-.064.085.085,0,0,0-.1.1c0,.064.032.1.032.16a3.584,3.584,0,0,0,.288.7c.1.16.16.192.288.192h.128a5.6,5.6,0,0,1,1.6-.16h4.384q.384,0,.384-.192A.433.433,0,0,0,157.056,28.7ZM140.32,40.312a.3.3,0,0,0,.192-.256c0-.1-.064-.192-.224-.192h-.128c-1.728.48-3.168.864-4.448,1.152-.032-2.528-.032-6.528-.032-9.792h4.064q.384,0,.384-.192a.433.433,0,0,0-.16-.288,23.941,23.941,0,0,0-1.792-1.6c-.1-.064-.16-.128-.224-.128s-.1.064-.192.16c-.224.288-.768,1.024-.928,1.216a.531.531,0,0,1-.512.192h-.64c0-1.472.032-2.848.032-3.968h3.328c.192,0,.32-.1.32-.192a.277.277,0,0,0-.128-.224c-.512-.48-1.344-1.216-1.7-1.5-.128-.1-.192-.128-.256-.128s-.1.032-.16.128c-.256.352-.7.96-.864,1.12a.557.557,0,0,1-.448.16h-1.5a12.641,12.641,0,0,1-2.368-.192,30.645,30.645,0,0,0,3.36-6.24,8.465,8.465,0,0,1,2.752,3.9.946.946,0,0,0,.864.672,1.036,1.036,0,0,0,.928-1.088,1.86,1.86,0,0,0-.16-.672c-.576-1.248-2.208-2.3-4.224-3.232.032-.064.032-.1.064-.16.128-.32.352-.32.736-.352s.544-.192.544-.352a.539.539,0,0,0-.448-.448c-.9-.256-1.376-.416-2.464-.7h-.064c-.16,0-.192.064-.192.16v.192c-.224,2.624-1.856,6.944-3.936,10.3a.753.753,0,0,0-.064.256c0,.1.032.16.128.16a.467.467,0,0,0,.256-.16,13.836,13.836,0,0,0,1.44-1.6c.032.064.064.1.1.16.1.16.16.192.288.192h.128a10.146,10.146,0,0,1,2.016-.16c0,1.12.032,2.464.032,3.968H132.96a9.992,9.992,0,0,1-2.752-.288.814.814,0,0,0-.224-.064.085.085,0,0,0-.1.1c0,.064.032.1.032.16a3.583,3.583,0,0,0,.288.7c.1.16.16.192.288.192h.128a13.637,13.637,0,0,1,2.336-.16h1.056c0,3.36,0,7.552-.032,10.112-1.184.16-2.368.352-3.808.416h-.288c-.1,0-.192,0-.192.128a1.3,1.3,0,0,0,.064.224c.32.9.64,1.7.992,2.464.1.256.256.352.384.352s.256-.16.32-.416c.064-.416-.032-.64.288-.736A54,54,0,0,0,140.32,40.312Zm-7.3-2.816a7.175,7.175,0,0,0-2.144-4.48.467.467,0,0,0-.256-.16.146.146,0,0,0-.128.16.753.753,0,0,0,.064.256c1.088,2.144.64,3.552.832,4.736.1.512.416.768.736.768.448,0,.9-.416.9-1.216Zm6.656-4.16c-.64-.256-1.184-.48-1.92-.7-.032,0-.1-.032-.128-.032-.1,0-.128.064-.128.16,0,.064.032.192.032.288a24.047,24.047,0,0,1-1.056,5.76.625.625,0,0,0-.032.224c0,.1.032.16.1.16s.128-.032.224-.16a22.831,22.831,0,0,0,2.3-4.384c.16-.384.16-.512.48-.544.384-.064.544-.192.544-.352S139.936,33.432,139.68,33.336ZM158.24,43.7c-.32-.288-1.152-1.376-1.568-1.856-.1-.1-.16-.16-.256-.16a.236.236,0,0,0-.192.16,10.127,10.127,0,0,1-.608,1.472.576.576,0,0,1-.288.192c-.032-1.152-.064-2.016-.064-2.72,0-1.12.032-1.952.064-3.264,0-.384.352-.576.64-.7.256-.128.352-.256.352-.416a.786.786,0,0,0-.32-.48c-.448-.384-1.056-.928-1.376-1.184a.658.658,0,0,0-.288-.16c-.064,0-.128.064-.224.16a9.228,9.228,0,0,1-.608.768.585.585,0,0,1-.544.224h-9.44s-1.408-.96-1.952-1.28a.984.984,0,0,0-.288-.128c-.064,0-.1.064-.1.224,0,.128.032.32.064.576a19.5,19.5,0,0,1,.128,2.784c0,1.44-.032,3.3-.128,5.632h-.032a9.992,9.992,0,0,1-2.752-.288.814.814,0,0,0-.224-.064.085.085,0,0,0-.1.1c0,.064.032.1.032.16a3.584,3.584,0,0,0,.288.7c.1.16.16.192.288.192h.128a13.637,13.637,0,0,1,2.336-.16h16.768c.288,0,.416-.1.416-.192A.339.339,0,0,0,158.24,43.7Zm-13.632-20.16h-2.336V19.768h2.336A37.133,37.133,0,0,1,144.608,23.544Zm2.656,3.84h-4.992v-3.2h4.992c.032.448.032.864.032,1.312C147.3,26.136,147.3,26.744,147.264,27.384Zm-2.656,4.96h-2.336v-4.32h2.336C144.672,29.5,144.672,31.032,144.608,32.344Zm8.928,11.2h-2.624c-.032-3.36-.032-3.9,0-7.168h2.624s.032,1.536.032,3.68C153.568,41.112,153.568,42.328,153.536,43.544Zm-4.128,0h-2.5c0-3.36,0-3.9.032-7.168h2.464c.032,1.888.032,2.88.032,4.032C149.44,41.24,149.44,42.136,149.408,43.544Zm-3.968-7.168c.032,1.632.032,2.592.032,3.584,0,.96,0,1.92-.064,3.584h-2.336V41.208c0-2.912.032-4.832.032-4.832ZM190.048,42.2c.256-.1.352-.224.352-.352,0-.1-.1-.192-.32-.192h-.1c-2.528.256-4.832.384-6.848.384a42.388,42.388,0,0,1-5.792-.384c-.032-1.984-.032-4.544-.032-7.1h9.344c.192,0,.32-.064.32-.192,0-.064-.032-.128-.128-.224-.352-.352-2.048-1.792-2.464-2.112a.446.446,0,0,0-.288-.128c-.064,0-.1.032-.16.128-.32.48-1.088,1.568-1.248,1.728a.557.557,0,0,1-.448.16h-4.928c0-2.24.032-4.416.032-6.048h9.792c.288,0,.416-.1.416-.192a.339.339,0,0,0-.16-.288c-.352-.32-1.344-1.152-2.144-1.792,1.28-.928,2.4-2.336,3.712-2.336h.384c.48,0,.7-.192.7-.48a1.232,1.232,0,0,0-.416-.768c-.544-.544-1.5-1.376-1.92-1.7a.446.446,0,0,0-.288-.128c-.064,0-.128.032-.224.128-.128.128-.7.672-.9.832a.584.584,0,0,1-.48.192h-9.152c0-.544,0-1.44.032-2.08v-.1c0-.288.032-.608.416-.736.416-.128.608-.352.608-.544,0-.16-.192-.32-.576-.384-1.056-.16-1.408-.192-2.4-.352a1.029,1.029,0,0,0-.256-.032c-.1,0-.128.032-.128.128,0,.16.1.512.192,1.152.032.256.032,1.888.032,2.944H165.76c-.064-.576-.16-1.12-.256-1.6-.064-.288-.16-.416-.288-.416s-.256.192-.288.48c-.192,3.392-1.888,3.52-2.464,4.864a1.72,1.72,0,0,0-.16.672,1.1,1.1,0,0,0,1.184,1.088,1.414,1.414,0,0,0,.7-.16c1.184-.608,1.6-2.272,1.6-3.936v-.352h20.64a30.388,30.388,0,0,1-1.6,3.264.425.425,0,0,0-.224-.1.231.231,0,0,0-.192.128c-.48.64-.8,1.056-1.344,1.728a.547.547,0,0,1-.416.224H167.68a9.992,9.992,0,0,1-2.752-.288.814.814,0,0,0-.224-.064.085.085,0,0,0-.1.1c0,.064.032.1.032.16a3.584,3.584,0,0,0,.288.7c.1.16.16.192.288.192h.128a13.637,13.637,0,0,1,2.336-.16h7.456c.032,2.5.032,6.208.032,9.536v3.84a12.105,12.105,0,0,1-2.848-1.056,7.744,7.744,0,0,1-3.552-4.224,21.631,21.631,0,0,0,.8-2.912.56.56,0,0,1,.544-.352c.064,0,.128.032.192.032h.064c.352,0,.544-.16.544-.32s-.128-.352-.448-.48c-.384-.128-1.76-.608-2.624-.864a1.3,1.3,0,0,0-.224-.064c-.1,0-.1.064-.128.32-.16,2.784-1.44,9.12-5.728,13.5a.33.33,0,0,0-.128.256.214.214,0,0,0,.224.192.346.346,0,0,0,.224-.1,18.967,18.967,0,0,0,6.368-8.352,8.711,8.711,0,0,0,2.72,4.416c2.944,2.368,7.1,3.136,15.424,3.136h1.6c.384,0,.416-.1.448-.32A2.573,2.573,0,0,1,190.048,42.2Z" transform="translate(-1.664 25.92)"/></svg>