<svg xmlns="http://www.w3.org/2000/svg" width="38.157" height="12.102" viewBox="0 0 38.157 12.102"><path d="M2.234-3.7A3.136,3.136,0,0,0,2.7-2.117,3.055,3.055,0,0,0,5.422-.977a4.826,4.826,0,0,0,1.594-.25A1.771,1.771,0,0,0,8.406-2.961,1.5,1.5,0,0,0,7.82-4.3a5.916,5.916,0,0,0-1.859-.68L4.406-5.328A7.04,7.04,0,0,1,2.25-6.086,2.4,2.4,0,0,1,1.156-8.234a3.308,3.308,0,0,1,1.07-2.539,4.294,4.294,0,0,1,3.031-.992,5.265,5.265,0,0,1,3.066.871A3.144,3.144,0,0,1,9.586-8.109H8.125a2.876,2.876,0,0,0-.5-1.414,2.9,2.9,0,0,0-2.414-.9,2.793,2.793,0,0,0-1.977.578,1.809,1.809,0,0,0-.6,1.344,1.312,1.312,0,0,0,.7,1.234,10.318,10.318,0,0,0,2.086.625l1.609.367a4.931,4.931,0,0,1,1.8.727A2.721,2.721,0,0,1,9.922-3.211,2.916,2.916,0,0,1,8.535-.484a6.21,6.21,0,0,1-3.223.82A4.819,4.819,0,0,1,1.961-.758,3.69,3.69,0,0,1,.773-3.7Zm12.7-4.906a3.648,3.648,0,0,1,2.3.688A3.294,3.294,0,0,1,18.3-5.555H16.93a2.524,2.524,0,0,0-.57-1.285,1.8,1.8,0,0,0-1.43-.512,1.975,1.975,0,0,0-1.922,1.313,5.214,5.214,0,0,0-.375,2.1,3.955,3.955,0,0,0,.531,2.117,1.822,1.822,0,0,0,1.672.859A1.828,1.828,0,0,0,16.223-1.5a2.943,2.943,0,0,0,.707-1.465H18.3A3.67,3.67,0,0,1,17.125-.527a3.656,3.656,0,0,1-2.4.77,3.2,3.2,0,0,1-2.617-1.2,4.59,4.59,0,0,1-.977-3,5.048,5.048,0,0,1,1.07-3.43A3.459,3.459,0,0,1,14.93-8.609Zm4.813.242h1.336v1.445a3.193,3.193,0,0,1,.8-1.027,2.086,2.086,0,0,1,1.477-.605q.039,0,.133.008l.32.031v1.484a2.1,2.1,0,0,0-.23-.031q-.105-.008-.23-.008a2.007,2.007,0,0,0-1.633.684,2.386,2.386,0,0,0-.57,1.574V0H19.742ZM28.352-.906A1.939,1.939,0,0,0,30.27-1.965a5.274,5.274,0,0,0,.52-2.355,4.194,4.194,0,0,0-.375-1.906,2.11,2.11,0,0,0-2.047-1.156,2.018,2.018,0,0,0-1.875.984,4.563,4.563,0,0,0-.586,2.375A3.969,3.969,0,0,0,26.492-1.8,2.064,2.064,0,0,0,28.352-.906Zm.055-7.7a3.789,3.789,0,0,1,2.734,1.078,4.21,4.21,0,0,1,1.117,3.172,5.442,5.442,0,0,1-.984,3.344A3.561,3.561,0,0,1,28.219.3,3.449,3.449,0,0,1,25.477-.863,4.613,4.613,0,0,1,24.461-4a4.991,4.991,0,0,1,1.07-3.359A3.592,3.592,0,0,1,28.406-8.609Zm5.563-2.867h1.406V0H33.969Zm3.555,0H38.93V0H37.523Z" transform="translate(-0.773 11.766)"/></svg>